G04 #@! TF.GenerationSoftware,KiCad,Pcbnew,9.0.3*
G04 #@! TF.CreationDate,2025-08-25T22:34:56-05:00*
G04 #@! TF.ProjectId,TestBoard_TPS27SA08-Q1,54657374-426f-4617-9264-5f5450533237,rev?*
G04 #@! TF.SameCoordinates,Original*
G04 #@! TF.FileFunction,Paste,Bot*
G04 #@! TF.FilePolarity,Positive*
%FSLAX46Y46*%
G04 Gerber Fmt 4.6, Leading zero omitted, Abs format (unit mm)*
G04 Created by KiCad (PCBNEW 9.0.3) date 2025-08-25 22:34:56*
%MOMM*%
%LPD*%
G01*
G04 APERTURE LIST*
G04 Aperture macros list*
%AMRoundRect*
0 Rectangle with rounded corners*
0 $1 Rounding radius*
0 $2 $3 $4 $5 $6 $7 $8 $9 X,Y pos of 4 corners*
0 Add a 4 corners polygon primitive as box body*
4,1,4,$2,$3,$4,$5,$6,$7,$8,$9,$2,$3,0*
0 Add four circle primitives for the rounded corners*
1,1,$1+$1,$2,$3*
1,1,$1+$1,$4,$5*
1,1,$1+$1,$6,$7*
1,1,$1+$1,$8,$9*
0 Add four rect primitives between the rounded corners*
20,1,$1+$1,$2,$3,$4,$5,0*
20,1,$1+$1,$4,$5,$6,$7,0*
20,1,$1+$1,$6,$7,$8,$9,0*
20,1,$1+$1,$8,$9,$2,$3,0*%
G04 Aperture macros list end*
%ADD10RoundRect,0.243750X0.456250X-0.243750X0.456250X0.243750X-0.456250X0.243750X-0.456250X-0.243750X0*%
%ADD11RoundRect,0.250000X-0.450000X0.262500X-0.450000X-0.262500X0.450000X-0.262500X0.450000X0.262500X0*%
%ADD12RoundRect,0.225000X-0.250000X0.225000X-0.250000X-0.225000X0.250000X-0.225000X0.250000X0.225000X0*%
%ADD13RoundRect,0.250000X-0.262500X-0.450000X0.262500X-0.450000X0.262500X0.450000X-0.262500X0.450000X0*%
G04 APERTURE END LIST*
D10*
X117000000Y-89187500D03*
X117000000Y-87312500D03*
X134500000Y-89187500D03*
X134500000Y-87312500D03*
D11*
X129500000Y-90837500D03*
X129500000Y-92662500D03*
D10*
X132000000Y-89187500D03*
X132000000Y-87312500D03*
X127000000Y-89187500D03*
X127000000Y-87312500D03*
X146250000Y-89187500D03*
X146250000Y-87312500D03*
X138500000Y-89187500D03*
X138500000Y-87312500D03*
D12*
X158250000Y-117725000D03*
X158250000Y-119275000D03*
D11*
X138500000Y-90837500D03*
X138500000Y-92662500D03*
X117000000Y-90837500D03*
X117000000Y-92662500D03*
X148750000Y-90837500D03*
X148750000Y-92662500D03*
X153750000Y-90837500D03*
X153750000Y-92662500D03*
D12*
X162000000Y-116250000D03*
X162000000Y-117800000D03*
D10*
X148750000Y-89187500D03*
X148750000Y-87312500D03*
X122000000Y-89187500D03*
X122000000Y-87312500D03*
D11*
X122000000Y-90837500D03*
X122000000Y-92662500D03*
D12*
X162000000Y-123975000D03*
X162000000Y-125525000D03*
D13*
X139520000Y-96000000D03*
X141345000Y-96000000D03*
D12*
X162000000Y-120225000D03*
X162000000Y-121775000D03*
D11*
X134500000Y-90837500D03*
X134500000Y-92662500D03*
D10*
X151250000Y-89187500D03*
X151250000Y-87312500D03*
X143750000Y-89187500D03*
X143750000Y-87312500D03*
D12*
X165500000Y-120475000D03*
X165500000Y-122025000D03*
D13*
X135682500Y-96000000D03*
X137507500Y-96000000D03*
D10*
X156250000Y-89187500D03*
X156250000Y-87312500D03*
X141000000Y-89187500D03*
X141000000Y-87312500D03*
D12*
X165500000Y-116725000D03*
X165500000Y-118275000D03*
D11*
X124500000Y-90837500D03*
X124500000Y-92662500D03*
D10*
X124500000Y-89187500D03*
X124500000Y-87312500D03*
D11*
X156250000Y-90837500D03*
X156250000Y-92662500D03*
X151250000Y-90837500D03*
X151250000Y-92662500D03*
D10*
X129500000Y-89187500D03*
X129500000Y-87312500D03*
D11*
X152250000Y-100087500D03*
X152250000Y-101912500D03*
D12*
X158250000Y-129225000D03*
X158250000Y-130775000D03*
D11*
X132000000Y-90837500D03*
X132000000Y-92662500D03*
X146250000Y-90837500D03*
X146250000Y-92662500D03*
X119500000Y-90837500D03*
X119500000Y-92662500D03*
D12*
X158250000Y-123475000D03*
X158250000Y-125025000D03*
D11*
X127000000Y-90837500D03*
X127000000Y-92662500D03*
X147250000Y-100087500D03*
X147250000Y-101912500D03*
D10*
X153750000Y-89187500D03*
X153750000Y-87312500D03*
D12*
X165500000Y-124225000D03*
X165500000Y-125775000D03*
D11*
X149750000Y-100087500D03*
X149750000Y-101912500D03*
X143750000Y-90837500D03*
X143750000Y-92662500D03*
X141000000Y-90837500D03*
X141000000Y-92662500D03*
D10*
X119500000Y-89187500D03*
X119500000Y-87312500D03*
M02*
