G04 #@! TF.GenerationSoftware,KiCad,Pcbnew,9.0.3*
G04 #@! TF.CreationDate,2025-08-25T22:34:56-05:00*
G04 #@! TF.ProjectId,TestBoard_TPS27SA08-Q1,54657374-426f-4617-9264-5f5450533237,rev?*
G04 #@! TF.SameCoordinates,Original*
G04 #@! TF.FileFunction,Legend,Bot*
G04 #@! TF.FilePolarity,Positive*
%FSLAX46Y46*%
G04 Gerber Fmt 4.6, Leading zero omitted, Abs format (unit mm)*
G04 Created by KiCad (PCBNEW 9.0.3) date 2025-08-25 22:34:56*
%MOMM*%
%LPD*%
G01*
G04 APERTURE LIST*
G04 Aperture macros list*
%AMRoundRect*
0 Rectangle with rounded corners*
0 $1 Rounding radius*
0 $2 $3 $4 $5 $6 $7 $8 $9 X,Y pos of 4 corners*
0 Add a 4 corners polygon primitive as box body*
4,1,4,$2,$3,$4,$5,$6,$7,$8,$9,$2,$3,0*
0 Add four circle primitives for the rounded corners*
1,1,$1+$1,$2,$3*
1,1,$1+$1,$4,$5*
1,1,$1+$1,$6,$7*
1,1,$1+$1,$8,$9*
0 Add four rect primitives between the rounded corners*
20,1,$1+$1,$2,$3,$4,$5,0*
20,1,$1+$1,$4,$5,$6,$7,0*
20,1,$1+$1,$6,$7,$8,$9,0*
20,1,$1+$1,$8,$9,$2,$3,0*%
%AMFreePoly0*
4,1,23,0.500000,-0.750000,0.000000,-0.750000,0.000000,-0.745722,-0.065263,-0.745722,-0.191342,-0.711940,-0.304381,-0.646677,-0.396677,-0.554381,-0.461940,-0.441342,-0.495722,-0.315263,-0.495722,-0.250000,-0.500000,-0.250000,-0.500000,0.250000,-0.495722,0.250000,-0.495722,0.315263,-0.461940,0.441342,-0.396677,0.554381,-0.304381,0.646677,-0.191342,0.711940,-0.065263,0.745722,0.000000,0.745722,
0.000000,0.750000,0.500000,0.750000,0.500000,-0.750000,0.500000,-0.750000,$1*%
%AMFreePoly1*
4,1,23,0.000000,0.745722,0.065263,0.745722,0.191342,0.711940,0.304381,0.646677,0.396677,0.554381,0.461940,0.441342,0.495722,0.315263,0.495722,0.250000,0.500000,0.250000,0.500000,-0.250000,0.495722,-0.250000,0.495722,-0.315263,0.461940,-0.441342,0.396677,-0.554381,0.304381,-0.646677,0.191342,-0.711940,0.065263,-0.745722,0.000000,-0.745722,0.000000,-0.750000,-0.500000,-0.750000,
-0.500000,0.750000,0.000000,0.750000,0.000000,0.745722,0.000000,0.745722,$1*%
G04 Aperture macros list end*
%ADD10C,0.100000*%
%ADD11C,0.200000*%
%ADD12C,0.127000*%
%ADD13C,0.125000*%
%ADD14C,0.508000*%
%ADD15C,0.120000*%
%ADD16C,0.000000*%
%ADD17R,1.700000X1.700000*%
%ADD18C,8.115000*%
%ADD19C,1.700000*%
%ADD20RoundRect,0.250001X1.149999X1.149999X-1.149999X1.149999X-1.149999X-1.149999X1.149999X-1.149999X0*%
%ADD21C,2.800000*%
%ADD22RoundRect,0.102000X0.765000X-0.765000X0.765000X0.765000X-0.765000X0.765000X-0.765000X-0.765000X0*%
%ADD23C,1.734000*%
%ADD24C,2.780000*%
%ADD25C,6.400000*%
%ADD26C,1.524000*%
%ADD27RoundRect,0.243750X0.456250X-0.243750X0.456250X0.243750X-0.456250X0.243750X-0.456250X-0.243750X0*%
%ADD28RoundRect,0.250000X-0.450000X0.262500X-0.450000X-0.262500X0.450000X-0.262500X0.450000X0.262500X0*%
%ADD29RoundRect,0.225000X-0.250000X0.225000X-0.250000X-0.225000X0.250000X-0.225000X0.250000X0.225000X0*%
%ADD30RoundRect,0.250000X-0.262500X-0.450000X0.262500X-0.450000X0.262500X0.450000X-0.262500X0.450000X0*%
%ADD31FreePoly0,0.000000*%
%ADD32FreePoly1,0.000000*%
G04 APERTURE END LIST*
D10*
X149797514Y-82080419D02*
X157811680Y-82080419D01*
X157811680Y-83500000D01*
X149797514Y-83500000D01*
X149797514Y-82080419D01*
G36*
X149797514Y-82080419D02*
G01*
X157811680Y-82080419D01*
X157811680Y-83500000D01*
X149797514Y-83500000D01*
X149797514Y-82080419D01*
G37*
X168150000Y-114000000D02*
X168500000Y-114000000D01*
X115500000Y-83500000D02*
X136367936Y-83500000D01*
X136367936Y-94750000D01*
X115500000Y-94750000D01*
X115500000Y-83500000D01*
X128353770Y-82080419D02*
X136367936Y-82080419D01*
X136367936Y-83500000D01*
X128353770Y-83500000D01*
X128353770Y-82080419D01*
G36*
X128353770Y-82080419D02*
G01*
X136367936Y-82080419D01*
X136367936Y-83500000D01*
X128353770Y-83500000D01*
X128353770Y-82080419D01*
G37*
X127000000Y-119750000D02*
X143500000Y-119750000D01*
X143500000Y-123500000D01*
X127000000Y-123500000D01*
X127000000Y-119750000D01*
X154742977Y-110147590D02*
X160392569Y-110147590D01*
X159750000Y-111138788D02*
X160380735Y-111138788D01*
X137500000Y-122500000D02*
X138750000Y-122500000D01*
X115500000Y-82080419D02*
X123056256Y-82080419D01*
X123056256Y-83500000D01*
X115500000Y-83500000D01*
X115500000Y-82080419D01*
G36*
X115500000Y-82080419D02*
G01*
X123056256Y-82080419D01*
X123056256Y-83500000D01*
X115500000Y-83500000D01*
X115500000Y-82080419D01*
G37*
X168500000Y-109250000D02*
X168500000Y-114000000D01*
X167750000Y-109250000D02*
X168500000Y-109250000D01*
X160350000Y-114000000D02*
X159750000Y-114000000D01*
X159750000Y-114000000D02*
X159750000Y-111138788D01*
X136943744Y-82080419D02*
X144500000Y-82080419D01*
X144500000Y-83500000D01*
X136943744Y-83500000D01*
X136943744Y-82080419D01*
G36*
X136943744Y-82080419D02*
G01*
X144500000Y-82080419D01*
X144500000Y-83500000D01*
X136943744Y-83500000D01*
X136943744Y-82080419D01*
G37*
X154750000Y-114000000D02*
X154742977Y-110147590D01*
X136943744Y-83500000D02*
X157811680Y-83500000D01*
X157811680Y-94750000D01*
X136943744Y-94750000D01*
X136943744Y-83500000D01*
X155350000Y-114000000D02*
X154750000Y-114000000D01*
X119271428Y-94332895D02*
X119728571Y-94332895D01*
X119499999Y-94332895D02*
X119499999Y-93532895D01*
X119499999Y-93532895D02*
X119576190Y-93647180D01*
X119576190Y-93647180D02*
X119652380Y-93723371D01*
X119652380Y-93723371D02*
X119728571Y-93761466D01*
X146097618Y-93799561D02*
X146097618Y-94332895D01*
X146288094Y-93494800D02*
X146478571Y-94066228D01*
X146478571Y-94066228D02*
X145983332Y-94066228D01*
X117038094Y-93532895D02*
X116961904Y-93532895D01*
X116961904Y-93532895D02*
X116885713Y-93570990D01*
X116885713Y-93570990D02*
X116847618Y-93609085D01*
X116847618Y-93609085D02*
X116809523Y-93685276D01*
X116809523Y-93685276D02*
X116771428Y-93837657D01*
X116771428Y-93837657D02*
X116771428Y-94028133D01*
X116771428Y-94028133D02*
X116809523Y-94180514D01*
X116809523Y-94180514D02*
X116847618Y-94256704D01*
X116847618Y-94256704D02*
X116885713Y-94294800D01*
X116885713Y-94294800D02*
X116961904Y-94332895D01*
X116961904Y-94332895D02*
X117038094Y-94332895D01*
X117038094Y-94332895D02*
X117114285Y-94294800D01*
X117114285Y-94294800D02*
X117152380Y-94256704D01*
X117152380Y-94256704D02*
X117190475Y-94180514D01*
X117190475Y-94180514D02*
X117228571Y-94028133D01*
X117228571Y-94028133D02*
X117228571Y-93837657D01*
X117228571Y-93837657D02*
X117190475Y-93685276D01*
X117190475Y-93685276D02*
X117152380Y-93609085D01*
X117152380Y-93609085D02*
X117114285Y-93570990D01*
X117114285Y-93570990D02*
X117038094Y-93532895D01*
X138766666Y-93532895D02*
X138233332Y-93532895D01*
X138233332Y-93532895D02*
X138576190Y-94332895D01*
X126847618Y-93799561D02*
X126847618Y-94332895D01*
X127038094Y-93494800D02*
X127228571Y-94066228D01*
X127228571Y-94066228D02*
X126733332Y-94066228D01*
D11*
G36*
X123694157Y-83136982D02*
G01*
X123436812Y-83136982D01*
X123377202Y-83107177D01*
X123352535Y-83082509D01*
X123322729Y-83022897D01*
X123322729Y-82927255D01*
X123352534Y-82867645D01*
X123371985Y-82848193D01*
X123477050Y-82813172D01*
X123694157Y-82813172D01*
X123694157Y-83136982D01*
G37*
G36*
X123694157Y-82613172D02*
G01*
X123484431Y-82613172D01*
X123424821Y-82583367D01*
X123400153Y-82558698D01*
X123370348Y-82499088D01*
X123370348Y-82451065D01*
X123400153Y-82391455D01*
X123424821Y-82366786D01*
X123484431Y-82336982D01*
X123694157Y-82336982D01*
X123694157Y-82613172D01*
G37*
G36*
X125449206Y-82366786D02*
G01*
X125513385Y-82430965D01*
X125551300Y-82582624D01*
X125551300Y-82891338D01*
X125513384Y-83042998D01*
X125449208Y-83107176D01*
X125389598Y-83136982D01*
X125246336Y-83136982D01*
X125186726Y-83107177D01*
X125122549Y-83042999D01*
X125084634Y-82891338D01*
X125084634Y-82582625D01*
X125122549Y-82430965D01*
X125186728Y-82366786D01*
X125246336Y-82336982D01*
X125389598Y-82336982D01*
X125449206Y-82366786D01*
G37*
G36*
X126979871Y-82660791D02*
G01*
X126722526Y-82660791D01*
X126662916Y-82630986D01*
X126638248Y-82606317D01*
X126608443Y-82546707D01*
X126608443Y-82451065D01*
X126638248Y-82391455D01*
X126662916Y-82366786D01*
X126722526Y-82336982D01*
X126979871Y-82336982D01*
X126979871Y-82660791D01*
G37*
G36*
X128338601Y-83448093D02*
G01*
X123011618Y-83448093D01*
X123011618Y-82903648D01*
X123122729Y-82903648D01*
X123122729Y-83046505D01*
X123124650Y-83066014D01*
X123126025Y-83069334D01*
X123126280Y-83072918D01*
X123133286Y-83091226D01*
X123180905Y-83186464D01*
X123186188Y-83194856D01*
X123187200Y-83197300D01*
X123189456Y-83200049D01*
X123191348Y-83203054D01*
X123193342Y-83204783D01*
X123199637Y-83212453D01*
X123247255Y-83260073D01*
X123254923Y-83266366D01*
X123256655Y-83268363D01*
X123259663Y-83270256D01*
X123262409Y-83272510D01*
X123264849Y-83273520D01*
X123273246Y-83278806D01*
X123368483Y-83326425D01*
X123386792Y-83333431D01*
X123390375Y-83333685D01*
X123393696Y-83335061D01*
X123413205Y-83336982D01*
X123794157Y-83336982D01*
X123813666Y-83335061D01*
X123849714Y-83320129D01*
X123877304Y-83292539D01*
X123892236Y-83256491D01*
X123894157Y-83236982D01*
X123894157Y-82570315D01*
X124884634Y-82570315D01*
X124884634Y-82903648D01*
X124884969Y-82907050D01*
X124884752Y-82908509D01*
X124885831Y-82915806D01*
X124886555Y-82923157D01*
X124887119Y-82924520D01*
X124887620Y-82927902D01*
X124935239Y-83118377D01*
X124941834Y-83136838D01*
X124946259Y-83142810D01*
X124949105Y-83149681D01*
X124961542Y-83164834D01*
X125056780Y-83260074D01*
X125064448Y-83266367D01*
X125066179Y-83268363D01*
X125069186Y-83270256D01*
X125071933Y-83272510D01*
X125074373Y-83273520D01*
X125082770Y-83278806D01*
X125178007Y-83326425D01*
X125196316Y-83333431D01*
X125199899Y-83333685D01*
X125203220Y-83335061D01*
X125222729Y-83336982D01*
X125413205Y-83336982D01*
X125432714Y-83335061D01*
X125436034Y-83333685D01*
X125439618Y-83333431D01*
X125457926Y-83326425D01*
X125553164Y-83278806D01*
X125561559Y-83273521D01*
X125564001Y-83272510D01*
X125566748Y-83270254D01*
X125569754Y-83268363D01*
X125571484Y-83266368D01*
X125579154Y-83260073D01*
X125674392Y-83164834D01*
X125686829Y-83149681D01*
X125689674Y-83142810D01*
X125694100Y-83136838D01*
X125700695Y-83118378D01*
X125748314Y-82927902D01*
X125748814Y-82924520D01*
X125749379Y-82923157D01*
X125750102Y-82915806D01*
X125751182Y-82908509D01*
X125750964Y-82907050D01*
X125751300Y-82903648D01*
X125751300Y-82570315D01*
X125750964Y-82566912D01*
X125751182Y-82565454D01*
X125750102Y-82558156D01*
X125749379Y-82550806D01*
X125748814Y-82549442D01*
X125748314Y-82546061D01*
X125700695Y-82355585D01*
X125694100Y-82337125D01*
X125689673Y-82331150D01*
X125686828Y-82324282D01*
X125674392Y-82309128D01*
X125602246Y-82236982D01*
X125979871Y-82236982D01*
X125979871Y-83236982D01*
X125981792Y-83256491D01*
X125996724Y-83292539D01*
X126024314Y-83320129D01*
X126060362Y-83335061D01*
X126099380Y-83335061D01*
X126135428Y-83320129D01*
X126163018Y-83292539D01*
X126177950Y-83256491D01*
X126179871Y-83236982D01*
X126179871Y-82427458D01*
X126408443Y-82427458D01*
X126408443Y-82570315D01*
X126410364Y-82589824D01*
X126411739Y-82593144D01*
X126411994Y-82596728D01*
X126419000Y-82615036D01*
X126466619Y-82710274D01*
X126471904Y-82718670D01*
X126472915Y-82721110D01*
X126475168Y-82723856D01*
X126477062Y-82726864D01*
X126479056Y-82728593D01*
X126485351Y-82736264D01*
X126532970Y-82783882D01*
X126540636Y-82790174D01*
X126542369Y-82792172D01*
X126545377Y-82794065D01*
X126548123Y-82796319D01*
X126550563Y-82797329D01*
X126558960Y-82802615D01*
X126654197Y-82850234D01*
X126672506Y-82857240D01*
X126676089Y-82857494D01*
X126679410Y-82858870D01*
X126698919Y-82860791D01*
X126979871Y-82860791D01*
X126979871Y-83236982D01*
X126981792Y-83256491D01*
X126996724Y-83292539D01*
X127024314Y-83320129D01*
X127060362Y-83335061D01*
X127099380Y-83335061D01*
X127135428Y-83320129D01*
X127163018Y-83292539D01*
X127177950Y-83256491D01*
X127179871Y-83236982D01*
X127179871Y-82808410D01*
X127408443Y-82808410D01*
X127408443Y-83141743D01*
X127410364Y-83161252D01*
X127411848Y-83164834D01*
X127425295Y-83197300D01*
X127437732Y-83212453D01*
X127485350Y-83260073D01*
X127500504Y-83272510D01*
X127503823Y-83273885D01*
X127506539Y-83276240D01*
X127524439Y-83284231D01*
X127667296Y-83331850D01*
X127676968Y-83334049D01*
X127679410Y-83335061D01*
X127682947Y-83335409D01*
X127686411Y-83336197D01*
X127689045Y-83336009D01*
X127698919Y-83336982D01*
X127794157Y-83336982D01*
X127804030Y-83336009D01*
X127806664Y-83336197D01*
X127810127Y-83335409D01*
X127813666Y-83335061D01*
X127816108Y-83334049D01*
X127825780Y-83331850D01*
X127968636Y-83284231D01*
X127986537Y-83276240D01*
X127989252Y-83273885D01*
X127992572Y-83272510D01*
X128007725Y-83260073D01*
X128102963Y-83164834D01*
X128109255Y-83157167D01*
X128111252Y-83155436D01*
X128113145Y-83152428D01*
X128115400Y-83149681D01*
X128116411Y-83147239D01*
X128121695Y-83138845D01*
X128169314Y-83043608D01*
X128169860Y-83042179D01*
X128170290Y-83041600D01*
X128173211Y-83033423D01*
X128176320Y-83025299D01*
X128176371Y-83024578D01*
X128176885Y-83023140D01*
X128224504Y-82832664D01*
X128225004Y-82829282D01*
X128225569Y-82827919D01*
X128226292Y-82820568D01*
X128227372Y-82813271D01*
X128227154Y-82811812D01*
X128227490Y-82808410D01*
X128227490Y-82665553D01*
X128227154Y-82662150D01*
X128227372Y-82660692D01*
X128226292Y-82653394D01*
X128225569Y-82646044D01*
X128225004Y-82644680D01*
X128224504Y-82641299D01*
X128176885Y-82450823D01*
X128176371Y-82449384D01*
X128176320Y-82448664D01*
X128173211Y-82440539D01*
X128170290Y-82432363D01*
X128169860Y-82431783D01*
X128169314Y-82430355D01*
X128121695Y-82335118D01*
X128116408Y-82326719D01*
X128115399Y-82324282D01*
X128113147Y-82321538D01*
X128111252Y-82318527D01*
X128109254Y-82316794D01*
X128102963Y-82309128D01*
X128007725Y-82213890D01*
X127992571Y-82201454D01*
X127989252Y-82200079D01*
X127986537Y-82197724D01*
X127968636Y-82189733D01*
X127825780Y-82142114D01*
X127816108Y-82139914D01*
X127813666Y-82138903D01*
X127810127Y-82138554D01*
X127806664Y-82137767D01*
X127804030Y-82137954D01*
X127794157Y-82136982D01*
X127651300Y-82136982D01*
X127631791Y-82138903D01*
X127628470Y-82140278D01*
X127624887Y-82140533D01*
X127606578Y-82147539D01*
X127511341Y-82195158D01*
X127494750Y-82205601D01*
X127469186Y-82235078D01*
X127456847Y-82272094D01*
X127459613Y-82311014D01*
X127477062Y-82345913D01*
X127506539Y-82371477D01*
X127543555Y-82383816D01*
X127582475Y-82381050D01*
X127600783Y-82374044D01*
X127674907Y-82336982D01*
X127777930Y-82336982D01*
X127882994Y-82372003D01*
X127950067Y-82439076D01*
X127985519Y-82509981D01*
X128027490Y-82677862D01*
X128027490Y-82796100D01*
X127985519Y-82963981D01*
X127950066Y-83034887D01*
X127882995Y-83101960D01*
X127777930Y-83136982D01*
X127715145Y-83136982D01*
X127610080Y-83101960D01*
X127608443Y-83100322D01*
X127608443Y-82908410D01*
X127698919Y-82908410D01*
X127718428Y-82906489D01*
X127754476Y-82891557D01*
X127782066Y-82863967D01*
X127796998Y-82827919D01*
X127796998Y-82788901D01*
X127782066Y-82752853D01*
X127754476Y-82725263D01*
X127718428Y-82710331D01*
X127698919Y-82708410D01*
X127508443Y-82708410D01*
X127488934Y-82710331D01*
X127452886Y-82725263D01*
X127425296Y-82752853D01*
X127410364Y-82788901D01*
X127408443Y-82808410D01*
X127179871Y-82808410D01*
X127179871Y-82236982D01*
X127177950Y-82217473D01*
X127163018Y-82181425D01*
X127135428Y-82153835D01*
X127099380Y-82138903D01*
X127079871Y-82136982D01*
X126698919Y-82136982D01*
X126679410Y-82138903D01*
X126676089Y-82140278D01*
X126672506Y-82140533D01*
X126654197Y-82147539D01*
X126558960Y-82195158D01*
X126550563Y-82200443D01*
X126548123Y-82201454D01*
X126545377Y-82203707D01*
X126542369Y-82205601D01*
X126540636Y-82207598D01*
X126532970Y-82213891D01*
X126485351Y-82261509D01*
X126479056Y-82269179D01*
X126477062Y-82270909D01*
X126475168Y-82273916D01*
X126472915Y-82276663D01*
X126471904Y-82279102D01*
X126466619Y-82287499D01*
X126419000Y-82382737D01*
X126411994Y-82401045D01*
X126411739Y-82404628D01*
X126410364Y-82407949D01*
X126408443Y-82427458D01*
X126179871Y-82427458D01*
X126179871Y-82236982D01*
X126177950Y-82217473D01*
X126163018Y-82181425D01*
X126135428Y-82153835D01*
X126099380Y-82138903D01*
X126060362Y-82138903D01*
X126024314Y-82153835D01*
X125996724Y-82181425D01*
X125981792Y-82217473D01*
X125979871Y-82236982D01*
X125602246Y-82236982D01*
X125579154Y-82213890D01*
X125571483Y-82207595D01*
X125569754Y-82205601D01*
X125566746Y-82203707D01*
X125564000Y-82201454D01*
X125561560Y-82200443D01*
X125553164Y-82195158D01*
X125457926Y-82147539D01*
X125439618Y-82140533D01*
X125436034Y-82140278D01*
X125432714Y-82138903D01*
X125413205Y-82136982D01*
X125222729Y-82136982D01*
X125203220Y-82138903D01*
X125199899Y-82140278D01*
X125196316Y-82140533D01*
X125178007Y-82147539D01*
X125082770Y-82195158D01*
X125074371Y-82200444D01*
X125071934Y-82201454D01*
X125069190Y-82203705D01*
X125066179Y-82205601D01*
X125064446Y-82207598D01*
X125056780Y-82213890D01*
X124961542Y-82309128D01*
X124949106Y-82324282D01*
X124946260Y-82331150D01*
X124941834Y-82337125D01*
X124935239Y-82355586D01*
X124887620Y-82546061D01*
X124887119Y-82549442D01*
X124886555Y-82550806D01*
X124885831Y-82558156D01*
X124884752Y-82565454D01*
X124884969Y-82566912D01*
X124884634Y-82570315D01*
X123894157Y-82570315D01*
X123894157Y-82236982D01*
X123892236Y-82217473D01*
X123877304Y-82181425D01*
X123849714Y-82153835D01*
X123813666Y-82138903D01*
X123794157Y-82136982D01*
X123460824Y-82136982D01*
X123441315Y-82138903D01*
X123437994Y-82140278D01*
X123434411Y-82140533D01*
X123416102Y-82147539D01*
X123320865Y-82195158D01*
X123312468Y-82200443D01*
X123310028Y-82201454D01*
X123307282Y-82203707D01*
X123304274Y-82205601D01*
X123302541Y-82207598D01*
X123294875Y-82213891D01*
X123247256Y-82261509D01*
X123240961Y-82269179D01*
X123238967Y-82270909D01*
X123237073Y-82273916D01*
X123234820Y-82276663D01*
X123233809Y-82279102D01*
X123228524Y-82287499D01*
X123180905Y-82382737D01*
X123173899Y-82401045D01*
X123173644Y-82404628D01*
X123172269Y-82407949D01*
X123170348Y-82427458D01*
X123170348Y-82522696D01*
X123172269Y-82542205D01*
X123173644Y-82545525D01*
X123173899Y-82549109D01*
X123180905Y-82567417D01*
X123228524Y-82662655D01*
X123233809Y-82671051D01*
X123234820Y-82673491D01*
X123237073Y-82676237D01*
X123238967Y-82679245D01*
X123240961Y-82680974D01*
X123247256Y-82688645D01*
X123248044Y-82689433D01*
X123247256Y-82690081D01*
X123199637Y-82737699D01*
X123193342Y-82745369D01*
X123191348Y-82747099D01*
X123189454Y-82750106D01*
X123187201Y-82752853D01*
X123186190Y-82755292D01*
X123180905Y-82763689D01*
X123133286Y-82858927D01*
X123126280Y-82877235D01*
X123126025Y-82880818D01*
X123124650Y-82884139D01*
X123122729Y-82903648D01*
X123011618Y-82903648D01*
X123011618Y-82025871D01*
X128338601Y-82025871D01*
X128338601Y-83448093D01*
G37*
D10*
X122228571Y-93609085D02*
X122190475Y-93570990D01*
X122190475Y-93570990D02*
X122114285Y-93532895D01*
X122114285Y-93532895D02*
X121923809Y-93532895D01*
X121923809Y-93532895D02*
X121847618Y-93570990D01*
X121847618Y-93570990D02*
X121809523Y-93609085D01*
X121809523Y-93609085D02*
X121771428Y-93685276D01*
X121771428Y-93685276D02*
X121771428Y-93761466D01*
X121771428Y-93761466D02*
X121809523Y-93875752D01*
X121809523Y-93875752D02*
X122266666Y-94332895D01*
X122266666Y-94332895D02*
X121771428Y-94332895D01*
X142374687Y-121027180D02*
X142422306Y-121074800D01*
X142422306Y-121074800D02*
X142565163Y-121122419D01*
X142565163Y-121122419D02*
X142660401Y-121122419D01*
X142660401Y-121122419D02*
X142803258Y-121074800D01*
X142803258Y-121074800D02*
X142898496Y-120979561D01*
X142898496Y-120979561D02*
X142946115Y-120884323D01*
X142946115Y-120884323D02*
X142993734Y-120693847D01*
X142993734Y-120693847D02*
X142993734Y-120550990D01*
X142993734Y-120550990D02*
X142946115Y-120360514D01*
X142946115Y-120360514D02*
X142898496Y-120265276D01*
X142898496Y-120265276D02*
X142803258Y-120170038D01*
X142803258Y-120170038D02*
X142660401Y-120122419D01*
X142660401Y-120122419D02*
X142565163Y-120122419D01*
X142565163Y-120122419D02*
X142422306Y-120170038D01*
X142422306Y-120170038D02*
X142374687Y-120217657D01*
X141946115Y-121122419D02*
X141946115Y-120122419D01*
X141517544Y-121122419D02*
X141517544Y-120598609D01*
X141517544Y-120598609D02*
X141565163Y-120503371D01*
X141565163Y-120503371D02*
X141660401Y-120455752D01*
X141660401Y-120455752D02*
X141803258Y-120455752D01*
X141803258Y-120455752D02*
X141898496Y-120503371D01*
X141898496Y-120503371D02*
X141946115Y-120550990D01*
X140612782Y-121122419D02*
X140612782Y-120598609D01*
X140612782Y-120598609D02*
X140660401Y-120503371D01*
X140660401Y-120503371D02*
X140755639Y-120455752D01*
X140755639Y-120455752D02*
X140946115Y-120455752D01*
X140946115Y-120455752D02*
X141041353Y-120503371D01*
X140612782Y-121074800D02*
X140708020Y-121122419D01*
X140708020Y-121122419D02*
X140946115Y-121122419D01*
X140946115Y-121122419D02*
X141041353Y-121074800D01*
X141041353Y-121074800D02*
X141088972Y-120979561D01*
X141088972Y-120979561D02*
X141088972Y-120884323D01*
X141088972Y-120884323D02*
X141041353Y-120789085D01*
X141041353Y-120789085D02*
X140946115Y-120741466D01*
X140946115Y-120741466D02*
X140708020Y-120741466D01*
X140708020Y-120741466D02*
X140612782Y-120693847D01*
X140136591Y-120455752D02*
X140136591Y-121122419D01*
X140136591Y-120550990D02*
X140088972Y-120503371D01*
X140088972Y-120503371D02*
X139993734Y-120455752D01*
X139993734Y-120455752D02*
X139850877Y-120455752D01*
X139850877Y-120455752D02*
X139755639Y-120503371D01*
X139755639Y-120503371D02*
X139708020Y-120598609D01*
X139708020Y-120598609D02*
X139708020Y-121122419D01*
X138803258Y-120455752D02*
X138803258Y-121265276D01*
X138803258Y-121265276D02*
X138850877Y-121360514D01*
X138850877Y-121360514D02*
X138898496Y-121408133D01*
X138898496Y-121408133D02*
X138993734Y-121455752D01*
X138993734Y-121455752D02*
X139136591Y-121455752D01*
X139136591Y-121455752D02*
X139231829Y-121408133D01*
X138803258Y-121074800D02*
X138898496Y-121122419D01*
X138898496Y-121122419D02*
X139088972Y-121122419D01*
X139088972Y-121122419D02*
X139184210Y-121074800D01*
X139184210Y-121074800D02*
X139231829Y-121027180D01*
X139231829Y-121027180D02*
X139279448Y-120931942D01*
X139279448Y-120931942D02*
X139279448Y-120646228D01*
X139279448Y-120646228D02*
X139231829Y-120550990D01*
X139231829Y-120550990D02*
X139184210Y-120503371D01*
X139184210Y-120503371D02*
X139088972Y-120455752D01*
X139088972Y-120455752D02*
X138898496Y-120455752D01*
X138898496Y-120455752D02*
X138803258Y-120503371D01*
X138422305Y-121122419D02*
X137898496Y-120455752D01*
X138422305Y-120455752D02*
X137898496Y-121122419D01*
X137088972Y-120455752D02*
X137088972Y-121122419D01*
X137517543Y-120455752D02*
X137517543Y-120979561D01*
X137517543Y-120979561D02*
X137469924Y-121074800D01*
X137469924Y-121074800D02*
X137374686Y-121122419D01*
X137374686Y-121122419D02*
X137231829Y-121122419D01*
X137231829Y-121122419D02*
X137136591Y-121074800D01*
X137136591Y-121074800D02*
X137088972Y-121027180D01*
X135374686Y-121122419D02*
X135850876Y-121122419D01*
X135850876Y-121122419D02*
X135850876Y-120122419D01*
X135041352Y-121122419D02*
X135041352Y-120455752D01*
X135041352Y-120122419D02*
X135088971Y-120170038D01*
X135088971Y-120170038D02*
X135041352Y-120217657D01*
X135041352Y-120217657D02*
X134993733Y-120170038D01*
X134993733Y-120170038D02*
X135041352Y-120122419D01*
X135041352Y-120122419D02*
X135041352Y-120217657D01*
X134136591Y-120455752D02*
X134136591Y-121122419D01*
X134565162Y-120455752D02*
X134565162Y-120979561D01*
X134565162Y-120979561D02*
X134517543Y-121074800D01*
X134517543Y-121074800D02*
X134422305Y-121122419D01*
X134422305Y-121122419D02*
X134279448Y-121122419D01*
X134279448Y-121122419D02*
X134184210Y-121074800D01*
X134184210Y-121074800D02*
X134136591Y-121027180D01*
X156288094Y-93532895D02*
X156211904Y-93532895D01*
X156211904Y-93532895D02*
X156135713Y-93570990D01*
X156135713Y-93570990D02*
X156097618Y-93609085D01*
X156097618Y-93609085D02*
X156059523Y-93685276D01*
X156059523Y-93685276D02*
X156021428Y-93837657D01*
X156021428Y-93837657D02*
X156021428Y-94028133D01*
X156021428Y-94028133D02*
X156059523Y-94180514D01*
X156059523Y-94180514D02*
X156097618Y-94256704D01*
X156097618Y-94256704D02*
X156135713Y-94294800D01*
X156135713Y-94294800D02*
X156211904Y-94332895D01*
X156211904Y-94332895D02*
X156288094Y-94332895D01*
X156288094Y-94332895D02*
X156364285Y-94294800D01*
X156364285Y-94294800D02*
X156402380Y-94256704D01*
X156402380Y-94256704D02*
X156440475Y-94180514D01*
X156440475Y-94180514D02*
X156478571Y-94028133D01*
X156478571Y-94028133D02*
X156478571Y-93837657D01*
X156478571Y-93837657D02*
X156440475Y-93685276D01*
X156440475Y-93685276D02*
X156402380Y-93609085D01*
X156402380Y-93609085D02*
X156364285Y-93570990D01*
X156364285Y-93570990D02*
X156288094Y-93532895D01*
X153521428Y-94332895D02*
X153978571Y-94332895D01*
X153749999Y-94332895D02*
X153749999Y-93532895D01*
X153749999Y-93532895D02*
X153826190Y-93647180D01*
X153826190Y-93647180D02*
X153902380Y-93723371D01*
X153902380Y-93723371D02*
X153978571Y-93761466D01*
X142374687Y-122872419D02*
X142708020Y-122396228D01*
X142946115Y-122872419D02*
X142946115Y-121872419D01*
X142946115Y-121872419D02*
X142565163Y-121872419D01*
X142565163Y-121872419D02*
X142469925Y-121920038D01*
X142469925Y-121920038D02*
X142422306Y-121967657D01*
X142422306Y-121967657D02*
X142374687Y-122062895D01*
X142374687Y-122062895D02*
X142374687Y-122205752D01*
X142374687Y-122205752D02*
X142422306Y-122300990D01*
X142422306Y-122300990D02*
X142469925Y-122348609D01*
X142469925Y-122348609D02*
X142565163Y-122396228D01*
X142565163Y-122396228D02*
X142946115Y-122396228D01*
X141565163Y-122824800D02*
X141660401Y-122872419D01*
X141660401Y-122872419D02*
X141850877Y-122872419D01*
X141850877Y-122872419D02*
X141946115Y-122824800D01*
X141946115Y-122824800D02*
X141993734Y-122729561D01*
X141993734Y-122729561D02*
X141993734Y-122348609D01*
X141993734Y-122348609D02*
X141946115Y-122253371D01*
X141946115Y-122253371D02*
X141850877Y-122205752D01*
X141850877Y-122205752D02*
X141660401Y-122205752D01*
X141660401Y-122205752D02*
X141565163Y-122253371D01*
X141565163Y-122253371D02*
X141517544Y-122348609D01*
X141517544Y-122348609D02*
X141517544Y-122443847D01*
X141517544Y-122443847D02*
X141993734Y-122539085D01*
X141184210Y-122205752D02*
X140946115Y-122872419D01*
X140946115Y-122872419D02*
X140708020Y-122205752D01*
X139612781Y-122586704D02*
X139136591Y-122586704D01*
X139708019Y-122872419D02*
X139374686Y-121872419D01*
X139374686Y-121872419D02*
X139041353Y-122872419D01*
X143559523Y-93532895D02*
X143940475Y-93532895D01*
X143940475Y-93532895D02*
X143978571Y-93913847D01*
X143978571Y-93913847D02*
X143940475Y-93875752D01*
X143940475Y-93875752D02*
X143864285Y-93837657D01*
X143864285Y-93837657D02*
X143673809Y-93837657D01*
X143673809Y-93837657D02*
X143597618Y-93875752D01*
X143597618Y-93875752D02*
X143559523Y-93913847D01*
X143559523Y-93913847D02*
X143521428Y-93990038D01*
X143521428Y-93990038D02*
X143521428Y-94180514D01*
X143521428Y-94180514D02*
X143559523Y-94256704D01*
X143559523Y-94256704D02*
X143597618Y-94294800D01*
X143597618Y-94294800D02*
X143673809Y-94332895D01*
X143673809Y-94332895D02*
X143864285Y-94332895D01*
X143864285Y-94332895D02*
X143940475Y-94294800D01*
X143940475Y-94294800D02*
X143978571Y-94256704D01*
X129309523Y-93532895D02*
X129690475Y-93532895D01*
X129690475Y-93532895D02*
X129728571Y-93913847D01*
X129728571Y-93913847D02*
X129690475Y-93875752D01*
X129690475Y-93875752D02*
X129614285Y-93837657D01*
X129614285Y-93837657D02*
X129423809Y-93837657D01*
X129423809Y-93837657D02*
X129347618Y-93875752D01*
X129347618Y-93875752D02*
X129309523Y-93913847D01*
X129309523Y-93913847D02*
X129271428Y-93990038D01*
X129271428Y-93990038D02*
X129271428Y-94180514D01*
X129271428Y-94180514D02*
X129309523Y-94256704D01*
X129309523Y-94256704D02*
X129347618Y-94294800D01*
X129347618Y-94294800D02*
X129423809Y-94332895D01*
X129423809Y-94332895D02*
X129614285Y-94332895D01*
X129614285Y-94332895D02*
X129690475Y-94294800D01*
X129690475Y-94294800D02*
X129728571Y-94256704D01*
X168234211Y-107634990D02*
X168305639Y-107596895D01*
X168305639Y-107596895D02*
X168419925Y-107596895D01*
X168419925Y-107596895D02*
X168538972Y-107634990D01*
X168538972Y-107634990D02*
X168624687Y-107711180D01*
X168624687Y-107711180D02*
X168672306Y-107787371D01*
X168672306Y-107787371D02*
X168729449Y-107939752D01*
X168729449Y-107939752D02*
X168743734Y-108054038D01*
X168743734Y-108054038D02*
X168724687Y-108206419D01*
X168724687Y-108206419D02*
X168696115Y-108282609D01*
X168696115Y-108282609D02*
X168629449Y-108358800D01*
X168629449Y-108358800D02*
X168519925Y-108396895D01*
X168519925Y-108396895D02*
X168443734Y-108396895D01*
X168443734Y-108396895D02*
X168324687Y-108358800D01*
X168324687Y-108358800D02*
X168281830Y-108320704D01*
X168281830Y-108320704D02*
X168248496Y-108054038D01*
X168248496Y-108054038D02*
X168400877Y-108054038D01*
X167605639Y-108396895D02*
X167553258Y-107977847D01*
X167553258Y-107977847D02*
X167581830Y-107901657D01*
X167581830Y-107901657D02*
X167653258Y-107863561D01*
X167653258Y-107863561D02*
X167805639Y-107863561D01*
X167805639Y-107863561D02*
X167886591Y-107901657D01*
X167600877Y-108358800D02*
X167681830Y-108396895D01*
X167681830Y-108396895D02*
X167872306Y-108396895D01*
X167872306Y-108396895D02*
X167943734Y-108358800D01*
X167943734Y-108358800D02*
X167972306Y-108282609D01*
X167972306Y-108282609D02*
X167962782Y-108206419D01*
X167962782Y-108206419D02*
X167915163Y-108130228D01*
X167915163Y-108130228D02*
X167834211Y-108092133D01*
X167834211Y-108092133D02*
X167643734Y-108092133D01*
X167643734Y-108092133D02*
X167562782Y-108054038D01*
X167224686Y-108396895D02*
X167158020Y-107863561D01*
X167167543Y-107939752D02*
X167124686Y-107901657D01*
X167124686Y-107901657D02*
X167043734Y-107863561D01*
X167043734Y-107863561D02*
X166929448Y-107863561D01*
X166929448Y-107863561D02*
X166858020Y-107901657D01*
X166858020Y-107901657D02*
X166829448Y-107977847D01*
X166829448Y-107977847D02*
X166881829Y-108396895D01*
X166829448Y-107977847D02*
X166781829Y-107901657D01*
X166781829Y-107901657D02*
X166700877Y-107863561D01*
X166700877Y-107863561D02*
X166586591Y-107863561D01*
X166586591Y-107863561D02*
X166515162Y-107901657D01*
X166515162Y-107901657D02*
X166486591Y-107977847D01*
X166486591Y-107977847D02*
X166538972Y-108396895D01*
X165848495Y-108358800D02*
X165929448Y-108396895D01*
X165929448Y-108396895D02*
X166081829Y-108396895D01*
X166081829Y-108396895D02*
X166153257Y-108358800D01*
X166153257Y-108358800D02*
X166181829Y-108282609D01*
X166181829Y-108282609D02*
X166143734Y-107977847D01*
X166143734Y-107977847D02*
X166096114Y-107901657D01*
X166096114Y-107901657D02*
X166015162Y-107863561D01*
X166015162Y-107863561D02*
X165862781Y-107863561D01*
X165862781Y-107863561D02*
X165791353Y-107901657D01*
X165791353Y-107901657D02*
X165762781Y-107977847D01*
X165762781Y-107977847D02*
X165772305Y-108054038D01*
X165772305Y-108054038D02*
X166162781Y-108130228D01*
X165472305Y-108396895D02*
X165405639Y-107863561D01*
X165424686Y-108015942D02*
X165377067Y-107939752D01*
X165377067Y-107939752D02*
X165334210Y-107901657D01*
X165334210Y-107901657D02*
X165253258Y-107863561D01*
X165253258Y-107863561D02*
X165177067Y-107863561D01*
X163986591Y-108396895D02*
X164367543Y-108396895D01*
X164367543Y-108396895D02*
X164267543Y-107596895D01*
X163667543Y-107977847D02*
X163400877Y-107977847D01*
X163338972Y-108396895D02*
X163719924Y-108396895D01*
X163719924Y-108396895D02*
X163619924Y-107596895D01*
X163619924Y-107596895D02*
X163238972Y-107596895D01*
X162996114Y-108396895D02*
X162896114Y-107596895D01*
X162896114Y-107596895D02*
X162705638Y-107596895D01*
X162705638Y-107596895D02*
X162596114Y-107634990D01*
X162596114Y-107634990D02*
X162529448Y-107711180D01*
X162529448Y-107711180D02*
X162500876Y-107787371D01*
X162500876Y-107787371D02*
X162481829Y-107939752D01*
X162481829Y-107939752D02*
X162496114Y-108054038D01*
X162496114Y-108054038D02*
X162553257Y-108206419D01*
X162553257Y-108206419D02*
X162600876Y-108282609D01*
X162600876Y-108282609D02*
X162686590Y-108358800D01*
X162686590Y-108358800D02*
X162805638Y-108396895D01*
X162805638Y-108396895D02*
X162996114Y-108396895D01*
X161619924Y-108358800D02*
X161510400Y-108396895D01*
X161510400Y-108396895D02*
X161319924Y-108396895D01*
X161319924Y-108396895D02*
X161238971Y-108358800D01*
X161238971Y-108358800D02*
X161196114Y-108320704D01*
X161196114Y-108320704D02*
X161148495Y-108244514D01*
X161148495Y-108244514D02*
X161138971Y-108168323D01*
X161138971Y-108168323D02*
X161167543Y-108092133D01*
X161167543Y-108092133D02*
X161200876Y-108054038D01*
X161200876Y-108054038D02*
X161272305Y-108015942D01*
X161272305Y-108015942D02*
X161419924Y-107977847D01*
X161419924Y-107977847D02*
X161491352Y-107939752D01*
X161491352Y-107939752D02*
X161524685Y-107901657D01*
X161524685Y-107901657D02*
X161553257Y-107825466D01*
X161553257Y-107825466D02*
X161543733Y-107749276D01*
X161543733Y-107749276D02*
X161496114Y-107673085D01*
X161496114Y-107673085D02*
X161453257Y-107634990D01*
X161453257Y-107634990D02*
X161372305Y-107596895D01*
X161372305Y-107596895D02*
X161181828Y-107596895D01*
X161181828Y-107596895D02*
X161072305Y-107634990D01*
X160515161Y-108358800D02*
X160596114Y-108396895D01*
X160596114Y-108396895D02*
X160748495Y-108396895D01*
X160748495Y-108396895D02*
X160819923Y-108358800D01*
X160819923Y-108358800D02*
X160848495Y-108282609D01*
X160848495Y-108282609D02*
X160810400Y-107977847D01*
X160810400Y-107977847D02*
X160762780Y-107901657D01*
X160762780Y-107901657D02*
X160681828Y-107863561D01*
X160681828Y-107863561D02*
X160529447Y-107863561D01*
X160529447Y-107863561D02*
X160458019Y-107901657D01*
X160458019Y-107901657D02*
X160429447Y-107977847D01*
X160429447Y-107977847D02*
X160438971Y-108054038D01*
X160438971Y-108054038D02*
X160829447Y-108130228D01*
X160024686Y-108396895D02*
X160096114Y-108358800D01*
X160096114Y-108358800D02*
X160124686Y-108282609D01*
X160124686Y-108282609D02*
X160038971Y-107596895D01*
X159410399Y-108358800D02*
X159491352Y-108396895D01*
X159491352Y-108396895D02*
X159643733Y-108396895D01*
X159643733Y-108396895D02*
X159715161Y-108358800D01*
X159715161Y-108358800D02*
X159743733Y-108282609D01*
X159743733Y-108282609D02*
X159705638Y-107977847D01*
X159705638Y-107977847D02*
X159658018Y-107901657D01*
X159658018Y-107901657D02*
X159577066Y-107863561D01*
X159577066Y-107863561D02*
X159424685Y-107863561D01*
X159424685Y-107863561D02*
X159353257Y-107901657D01*
X159353257Y-107901657D02*
X159324685Y-107977847D01*
X159324685Y-107977847D02*
X159334209Y-108054038D01*
X159334209Y-108054038D02*
X159724685Y-108130228D01*
X158686590Y-108358800D02*
X158767543Y-108396895D01*
X158767543Y-108396895D02*
X158919924Y-108396895D01*
X158919924Y-108396895D02*
X158991352Y-108358800D01*
X158991352Y-108358800D02*
X159024685Y-108320704D01*
X159024685Y-108320704D02*
X159053257Y-108244514D01*
X159053257Y-108244514D02*
X159024685Y-108015942D01*
X159024685Y-108015942D02*
X158977066Y-107939752D01*
X158977066Y-107939752D02*
X158934209Y-107901657D01*
X158934209Y-107901657D02*
X158853257Y-107863561D01*
X158853257Y-107863561D02*
X158700876Y-107863561D01*
X158700876Y-107863561D02*
X158629447Y-107901657D01*
X158396114Y-107863561D02*
X158091352Y-107863561D01*
X158248495Y-107596895D02*
X158334210Y-108282609D01*
X158334210Y-108282609D02*
X158305638Y-108358800D01*
X158305638Y-108358800D02*
X158234210Y-108396895D01*
X158234210Y-108396895D02*
X158158019Y-108396895D01*
X157891352Y-108396895D02*
X157824686Y-107863561D01*
X157791352Y-107596895D02*
X157834209Y-107634990D01*
X157834209Y-107634990D02*
X157800876Y-107673085D01*
X157800876Y-107673085D02*
X157758019Y-107634990D01*
X157758019Y-107634990D02*
X157791352Y-107596895D01*
X157791352Y-107596895D02*
X157800876Y-107673085D01*
X157396115Y-108396895D02*
X157467543Y-108358800D01*
X157467543Y-108358800D02*
X157500876Y-108320704D01*
X157500876Y-108320704D02*
X157529448Y-108244514D01*
X157529448Y-108244514D02*
X157500876Y-108015942D01*
X157500876Y-108015942D02*
X157453257Y-107939752D01*
X157453257Y-107939752D02*
X157410400Y-107901657D01*
X157410400Y-107901657D02*
X157329448Y-107863561D01*
X157329448Y-107863561D02*
X157215162Y-107863561D01*
X157215162Y-107863561D02*
X157143734Y-107901657D01*
X157143734Y-107901657D02*
X157110400Y-107939752D01*
X157110400Y-107939752D02*
X157081829Y-108015942D01*
X157081829Y-108015942D02*
X157110400Y-108244514D01*
X157110400Y-108244514D02*
X157158019Y-108320704D01*
X157158019Y-108320704D02*
X157200876Y-108358800D01*
X157200876Y-108358800D02*
X157281829Y-108396895D01*
X157281829Y-108396895D02*
X157396115Y-108396895D01*
X156719924Y-107863561D02*
X156786590Y-108396895D01*
X156729447Y-107939752D02*
X156686590Y-107901657D01*
X156686590Y-107901657D02*
X156605638Y-107863561D01*
X156605638Y-107863561D02*
X156491352Y-107863561D01*
X156491352Y-107863561D02*
X156419924Y-107901657D01*
X156419924Y-107901657D02*
X156391352Y-107977847D01*
X156391352Y-107977847D02*
X156443733Y-108396895D01*
X149016666Y-93532895D02*
X148521428Y-93532895D01*
X148521428Y-93532895D02*
X148788094Y-93837657D01*
X148788094Y-93837657D02*
X148673809Y-93837657D01*
X148673809Y-93837657D02*
X148597618Y-93875752D01*
X148597618Y-93875752D02*
X148559523Y-93913847D01*
X148559523Y-93913847D02*
X148521428Y-93990038D01*
X148521428Y-93990038D02*
X148521428Y-94180514D01*
X148521428Y-94180514D02*
X148559523Y-94256704D01*
X148559523Y-94256704D02*
X148597618Y-94294800D01*
X148597618Y-94294800D02*
X148673809Y-94332895D01*
X148673809Y-94332895D02*
X148902380Y-94332895D01*
X148902380Y-94332895D02*
X148978571Y-94294800D01*
X148978571Y-94294800D02*
X149016666Y-94256704D01*
X124766666Y-93532895D02*
X124271428Y-93532895D01*
X124271428Y-93532895D02*
X124538094Y-93837657D01*
X124538094Y-93837657D02*
X124423809Y-93837657D01*
X124423809Y-93837657D02*
X124347618Y-93875752D01*
X124347618Y-93875752D02*
X124309523Y-93913847D01*
X124309523Y-93913847D02*
X124271428Y-93990038D01*
X124271428Y-93990038D02*
X124271428Y-94180514D01*
X124271428Y-94180514D02*
X124309523Y-94256704D01*
X124309523Y-94256704D02*
X124347618Y-94294800D01*
X124347618Y-94294800D02*
X124423809Y-94332895D01*
X124423809Y-94332895D02*
X124652380Y-94332895D01*
X124652380Y-94332895D02*
X124728571Y-94294800D01*
X124728571Y-94294800D02*
X124766666Y-94256704D01*
D12*
X167237876Y-108888035D02*
X167523590Y-108888035D01*
X167523590Y-108888035D02*
X167552162Y-109173749D01*
X167552162Y-109173749D02*
X167523590Y-109145178D01*
X167523590Y-109145178D02*
X167466448Y-109116606D01*
X167466448Y-109116606D02*
X167323590Y-109116606D01*
X167323590Y-109116606D02*
X167266448Y-109145178D01*
X167266448Y-109145178D02*
X167237876Y-109173749D01*
X167237876Y-109173749D02*
X167209305Y-109230892D01*
X167209305Y-109230892D02*
X167209305Y-109373749D01*
X167209305Y-109373749D02*
X167237876Y-109430892D01*
X167237876Y-109430892D02*
X167266448Y-109459464D01*
X167266448Y-109459464D02*
X167323590Y-109488035D01*
X167323590Y-109488035D02*
X167466448Y-109488035D01*
X167466448Y-109488035D02*
X167523590Y-109459464D01*
X167523590Y-109459464D02*
X167552162Y-109430892D01*
X166866447Y-109145178D02*
X166923590Y-109116606D01*
X166923590Y-109116606D02*
X166952161Y-109088035D01*
X166952161Y-109088035D02*
X166980733Y-109030892D01*
X166980733Y-109030892D02*
X166980733Y-109002321D01*
X166980733Y-109002321D02*
X166952161Y-108945178D01*
X166952161Y-108945178D02*
X166923590Y-108916606D01*
X166923590Y-108916606D02*
X166866447Y-108888035D01*
X166866447Y-108888035D02*
X166752161Y-108888035D01*
X166752161Y-108888035D02*
X166695019Y-108916606D01*
X166695019Y-108916606D02*
X166666447Y-108945178D01*
X166666447Y-108945178D02*
X166637876Y-109002321D01*
X166637876Y-109002321D02*
X166637876Y-109030892D01*
X166637876Y-109030892D02*
X166666447Y-109088035D01*
X166666447Y-109088035D02*
X166695019Y-109116606D01*
X166695019Y-109116606D02*
X166752161Y-109145178D01*
X166752161Y-109145178D02*
X166866447Y-109145178D01*
X166866447Y-109145178D02*
X166923590Y-109173749D01*
X166923590Y-109173749D02*
X166952161Y-109202321D01*
X166952161Y-109202321D02*
X166980733Y-109259464D01*
X166980733Y-109259464D02*
X166980733Y-109373749D01*
X166980733Y-109373749D02*
X166952161Y-109430892D01*
X166952161Y-109430892D02*
X166923590Y-109459464D01*
X166923590Y-109459464D02*
X166866447Y-109488035D01*
X166866447Y-109488035D02*
X166752161Y-109488035D01*
X166752161Y-109488035D02*
X166695019Y-109459464D01*
X166695019Y-109459464D02*
X166666447Y-109430892D01*
X166666447Y-109430892D02*
X166637876Y-109373749D01*
X166637876Y-109373749D02*
X166637876Y-109259464D01*
X166637876Y-109259464D02*
X166666447Y-109202321D01*
X166666447Y-109202321D02*
X166695019Y-109173749D01*
X166695019Y-109173749D02*
X166752161Y-109145178D01*
X166437875Y-108888035D02*
X166037875Y-108888035D01*
X166037875Y-108888035D02*
X166295018Y-109488035D01*
X165809303Y-109259464D02*
X165352161Y-109259464D01*
X164752161Y-109488035D02*
X165095018Y-109488035D01*
X164923589Y-109488035D02*
X164923589Y-108888035D01*
X164923589Y-108888035D02*
X164980732Y-108973749D01*
X164980732Y-108973749D02*
X165037875Y-109030892D01*
X165037875Y-109030892D02*
X165095018Y-109059464D01*
X164380732Y-108888035D02*
X164323589Y-108888035D01*
X164323589Y-108888035D02*
X164266446Y-108916606D01*
X164266446Y-108916606D02*
X164237875Y-108945178D01*
X164237875Y-108945178D02*
X164209303Y-109002321D01*
X164209303Y-109002321D02*
X164180732Y-109116606D01*
X164180732Y-109116606D02*
X164180732Y-109259464D01*
X164180732Y-109259464D02*
X164209303Y-109373749D01*
X164209303Y-109373749D02*
X164237875Y-109430892D01*
X164237875Y-109430892D02*
X164266446Y-109459464D01*
X164266446Y-109459464D02*
X164323589Y-109488035D01*
X164323589Y-109488035D02*
X164380732Y-109488035D01*
X164380732Y-109488035D02*
X164437875Y-109459464D01*
X164437875Y-109459464D02*
X164466446Y-109430892D01*
X164466446Y-109430892D02*
X164495017Y-109373749D01*
X164495017Y-109373749D02*
X164523589Y-109259464D01*
X164523589Y-109259464D02*
X164523589Y-109116606D01*
X164523589Y-109116606D02*
X164495017Y-109002321D01*
X164495017Y-109002321D02*
X164466446Y-108945178D01*
X164466446Y-108945178D02*
X164437875Y-108916606D01*
X164437875Y-108916606D02*
X164380732Y-108888035D01*
X163609303Y-109488035D02*
X163952160Y-109488035D01*
X163780731Y-109488035D02*
X163780731Y-108888035D01*
X163780731Y-108888035D02*
X163837874Y-108973749D01*
X163837874Y-108973749D02*
X163895017Y-109030892D01*
X163895017Y-109030892D02*
X163952160Y-109059464D01*
X163095017Y-108888035D02*
X163209302Y-108888035D01*
X163209302Y-108888035D02*
X163266445Y-108916606D01*
X163266445Y-108916606D02*
X163295017Y-108945178D01*
X163295017Y-108945178D02*
X163352159Y-109030892D01*
X163352159Y-109030892D02*
X163380731Y-109145178D01*
X163380731Y-109145178D02*
X163380731Y-109373749D01*
X163380731Y-109373749D02*
X163352159Y-109430892D01*
X163352159Y-109430892D02*
X163323588Y-109459464D01*
X163323588Y-109459464D02*
X163266445Y-109488035D01*
X163266445Y-109488035D02*
X163152159Y-109488035D01*
X163152159Y-109488035D02*
X163095017Y-109459464D01*
X163095017Y-109459464D02*
X163066445Y-109430892D01*
X163066445Y-109430892D02*
X163037874Y-109373749D01*
X163037874Y-109373749D02*
X163037874Y-109230892D01*
X163037874Y-109230892D02*
X163066445Y-109173749D01*
X163066445Y-109173749D02*
X163095017Y-109145178D01*
X163095017Y-109145178D02*
X163152159Y-109116606D01*
X163152159Y-109116606D02*
X163266445Y-109116606D01*
X163266445Y-109116606D02*
X163323588Y-109145178D01*
X163323588Y-109145178D02*
X163352159Y-109173749D01*
X163352159Y-109173749D02*
X163380731Y-109230892D01*
X162780730Y-109259464D02*
X162323588Y-109259464D01*
X162066445Y-108945178D02*
X162037873Y-108916606D01*
X162037873Y-108916606D02*
X161980731Y-108888035D01*
X161980731Y-108888035D02*
X161837873Y-108888035D01*
X161837873Y-108888035D02*
X161780731Y-108916606D01*
X161780731Y-108916606D02*
X161752159Y-108945178D01*
X161752159Y-108945178D02*
X161723588Y-109002321D01*
X161723588Y-109002321D02*
X161723588Y-109059464D01*
X161723588Y-109059464D02*
X161752159Y-109145178D01*
X161752159Y-109145178D02*
X162095016Y-109488035D01*
X162095016Y-109488035D02*
X161723588Y-109488035D01*
X161209302Y-109088035D02*
X161209302Y-109488035D01*
X161352159Y-108859464D02*
X161495016Y-109288035D01*
X161495016Y-109288035D02*
X161123587Y-109288035D01*
X160952158Y-108888035D02*
X160552158Y-108888035D01*
X160552158Y-108888035D02*
X160809301Y-109488035D01*
X160123586Y-109173749D02*
X160323586Y-109173749D01*
X160323586Y-109488035D02*
X160323586Y-108888035D01*
X160323586Y-108888035D02*
X160037872Y-108888035D01*
X167580733Y-109854001D02*
X167437876Y-110454001D01*
X167437876Y-110454001D02*
X167323590Y-110025430D01*
X167323590Y-110025430D02*
X167209305Y-110454001D01*
X167209305Y-110454001D02*
X167066448Y-109854001D01*
X166866448Y-110425430D02*
X166780734Y-110454001D01*
X166780734Y-110454001D02*
X166637876Y-110454001D01*
X166637876Y-110454001D02*
X166580734Y-110425430D01*
X166580734Y-110425430D02*
X166552162Y-110396858D01*
X166552162Y-110396858D02*
X166523591Y-110339715D01*
X166523591Y-110339715D02*
X166523591Y-110282572D01*
X166523591Y-110282572D02*
X166552162Y-110225430D01*
X166552162Y-110225430D02*
X166580734Y-110196858D01*
X166580734Y-110196858D02*
X166637876Y-110168287D01*
X166637876Y-110168287D02*
X166752162Y-110139715D01*
X166752162Y-110139715D02*
X166809305Y-110111144D01*
X166809305Y-110111144D02*
X166837876Y-110082572D01*
X166837876Y-110082572D02*
X166866448Y-110025430D01*
X166866448Y-110025430D02*
X166866448Y-109968287D01*
X166866448Y-109968287D02*
X166837876Y-109911144D01*
X166837876Y-109911144D02*
X166809305Y-109882572D01*
X166809305Y-109882572D02*
X166752162Y-109854001D01*
X166752162Y-109854001D02*
X166609305Y-109854001D01*
X166609305Y-109854001D02*
X166523591Y-109882572D01*
X166295019Y-109911144D02*
X166266447Y-109882572D01*
X166266447Y-109882572D02*
X166209305Y-109854001D01*
X166209305Y-109854001D02*
X166066447Y-109854001D01*
X166066447Y-109854001D02*
X166009305Y-109882572D01*
X166009305Y-109882572D02*
X165980733Y-109911144D01*
X165980733Y-109911144D02*
X165952162Y-109968287D01*
X165952162Y-109968287D02*
X165952162Y-110025430D01*
X165952162Y-110025430D02*
X165980733Y-110111144D01*
X165980733Y-110111144D02*
X166323590Y-110454001D01*
X166323590Y-110454001D02*
X165952162Y-110454001D01*
X165609304Y-110111144D02*
X165666447Y-110082572D01*
X165666447Y-110082572D02*
X165695018Y-110054001D01*
X165695018Y-110054001D02*
X165723590Y-109996858D01*
X165723590Y-109996858D02*
X165723590Y-109968287D01*
X165723590Y-109968287D02*
X165695018Y-109911144D01*
X165695018Y-109911144D02*
X165666447Y-109882572D01*
X165666447Y-109882572D02*
X165609304Y-109854001D01*
X165609304Y-109854001D02*
X165495018Y-109854001D01*
X165495018Y-109854001D02*
X165437876Y-109882572D01*
X165437876Y-109882572D02*
X165409304Y-109911144D01*
X165409304Y-109911144D02*
X165380733Y-109968287D01*
X165380733Y-109968287D02*
X165380733Y-109996858D01*
X165380733Y-109996858D02*
X165409304Y-110054001D01*
X165409304Y-110054001D02*
X165437876Y-110082572D01*
X165437876Y-110082572D02*
X165495018Y-110111144D01*
X165495018Y-110111144D02*
X165609304Y-110111144D01*
X165609304Y-110111144D02*
X165666447Y-110139715D01*
X165666447Y-110139715D02*
X165695018Y-110168287D01*
X165695018Y-110168287D02*
X165723590Y-110225430D01*
X165723590Y-110225430D02*
X165723590Y-110339715D01*
X165723590Y-110339715D02*
X165695018Y-110396858D01*
X165695018Y-110396858D02*
X165666447Y-110425430D01*
X165666447Y-110425430D02*
X165609304Y-110454001D01*
X165609304Y-110454001D02*
X165495018Y-110454001D01*
X165495018Y-110454001D02*
X165437876Y-110425430D01*
X165437876Y-110425430D02*
X165409304Y-110396858D01*
X165409304Y-110396858D02*
X165380733Y-110339715D01*
X165380733Y-110339715D02*
X165380733Y-110225430D01*
X165380733Y-110225430D02*
X165409304Y-110168287D01*
X165409304Y-110168287D02*
X165437876Y-110139715D01*
X165437876Y-110139715D02*
X165495018Y-110111144D01*
X164809304Y-110454001D02*
X165152161Y-110454001D01*
X164980732Y-110454001D02*
X164980732Y-109854001D01*
X164980732Y-109854001D02*
X165037875Y-109939715D01*
X165037875Y-109939715D02*
X165095018Y-109996858D01*
X165095018Y-109996858D02*
X165152161Y-110025430D01*
X164580732Y-109911144D02*
X164552160Y-109882572D01*
X164552160Y-109882572D02*
X164495018Y-109854001D01*
X164495018Y-109854001D02*
X164352160Y-109854001D01*
X164352160Y-109854001D02*
X164295018Y-109882572D01*
X164295018Y-109882572D02*
X164266446Y-109911144D01*
X164266446Y-109911144D02*
X164237875Y-109968287D01*
X164237875Y-109968287D02*
X164237875Y-110025430D01*
X164237875Y-110025430D02*
X164266446Y-110111144D01*
X164266446Y-110111144D02*
X164609303Y-110454001D01*
X164609303Y-110454001D02*
X164237875Y-110454001D01*
X163780731Y-110139715D02*
X163695017Y-110168287D01*
X163695017Y-110168287D02*
X163666446Y-110196858D01*
X163666446Y-110196858D02*
X163637874Y-110254001D01*
X163637874Y-110254001D02*
X163637874Y-110339715D01*
X163637874Y-110339715D02*
X163666446Y-110396858D01*
X163666446Y-110396858D02*
X163695017Y-110425430D01*
X163695017Y-110425430D02*
X163752160Y-110454001D01*
X163752160Y-110454001D02*
X163980731Y-110454001D01*
X163980731Y-110454001D02*
X163980731Y-109854001D01*
X163980731Y-109854001D02*
X163780731Y-109854001D01*
X163780731Y-109854001D02*
X163723589Y-109882572D01*
X163723589Y-109882572D02*
X163695017Y-109911144D01*
X163695017Y-109911144D02*
X163666446Y-109968287D01*
X163666446Y-109968287D02*
X163666446Y-110025430D01*
X163666446Y-110025430D02*
X163695017Y-110082572D01*
X163695017Y-110082572D02*
X163723589Y-110111144D01*
X163723589Y-110111144D02*
X163780731Y-110139715D01*
X163780731Y-110139715D02*
X163980731Y-110139715D01*
X163380731Y-110225430D02*
X162923589Y-110225430D01*
X162352160Y-109854001D02*
X162637874Y-109854001D01*
X162637874Y-109854001D02*
X162666446Y-110139715D01*
X162666446Y-110139715D02*
X162637874Y-110111144D01*
X162637874Y-110111144D02*
X162580732Y-110082572D01*
X162580732Y-110082572D02*
X162437874Y-110082572D01*
X162437874Y-110082572D02*
X162380732Y-110111144D01*
X162380732Y-110111144D02*
X162352160Y-110139715D01*
X162352160Y-110139715D02*
X162323589Y-110196858D01*
X162323589Y-110196858D02*
X162323589Y-110339715D01*
X162323589Y-110339715D02*
X162352160Y-110396858D01*
X162352160Y-110396858D02*
X162380732Y-110425430D01*
X162380732Y-110425430D02*
X162437874Y-110454001D01*
X162437874Y-110454001D02*
X162580732Y-110454001D01*
X162580732Y-110454001D02*
X162637874Y-110425430D01*
X162637874Y-110425430D02*
X162666446Y-110396858D01*
X161952160Y-109854001D02*
X161895017Y-109854001D01*
X161895017Y-109854001D02*
X161837874Y-109882572D01*
X161837874Y-109882572D02*
X161809303Y-109911144D01*
X161809303Y-109911144D02*
X161780731Y-109968287D01*
X161780731Y-109968287D02*
X161752160Y-110082572D01*
X161752160Y-110082572D02*
X161752160Y-110225430D01*
X161752160Y-110225430D02*
X161780731Y-110339715D01*
X161780731Y-110339715D02*
X161809303Y-110396858D01*
X161809303Y-110396858D02*
X161837874Y-110425430D01*
X161837874Y-110425430D02*
X161895017Y-110454001D01*
X161895017Y-110454001D02*
X161952160Y-110454001D01*
X161952160Y-110454001D02*
X162009303Y-110425430D01*
X162009303Y-110425430D02*
X162037874Y-110396858D01*
X162037874Y-110396858D02*
X162066445Y-110339715D01*
X162066445Y-110339715D02*
X162095017Y-110225430D01*
X162095017Y-110225430D02*
X162095017Y-110082572D01*
X162095017Y-110082572D02*
X162066445Y-109968287D01*
X162066445Y-109968287D02*
X162037874Y-109911144D01*
X162037874Y-109911144D02*
X162009303Y-109882572D01*
X162009303Y-109882572D02*
X161952160Y-109854001D01*
X161209302Y-109854001D02*
X161495016Y-109854001D01*
X161495016Y-109854001D02*
X161523588Y-110139715D01*
X161523588Y-110139715D02*
X161495016Y-110111144D01*
X161495016Y-110111144D02*
X161437874Y-110082572D01*
X161437874Y-110082572D02*
X161295016Y-110082572D01*
X161295016Y-110082572D02*
X161237874Y-110111144D01*
X161237874Y-110111144D02*
X161209302Y-110139715D01*
X161209302Y-110139715D02*
X161180731Y-110196858D01*
X161180731Y-110196858D02*
X161180731Y-110339715D01*
X161180731Y-110339715D02*
X161209302Y-110396858D01*
X161209302Y-110396858D02*
X161237874Y-110425430D01*
X161237874Y-110425430D02*
X161295016Y-110454001D01*
X161295016Y-110454001D02*
X161437874Y-110454001D01*
X161437874Y-110454001D02*
X161495016Y-110425430D01*
X161495016Y-110425430D02*
X161523588Y-110396858D01*
X160809302Y-109854001D02*
X160752159Y-109854001D01*
X160752159Y-109854001D02*
X160695016Y-109882572D01*
X160695016Y-109882572D02*
X160666445Y-109911144D01*
X160666445Y-109911144D02*
X160637873Y-109968287D01*
X160637873Y-109968287D02*
X160609302Y-110082572D01*
X160609302Y-110082572D02*
X160609302Y-110225430D01*
X160609302Y-110225430D02*
X160637873Y-110339715D01*
X160637873Y-110339715D02*
X160666445Y-110396858D01*
X160666445Y-110396858D02*
X160695016Y-110425430D01*
X160695016Y-110425430D02*
X160752159Y-110454001D01*
X160752159Y-110454001D02*
X160809302Y-110454001D01*
X160809302Y-110454001D02*
X160866445Y-110425430D01*
X160866445Y-110425430D02*
X160895016Y-110396858D01*
X160895016Y-110396858D02*
X160923587Y-110339715D01*
X160923587Y-110339715D02*
X160952159Y-110225430D01*
X160952159Y-110225430D02*
X160952159Y-110082572D01*
X160952159Y-110082572D02*
X160923587Y-109968287D01*
X160923587Y-109968287D02*
X160895016Y-109911144D01*
X160895016Y-109911144D02*
X160866445Y-109882572D01*
X160866445Y-109882572D02*
X160809302Y-109854001D01*
X167580733Y-110819967D02*
X167437876Y-111419967D01*
X167437876Y-111419967D02*
X167323590Y-110991396D01*
X167323590Y-110991396D02*
X167209305Y-111419967D01*
X167209305Y-111419967D02*
X167066448Y-110819967D01*
X166866448Y-111391396D02*
X166780734Y-111419967D01*
X166780734Y-111419967D02*
X166637876Y-111419967D01*
X166637876Y-111419967D02*
X166580734Y-111391396D01*
X166580734Y-111391396D02*
X166552162Y-111362824D01*
X166552162Y-111362824D02*
X166523591Y-111305681D01*
X166523591Y-111305681D02*
X166523591Y-111248538D01*
X166523591Y-111248538D02*
X166552162Y-111191396D01*
X166552162Y-111191396D02*
X166580734Y-111162824D01*
X166580734Y-111162824D02*
X166637876Y-111134253D01*
X166637876Y-111134253D02*
X166752162Y-111105681D01*
X166752162Y-111105681D02*
X166809305Y-111077110D01*
X166809305Y-111077110D02*
X166837876Y-111048538D01*
X166837876Y-111048538D02*
X166866448Y-110991396D01*
X166866448Y-110991396D02*
X166866448Y-110934253D01*
X166866448Y-110934253D02*
X166837876Y-110877110D01*
X166837876Y-110877110D02*
X166809305Y-110848538D01*
X166809305Y-110848538D02*
X166752162Y-110819967D01*
X166752162Y-110819967D02*
X166609305Y-110819967D01*
X166609305Y-110819967D02*
X166523591Y-110848538D01*
X166295019Y-110877110D02*
X166266447Y-110848538D01*
X166266447Y-110848538D02*
X166209305Y-110819967D01*
X166209305Y-110819967D02*
X166066447Y-110819967D01*
X166066447Y-110819967D02*
X166009305Y-110848538D01*
X166009305Y-110848538D02*
X165980733Y-110877110D01*
X165980733Y-110877110D02*
X165952162Y-110934253D01*
X165952162Y-110934253D02*
X165952162Y-110991396D01*
X165952162Y-110991396D02*
X165980733Y-111077110D01*
X165980733Y-111077110D02*
X166323590Y-111419967D01*
X166323590Y-111419967D02*
X165952162Y-111419967D01*
X165609304Y-111077110D02*
X165666447Y-111048538D01*
X165666447Y-111048538D02*
X165695018Y-111019967D01*
X165695018Y-111019967D02*
X165723590Y-110962824D01*
X165723590Y-110962824D02*
X165723590Y-110934253D01*
X165723590Y-110934253D02*
X165695018Y-110877110D01*
X165695018Y-110877110D02*
X165666447Y-110848538D01*
X165666447Y-110848538D02*
X165609304Y-110819967D01*
X165609304Y-110819967D02*
X165495018Y-110819967D01*
X165495018Y-110819967D02*
X165437876Y-110848538D01*
X165437876Y-110848538D02*
X165409304Y-110877110D01*
X165409304Y-110877110D02*
X165380733Y-110934253D01*
X165380733Y-110934253D02*
X165380733Y-110962824D01*
X165380733Y-110962824D02*
X165409304Y-111019967D01*
X165409304Y-111019967D02*
X165437876Y-111048538D01*
X165437876Y-111048538D02*
X165495018Y-111077110D01*
X165495018Y-111077110D02*
X165609304Y-111077110D01*
X165609304Y-111077110D02*
X165666447Y-111105681D01*
X165666447Y-111105681D02*
X165695018Y-111134253D01*
X165695018Y-111134253D02*
X165723590Y-111191396D01*
X165723590Y-111191396D02*
X165723590Y-111305681D01*
X165723590Y-111305681D02*
X165695018Y-111362824D01*
X165695018Y-111362824D02*
X165666447Y-111391396D01*
X165666447Y-111391396D02*
X165609304Y-111419967D01*
X165609304Y-111419967D02*
X165495018Y-111419967D01*
X165495018Y-111419967D02*
X165437876Y-111391396D01*
X165437876Y-111391396D02*
X165409304Y-111362824D01*
X165409304Y-111362824D02*
X165380733Y-111305681D01*
X165380733Y-111305681D02*
X165380733Y-111191396D01*
X165380733Y-111191396D02*
X165409304Y-111134253D01*
X165409304Y-111134253D02*
X165437876Y-111105681D01*
X165437876Y-111105681D02*
X165495018Y-111077110D01*
X164809304Y-111419967D02*
X165152161Y-111419967D01*
X164980732Y-111419967D02*
X164980732Y-110819967D01*
X164980732Y-110819967D02*
X165037875Y-110905681D01*
X165037875Y-110905681D02*
X165095018Y-110962824D01*
X165095018Y-110962824D02*
X165152161Y-110991396D01*
X164580732Y-110877110D02*
X164552160Y-110848538D01*
X164552160Y-110848538D02*
X164495018Y-110819967D01*
X164495018Y-110819967D02*
X164352160Y-110819967D01*
X164352160Y-110819967D02*
X164295018Y-110848538D01*
X164295018Y-110848538D02*
X164266446Y-110877110D01*
X164266446Y-110877110D02*
X164237875Y-110934253D01*
X164237875Y-110934253D02*
X164237875Y-110991396D01*
X164237875Y-110991396D02*
X164266446Y-111077110D01*
X164266446Y-111077110D02*
X164609303Y-111419967D01*
X164609303Y-111419967D02*
X164237875Y-111419967D01*
X163780731Y-111105681D02*
X163695017Y-111134253D01*
X163695017Y-111134253D02*
X163666446Y-111162824D01*
X163666446Y-111162824D02*
X163637874Y-111219967D01*
X163637874Y-111219967D02*
X163637874Y-111305681D01*
X163637874Y-111305681D02*
X163666446Y-111362824D01*
X163666446Y-111362824D02*
X163695017Y-111391396D01*
X163695017Y-111391396D02*
X163752160Y-111419967D01*
X163752160Y-111419967D02*
X163980731Y-111419967D01*
X163980731Y-111419967D02*
X163980731Y-110819967D01*
X163980731Y-110819967D02*
X163780731Y-110819967D01*
X163780731Y-110819967D02*
X163723589Y-110848538D01*
X163723589Y-110848538D02*
X163695017Y-110877110D01*
X163695017Y-110877110D02*
X163666446Y-110934253D01*
X163666446Y-110934253D02*
X163666446Y-110991396D01*
X163666446Y-110991396D02*
X163695017Y-111048538D01*
X163695017Y-111048538D02*
X163723589Y-111077110D01*
X163723589Y-111077110D02*
X163780731Y-111105681D01*
X163780731Y-111105681D02*
X163980731Y-111105681D01*
X163380731Y-111191396D02*
X162923589Y-111191396D01*
X162666446Y-110877110D02*
X162637874Y-110848538D01*
X162637874Y-110848538D02*
X162580732Y-110819967D01*
X162580732Y-110819967D02*
X162437874Y-110819967D01*
X162437874Y-110819967D02*
X162380732Y-110848538D01*
X162380732Y-110848538D02*
X162352160Y-110877110D01*
X162352160Y-110877110D02*
X162323589Y-110934253D01*
X162323589Y-110934253D02*
X162323589Y-110991396D01*
X162323589Y-110991396D02*
X162352160Y-111077110D01*
X162352160Y-111077110D02*
X162695017Y-111419967D01*
X162695017Y-111419967D02*
X162323589Y-111419967D01*
X161952160Y-110819967D02*
X161895017Y-110819967D01*
X161895017Y-110819967D02*
X161837874Y-110848538D01*
X161837874Y-110848538D02*
X161809303Y-110877110D01*
X161809303Y-110877110D02*
X161780731Y-110934253D01*
X161780731Y-110934253D02*
X161752160Y-111048538D01*
X161752160Y-111048538D02*
X161752160Y-111191396D01*
X161752160Y-111191396D02*
X161780731Y-111305681D01*
X161780731Y-111305681D02*
X161809303Y-111362824D01*
X161809303Y-111362824D02*
X161837874Y-111391396D01*
X161837874Y-111391396D02*
X161895017Y-111419967D01*
X161895017Y-111419967D02*
X161952160Y-111419967D01*
X161952160Y-111419967D02*
X162009303Y-111391396D01*
X162009303Y-111391396D02*
X162037874Y-111362824D01*
X162037874Y-111362824D02*
X162066445Y-111305681D01*
X162066445Y-111305681D02*
X162095017Y-111191396D01*
X162095017Y-111191396D02*
X162095017Y-111048538D01*
X162095017Y-111048538D02*
X162066445Y-110934253D01*
X162066445Y-110934253D02*
X162037874Y-110877110D01*
X162037874Y-110877110D02*
X162009303Y-110848538D01*
X162009303Y-110848538D02*
X161952160Y-110819967D01*
X161523588Y-110877110D02*
X161495016Y-110848538D01*
X161495016Y-110848538D02*
X161437874Y-110819967D01*
X161437874Y-110819967D02*
X161295016Y-110819967D01*
X161295016Y-110819967D02*
X161237874Y-110848538D01*
X161237874Y-110848538D02*
X161209302Y-110877110D01*
X161209302Y-110877110D02*
X161180731Y-110934253D01*
X161180731Y-110934253D02*
X161180731Y-110991396D01*
X161180731Y-110991396D02*
X161209302Y-111077110D01*
X161209302Y-111077110D02*
X161552159Y-111419967D01*
X161552159Y-111419967D02*
X161180731Y-111419967D01*
X160809302Y-110819967D02*
X160752159Y-110819967D01*
X160752159Y-110819967D02*
X160695016Y-110848538D01*
X160695016Y-110848538D02*
X160666445Y-110877110D01*
X160666445Y-110877110D02*
X160637873Y-110934253D01*
X160637873Y-110934253D02*
X160609302Y-111048538D01*
X160609302Y-111048538D02*
X160609302Y-111191396D01*
X160609302Y-111191396D02*
X160637873Y-111305681D01*
X160637873Y-111305681D02*
X160666445Y-111362824D01*
X160666445Y-111362824D02*
X160695016Y-111391396D01*
X160695016Y-111391396D02*
X160752159Y-111419967D01*
X160752159Y-111419967D02*
X160809302Y-111419967D01*
X160809302Y-111419967D02*
X160866445Y-111391396D01*
X160866445Y-111391396D02*
X160895016Y-111362824D01*
X160895016Y-111362824D02*
X160923587Y-111305681D01*
X160923587Y-111305681D02*
X160952159Y-111191396D01*
X160952159Y-111191396D02*
X160952159Y-111048538D01*
X160952159Y-111048538D02*
X160923587Y-110934253D01*
X160923587Y-110934253D02*
X160895016Y-110877110D01*
X160895016Y-110877110D02*
X160866445Y-110848538D01*
X160866445Y-110848538D02*
X160809302Y-110819967D01*
D10*
X151478571Y-93609085D02*
X151440475Y-93570990D01*
X151440475Y-93570990D02*
X151364285Y-93532895D01*
X151364285Y-93532895D02*
X151173809Y-93532895D01*
X151173809Y-93532895D02*
X151097618Y-93570990D01*
X151097618Y-93570990D02*
X151059523Y-93609085D01*
X151059523Y-93609085D02*
X151021428Y-93685276D01*
X151021428Y-93685276D02*
X151021428Y-93761466D01*
X151021428Y-93761466D02*
X151059523Y-93875752D01*
X151059523Y-93875752D02*
X151516666Y-94332895D01*
X151516666Y-94332895D02*
X151021428Y-94332895D01*
X131847618Y-93532895D02*
X131999999Y-93532895D01*
X131999999Y-93532895D02*
X132076190Y-93570990D01*
X132076190Y-93570990D02*
X132114285Y-93609085D01*
X132114285Y-93609085D02*
X132190475Y-93723371D01*
X132190475Y-93723371D02*
X132228571Y-93875752D01*
X132228571Y-93875752D02*
X132228571Y-94180514D01*
X132228571Y-94180514D02*
X132190475Y-94256704D01*
X132190475Y-94256704D02*
X132152380Y-94294800D01*
X132152380Y-94294800D02*
X132076190Y-94332895D01*
X132076190Y-94332895D02*
X131923809Y-94332895D01*
X131923809Y-94332895D02*
X131847618Y-94294800D01*
X131847618Y-94294800D02*
X131809523Y-94256704D01*
X131809523Y-94256704D02*
X131771428Y-94180514D01*
X131771428Y-94180514D02*
X131771428Y-93990038D01*
X131771428Y-93990038D02*
X131809523Y-93913847D01*
X131809523Y-93913847D02*
X131847618Y-93875752D01*
X131847618Y-93875752D02*
X131923809Y-93837657D01*
X131923809Y-93837657D02*
X132076190Y-93837657D01*
X132076190Y-93837657D02*
X132152380Y-93875752D01*
X132152380Y-93875752D02*
X132190475Y-93913847D01*
X132190475Y-93913847D02*
X132228571Y-93990038D01*
X136993734Y-122586704D02*
X136517544Y-122586704D01*
X137088972Y-122872419D02*
X136755639Y-121872419D01*
X136755639Y-121872419D02*
X136422306Y-122872419D01*
X135660401Y-122205752D02*
X135660401Y-122872419D01*
X136088972Y-122205752D02*
X136088972Y-122729561D01*
X136088972Y-122729561D02*
X136041353Y-122824800D01*
X136041353Y-122824800D02*
X135946115Y-122872419D01*
X135946115Y-122872419D02*
X135803258Y-122872419D01*
X135803258Y-122872419D02*
X135708020Y-122824800D01*
X135708020Y-122824800D02*
X135660401Y-122777180D01*
X134755639Y-122205752D02*
X134755639Y-123015276D01*
X134755639Y-123015276D02*
X134803258Y-123110514D01*
X134803258Y-123110514D02*
X134850877Y-123158133D01*
X134850877Y-123158133D02*
X134946115Y-123205752D01*
X134946115Y-123205752D02*
X135088972Y-123205752D01*
X135088972Y-123205752D02*
X135184210Y-123158133D01*
X134755639Y-122824800D02*
X134850877Y-122872419D01*
X134850877Y-122872419D02*
X135041353Y-122872419D01*
X135041353Y-122872419D02*
X135136591Y-122824800D01*
X135136591Y-122824800D02*
X135184210Y-122777180D01*
X135184210Y-122777180D02*
X135231829Y-122681942D01*
X135231829Y-122681942D02*
X135231829Y-122396228D01*
X135231829Y-122396228D02*
X135184210Y-122300990D01*
X135184210Y-122300990D02*
X135136591Y-122253371D01*
X135136591Y-122253371D02*
X135041353Y-122205752D01*
X135041353Y-122205752D02*
X134850877Y-122205752D01*
X134850877Y-122205752D02*
X134755639Y-122253371D01*
X133850877Y-122205752D02*
X133850877Y-122872419D01*
X134279448Y-122205752D02*
X134279448Y-122729561D01*
X134279448Y-122729561D02*
X134231829Y-122824800D01*
X134231829Y-122824800D02*
X134136591Y-122872419D01*
X134136591Y-122872419D02*
X133993734Y-122872419D01*
X133993734Y-122872419D02*
X133898496Y-122824800D01*
X133898496Y-122824800D02*
X133850877Y-122777180D01*
X133422305Y-122824800D02*
X133327067Y-122872419D01*
X133327067Y-122872419D02*
X133136591Y-122872419D01*
X133136591Y-122872419D02*
X133041353Y-122824800D01*
X133041353Y-122824800D02*
X132993734Y-122729561D01*
X132993734Y-122729561D02*
X132993734Y-122681942D01*
X132993734Y-122681942D02*
X133041353Y-122586704D01*
X133041353Y-122586704D02*
X133136591Y-122539085D01*
X133136591Y-122539085D02*
X133279448Y-122539085D01*
X133279448Y-122539085D02*
X133374686Y-122491466D01*
X133374686Y-122491466D02*
X133422305Y-122396228D01*
X133422305Y-122396228D02*
X133422305Y-122348609D01*
X133422305Y-122348609D02*
X133374686Y-122253371D01*
X133374686Y-122253371D02*
X133279448Y-122205752D01*
X133279448Y-122205752D02*
X133136591Y-122205752D01*
X133136591Y-122205752D02*
X133041353Y-122253371D01*
X132708019Y-122205752D02*
X132327067Y-122205752D01*
X132565162Y-121872419D02*
X132565162Y-122729561D01*
X132565162Y-122729561D02*
X132517543Y-122824800D01*
X132517543Y-122824800D02*
X132422305Y-122872419D01*
X132422305Y-122872419D02*
X132327067Y-122872419D01*
X131279447Y-121967657D02*
X131231828Y-121920038D01*
X131231828Y-121920038D02*
X131136590Y-121872419D01*
X131136590Y-121872419D02*
X130898495Y-121872419D01*
X130898495Y-121872419D02*
X130803257Y-121920038D01*
X130803257Y-121920038D02*
X130755638Y-121967657D01*
X130755638Y-121967657D02*
X130708019Y-122062895D01*
X130708019Y-122062895D02*
X130708019Y-122158133D01*
X130708019Y-122158133D02*
X130755638Y-122300990D01*
X130755638Y-122300990D02*
X131327066Y-122872419D01*
X131327066Y-122872419D02*
X130708019Y-122872419D01*
X130088971Y-121872419D02*
X129993733Y-121872419D01*
X129993733Y-121872419D02*
X129898495Y-121920038D01*
X129898495Y-121920038D02*
X129850876Y-121967657D01*
X129850876Y-121967657D02*
X129803257Y-122062895D01*
X129803257Y-122062895D02*
X129755638Y-122253371D01*
X129755638Y-122253371D02*
X129755638Y-122491466D01*
X129755638Y-122491466D02*
X129803257Y-122681942D01*
X129803257Y-122681942D02*
X129850876Y-122777180D01*
X129850876Y-122777180D02*
X129898495Y-122824800D01*
X129898495Y-122824800D02*
X129993733Y-122872419D01*
X129993733Y-122872419D02*
X130088971Y-122872419D01*
X130088971Y-122872419D02*
X130184209Y-122824800D01*
X130184209Y-122824800D02*
X130231828Y-122777180D01*
X130231828Y-122777180D02*
X130279447Y-122681942D01*
X130279447Y-122681942D02*
X130327066Y-122491466D01*
X130327066Y-122491466D02*
X130327066Y-122253371D01*
X130327066Y-122253371D02*
X130279447Y-122062895D01*
X130279447Y-122062895D02*
X130231828Y-121967657D01*
X130231828Y-121967657D02*
X130184209Y-121920038D01*
X130184209Y-121920038D02*
X130088971Y-121872419D01*
X129374685Y-121967657D02*
X129327066Y-121920038D01*
X129327066Y-121920038D02*
X129231828Y-121872419D01*
X129231828Y-121872419D02*
X128993733Y-121872419D01*
X128993733Y-121872419D02*
X128898495Y-121920038D01*
X128898495Y-121920038D02*
X128850876Y-121967657D01*
X128850876Y-121967657D02*
X128803257Y-122062895D01*
X128803257Y-122062895D02*
X128803257Y-122158133D01*
X128803257Y-122158133D02*
X128850876Y-122300990D01*
X128850876Y-122300990D02*
X129422304Y-122872419D01*
X129422304Y-122872419D02*
X128803257Y-122872419D01*
X127898495Y-121872419D02*
X128374685Y-121872419D01*
X128374685Y-121872419D02*
X128422304Y-122348609D01*
X128422304Y-122348609D02*
X128374685Y-122300990D01*
X128374685Y-122300990D02*
X128279447Y-122253371D01*
X128279447Y-122253371D02*
X128041352Y-122253371D01*
X128041352Y-122253371D02*
X127946114Y-122300990D01*
X127946114Y-122300990D02*
X127898495Y-122348609D01*
X127898495Y-122348609D02*
X127850876Y-122443847D01*
X127850876Y-122443847D02*
X127850876Y-122681942D01*
X127850876Y-122681942D02*
X127898495Y-122777180D01*
X127898495Y-122777180D02*
X127946114Y-122824800D01*
X127946114Y-122824800D02*
X128041352Y-122872419D01*
X128041352Y-122872419D02*
X128279447Y-122872419D01*
X128279447Y-122872419D02*
X128374685Y-122824800D01*
X128374685Y-122824800D02*
X128422304Y-122777180D01*
X140847618Y-93532895D02*
X140999999Y-93532895D01*
X140999999Y-93532895D02*
X141076190Y-93570990D01*
X141076190Y-93570990D02*
X141114285Y-93609085D01*
X141114285Y-93609085D02*
X141190475Y-93723371D01*
X141190475Y-93723371D02*
X141228571Y-93875752D01*
X141228571Y-93875752D02*
X141228571Y-94180514D01*
X141228571Y-94180514D02*
X141190475Y-94256704D01*
X141190475Y-94256704D02*
X141152380Y-94294800D01*
X141152380Y-94294800D02*
X141076190Y-94332895D01*
X141076190Y-94332895D02*
X140923809Y-94332895D01*
X140923809Y-94332895D02*
X140847618Y-94294800D01*
X140847618Y-94294800D02*
X140809523Y-94256704D01*
X140809523Y-94256704D02*
X140771428Y-94180514D01*
X140771428Y-94180514D02*
X140771428Y-93990038D01*
X140771428Y-93990038D02*
X140809523Y-93913847D01*
X140809523Y-93913847D02*
X140847618Y-93875752D01*
X140847618Y-93875752D02*
X140923809Y-93837657D01*
X140923809Y-93837657D02*
X141076190Y-93837657D01*
X141076190Y-93837657D02*
X141152380Y-93875752D01*
X141152380Y-93875752D02*
X141190475Y-93913847D01*
X141190475Y-93913847D02*
X141228571Y-93990038D01*
X134766666Y-93532895D02*
X134233332Y-93532895D01*
X134233332Y-93532895D02*
X134576190Y-94332895D01*
D11*
G36*
X146892950Y-82366786D02*
G01*
X146957129Y-82430965D01*
X146995044Y-82582624D01*
X146995044Y-82891338D01*
X146957128Y-83042998D01*
X146892952Y-83107176D01*
X146833342Y-83136982D01*
X146690080Y-83136982D01*
X146630470Y-83107177D01*
X146566293Y-83042999D01*
X146528378Y-82891338D01*
X146528378Y-82582625D01*
X146566293Y-82430965D01*
X146630472Y-82366786D01*
X146690080Y-82336982D01*
X146833342Y-82336982D01*
X146892950Y-82366786D01*
G37*
G36*
X145146778Y-82851267D02*
G01*
X144948073Y-82851267D01*
X145047425Y-82553209D01*
X145146778Y-82851267D01*
G37*
G36*
X148423615Y-82660791D02*
G01*
X148166270Y-82660791D01*
X148106660Y-82630986D01*
X148081992Y-82606317D01*
X148052187Y-82546707D01*
X148052187Y-82451065D01*
X148081992Y-82391455D01*
X148106660Y-82366786D01*
X148166270Y-82336982D01*
X148423615Y-82336982D01*
X148423615Y-82660791D01*
G37*
G36*
X149782345Y-83448093D02*
G01*
X144503766Y-83448093D01*
X144503766Y-83224475D01*
X144614877Y-83224475D01*
X144617643Y-83263395D01*
X144635093Y-83298294D01*
X144664569Y-83323859D01*
X144701585Y-83336197D01*
X144740505Y-83333431D01*
X144775404Y-83315981D01*
X144800969Y-83286505D01*
X144808960Y-83268605D01*
X144881406Y-83051267D01*
X145213444Y-83051267D01*
X145285890Y-83268604D01*
X145293881Y-83286505D01*
X145319446Y-83315981D01*
X145354345Y-83333430D01*
X145393265Y-83336197D01*
X145430281Y-83323858D01*
X145459757Y-83298293D01*
X145477207Y-83263394D01*
X145479973Y-83224474D01*
X145475626Y-83205359D01*
X145263945Y-82570315D01*
X146328378Y-82570315D01*
X146328378Y-82903648D01*
X146328713Y-82907050D01*
X146328496Y-82908509D01*
X146329575Y-82915806D01*
X146330299Y-82923157D01*
X146330863Y-82924520D01*
X146331364Y-82927902D01*
X146378983Y-83118377D01*
X146385578Y-83136838D01*
X146390003Y-83142810D01*
X146392849Y-83149681D01*
X146405286Y-83164834D01*
X146500524Y-83260074D01*
X146508192Y-83266367D01*
X146509923Y-83268363D01*
X146512930Y-83270256D01*
X146515677Y-83272510D01*
X146518117Y-83273520D01*
X146526514Y-83278806D01*
X146621751Y-83326425D01*
X146640060Y-83333431D01*
X146643643Y-83333685D01*
X146646964Y-83335061D01*
X146666473Y-83336982D01*
X146856949Y-83336982D01*
X146876458Y-83335061D01*
X146879778Y-83333685D01*
X146883362Y-83333431D01*
X146901670Y-83326425D01*
X146996908Y-83278806D01*
X147005303Y-83273521D01*
X147007745Y-83272510D01*
X147010492Y-83270254D01*
X147013498Y-83268363D01*
X147015228Y-83266368D01*
X147022898Y-83260073D01*
X147118136Y-83164834D01*
X147130573Y-83149681D01*
X147133418Y-83142810D01*
X147137844Y-83136838D01*
X147144439Y-83118378D01*
X147192058Y-82927902D01*
X147192558Y-82924520D01*
X147193123Y-82923157D01*
X147193846Y-82915806D01*
X147194926Y-82908509D01*
X147194708Y-82907050D01*
X147195044Y-82903648D01*
X147195044Y-82570315D01*
X147194708Y-82566912D01*
X147194926Y-82565454D01*
X147193846Y-82558156D01*
X147193123Y-82550806D01*
X147192558Y-82549442D01*
X147192058Y-82546061D01*
X147144439Y-82355585D01*
X147137844Y-82337125D01*
X147133417Y-82331150D01*
X147130572Y-82324282D01*
X147118136Y-82309128D01*
X147045990Y-82236982D01*
X147423615Y-82236982D01*
X147423615Y-83236982D01*
X147425536Y-83256491D01*
X147440468Y-83292539D01*
X147468058Y-83320129D01*
X147504106Y-83335061D01*
X147543124Y-83335061D01*
X147579172Y-83320129D01*
X147606762Y-83292539D01*
X147621694Y-83256491D01*
X147623615Y-83236982D01*
X147623615Y-82427458D01*
X147852187Y-82427458D01*
X147852187Y-82570315D01*
X147854108Y-82589824D01*
X147855483Y-82593144D01*
X147855738Y-82596728D01*
X147862744Y-82615036D01*
X147910363Y-82710274D01*
X147915648Y-82718670D01*
X147916659Y-82721110D01*
X147918912Y-82723856D01*
X147920806Y-82726864D01*
X147922800Y-82728593D01*
X147929095Y-82736264D01*
X147976714Y-82783882D01*
X147984380Y-82790174D01*
X147986113Y-82792172D01*
X147989121Y-82794065D01*
X147991867Y-82796319D01*
X147994307Y-82797329D01*
X148002704Y-82802615D01*
X148097941Y-82850234D01*
X148116250Y-82857240D01*
X148119833Y-82857494D01*
X148123154Y-82858870D01*
X148142663Y-82860791D01*
X148423615Y-82860791D01*
X148423615Y-83236982D01*
X148425536Y-83256491D01*
X148440468Y-83292539D01*
X148468058Y-83320129D01*
X148504106Y-83335061D01*
X148543124Y-83335061D01*
X148579172Y-83320129D01*
X148606762Y-83292539D01*
X148621694Y-83256491D01*
X148623615Y-83236982D01*
X148623615Y-82808410D01*
X148852187Y-82808410D01*
X148852187Y-83141743D01*
X148854108Y-83161252D01*
X148855592Y-83164834D01*
X148869039Y-83197300D01*
X148881476Y-83212453D01*
X148929094Y-83260073D01*
X148944248Y-83272510D01*
X148947567Y-83273885D01*
X148950283Y-83276240D01*
X148968183Y-83284231D01*
X149111040Y-83331850D01*
X149120712Y-83334049D01*
X149123154Y-83335061D01*
X149126691Y-83335409D01*
X149130155Y-83336197D01*
X149132789Y-83336009D01*
X149142663Y-83336982D01*
X149237901Y-83336982D01*
X149247774Y-83336009D01*
X149250408Y-83336197D01*
X149253871Y-83335409D01*
X149257410Y-83335061D01*
X149259852Y-83334049D01*
X149269524Y-83331850D01*
X149412380Y-83284231D01*
X149430281Y-83276240D01*
X149432996Y-83273885D01*
X149436316Y-83272510D01*
X149451469Y-83260073D01*
X149546707Y-83164834D01*
X149552999Y-83157167D01*
X149554996Y-83155436D01*
X149556889Y-83152428D01*
X149559144Y-83149681D01*
X149560155Y-83147239D01*
X149565439Y-83138845D01*
X149613058Y-83043608D01*
X149613604Y-83042179D01*
X149614034Y-83041600D01*
X149616955Y-83033423D01*
X149620064Y-83025299D01*
X149620115Y-83024578D01*
X149620629Y-83023140D01*
X149668248Y-82832664D01*
X149668748Y-82829282D01*
X149669313Y-82827919D01*
X149670036Y-82820568D01*
X149671116Y-82813271D01*
X149670898Y-82811812D01*
X149671234Y-82808410D01*
X149671234Y-82665553D01*
X149670898Y-82662150D01*
X149671116Y-82660692D01*
X149670036Y-82653394D01*
X149669313Y-82646044D01*
X149668748Y-82644680D01*
X149668248Y-82641299D01*
X149620629Y-82450823D01*
X149620115Y-82449384D01*
X149620064Y-82448664D01*
X149616955Y-82440539D01*
X149614034Y-82432363D01*
X149613604Y-82431783D01*
X149613058Y-82430355D01*
X149565439Y-82335118D01*
X149560152Y-82326719D01*
X149559143Y-82324282D01*
X149556891Y-82321538D01*
X149554996Y-82318527D01*
X149552998Y-82316794D01*
X149546707Y-82309128D01*
X149451469Y-82213890D01*
X149436315Y-82201454D01*
X149432996Y-82200079D01*
X149430281Y-82197724D01*
X149412380Y-82189733D01*
X149269524Y-82142114D01*
X149259852Y-82139914D01*
X149257410Y-82138903D01*
X149253871Y-82138554D01*
X149250408Y-82137767D01*
X149247774Y-82137954D01*
X149237901Y-82136982D01*
X149095044Y-82136982D01*
X149075535Y-82138903D01*
X149072214Y-82140278D01*
X149068631Y-82140533D01*
X149050322Y-82147539D01*
X148955085Y-82195158D01*
X148938494Y-82205601D01*
X148912930Y-82235078D01*
X148900591Y-82272094D01*
X148903357Y-82311014D01*
X148920806Y-82345913D01*
X148950283Y-82371477D01*
X148987299Y-82383816D01*
X149026219Y-82381050D01*
X149044527Y-82374044D01*
X149118651Y-82336982D01*
X149221674Y-82336982D01*
X149326738Y-82372003D01*
X149393811Y-82439076D01*
X149429263Y-82509981D01*
X149471234Y-82677862D01*
X149471234Y-82796100D01*
X149429263Y-82963981D01*
X149393810Y-83034887D01*
X149326739Y-83101960D01*
X149221674Y-83136982D01*
X149158889Y-83136982D01*
X149053824Y-83101960D01*
X149052187Y-83100322D01*
X149052187Y-82908410D01*
X149142663Y-82908410D01*
X149162172Y-82906489D01*
X149198220Y-82891557D01*
X149225810Y-82863967D01*
X149240742Y-82827919D01*
X149240742Y-82788901D01*
X149225810Y-82752853D01*
X149198220Y-82725263D01*
X149162172Y-82710331D01*
X149142663Y-82708410D01*
X148952187Y-82708410D01*
X148932678Y-82710331D01*
X148896630Y-82725263D01*
X148869040Y-82752853D01*
X148854108Y-82788901D01*
X148852187Y-82808410D01*
X148623615Y-82808410D01*
X148623615Y-82236982D01*
X148621694Y-82217473D01*
X148606762Y-82181425D01*
X148579172Y-82153835D01*
X148543124Y-82138903D01*
X148523615Y-82136982D01*
X148142663Y-82136982D01*
X148123154Y-82138903D01*
X148119833Y-82140278D01*
X148116250Y-82140533D01*
X148097941Y-82147539D01*
X148002704Y-82195158D01*
X147994307Y-82200443D01*
X147991867Y-82201454D01*
X147989121Y-82203707D01*
X147986113Y-82205601D01*
X147984380Y-82207598D01*
X147976714Y-82213891D01*
X147929095Y-82261509D01*
X147922800Y-82269179D01*
X147920806Y-82270909D01*
X147918912Y-82273916D01*
X147916659Y-82276663D01*
X147915648Y-82279102D01*
X147910363Y-82287499D01*
X147862744Y-82382737D01*
X147855738Y-82401045D01*
X147855483Y-82404628D01*
X147854108Y-82407949D01*
X147852187Y-82427458D01*
X147623615Y-82427458D01*
X147623615Y-82236982D01*
X147621694Y-82217473D01*
X147606762Y-82181425D01*
X147579172Y-82153835D01*
X147543124Y-82138903D01*
X147504106Y-82138903D01*
X147468058Y-82153835D01*
X147440468Y-82181425D01*
X147425536Y-82217473D01*
X147423615Y-82236982D01*
X147045990Y-82236982D01*
X147022898Y-82213890D01*
X147015227Y-82207595D01*
X147013498Y-82205601D01*
X147010490Y-82203707D01*
X147007744Y-82201454D01*
X147005304Y-82200443D01*
X146996908Y-82195158D01*
X146901670Y-82147539D01*
X146883362Y-82140533D01*
X146879778Y-82140278D01*
X146876458Y-82138903D01*
X146856949Y-82136982D01*
X146666473Y-82136982D01*
X146646964Y-82138903D01*
X146643643Y-82140278D01*
X146640060Y-82140533D01*
X146621751Y-82147539D01*
X146526514Y-82195158D01*
X146518115Y-82200444D01*
X146515678Y-82201454D01*
X146512934Y-82203705D01*
X146509923Y-82205601D01*
X146508190Y-82207598D01*
X146500524Y-82213890D01*
X146405286Y-82309128D01*
X146392850Y-82324282D01*
X146390004Y-82331150D01*
X146385578Y-82337125D01*
X146378983Y-82355586D01*
X146331364Y-82546061D01*
X146330863Y-82549442D01*
X146330299Y-82550806D01*
X146329575Y-82558156D01*
X146328496Y-82565454D01*
X146328713Y-82566912D01*
X146328378Y-82570315D01*
X145263945Y-82570315D01*
X145142293Y-82205359D01*
X145134302Y-82187459D01*
X145129617Y-82182057D01*
X145126424Y-82175671D01*
X145116955Y-82167458D01*
X145108737Y-82157983D01*
X145102345Y-82154786D01*
X145096948Y-82150106D01*
X145085054Y-82146141D01*
X145073838Y-82140533D01*
X145066710Y-82140026D01*
X145059932Y-82137767D01*
X145047427Y-82138656D01*
X145034918Y-82137767D01*
X145028136Y-82140027D01*
X145021012Y-82140534D01*
X145009803Y-82146137D01*
X144997902Y-82150105D01*
X144992501Y-82154788D01*
X144986113Y-82157983D01*
X144977897Y-82167454D01*
X144968426Y-82175670D01*
X144965231Y-82182059D01*
X144960548Y-82187459D01*
X144952557Y-82205360D01*
X144619224Y-83205359D01*
X144614877Y-83224475D01*
X144503766Y-83224475D01*
X144503766Y-82025871D01*
X149782345Y-82025871D01*
X149782345Y-83448093D01*
G37*
D12*
X116060967Y-95021428D02*
X115460967Y-95021428D01*
X115460967Y-95021428D02*
X115460967Y-95164285D01*
X115460967Y-95164285D02*
X115489538Y-95249999D01*
X115489538Y-95249999D02*
X115546681Y-95307142D01*
X115546681Y-95307142D02*
X115603824Y-95335713D01*
X115603824Y-95335713D02*
X115718110Y-95364285D01*
X115718110Y-95364285D02*
X115803824Y-95364285D01*
X115803824Y-95364285D02*
X115918110Y-95335713D01*
X115918110Y-95335713D02*
X115975253Y-95307142D01*
X115975253Y-95307142D02*
X116032396Y-95249999D01*
X116032396Y-95249999D02*
X116060967Y-95164285D01*
X116060967Y-95164285D02*
X116060967Y-95021428D01*
X115518110Y-95592856D02*
X115489538Y-95621428D01*
X115489538Y-95621428D02*
X115460967Y-95678571D01*
X115460967Y-95678571D02*
X115460967Y-95821428D01*
X115460967Y-95821428D02*
X115489538Y-95878571D01*
X115489538Y-95878571D02*
X115518110Y-95907142D01*
X115518110Y-95907142D02*
X115575253Y-95935713D01*
X115575253Y-95935713D02*
X115632396Y-95935713D01*
X115632396Y-95935713D02*
X115718110Y-95907142D01*
X115718110Y-95907142D02*
X116060967Y-95564285D01*
X116060967Y-95564285D02*
X116060967Y-95935713D01*
X116060967Y-96507142D02*
X116060967Y-96164285D01*
X116060967Y-96335714D02*
X115460967Y-96335714D01*
X115460967Y-96335714D02*
X115546681Y-96278571D01*
X115546681Y-96278571D02*
X115603824Y-96221428D01*
X115603824Y-96221428D02*
X115632396Y-96164285D01*
X123020967Y-95021428D02*
X122420967Y-95021428D01*
X122420967Y-95021428D02*
X122420967Y-95164285D01*
X122420967Y-95164285D02*
X122449538Y-95249999D01*
X122449538Y-95249999D02*
X122506681Y-95307142D01*
X122506681Y-95307142D02*
X122563824Y-95335713D01*
X122563824Y-95335713D02*
X122678110Y-95364285D01*
X122678110Y-95364285D02*
X122763824Y-95364285D01*
X122763824Y-95364285D02*
X122878110Y-95335713D01*
X122878110Y-95335713D02*
X122935253Y-95307142D01*
X122935253Y-95307142D02*
X122992396Y-95249999D01*
X122992396Y-95249999D02*
X123020967Y-95164285D01*
X123020967Y-95164285D02*
X123020967Y-95021428D01*
X122478110Y-95592856D02*
X122449538Y-95621428D01*
X122449538Y-95621428D02*
X122420967Y-95678571D01*
X122420967Y-95678571D02*
X122420967Y-95821428D01*
X122420967Y-95821428D02*
X122449538Y-95878571D01*
X122449538Y-95878571D02*
X122478110Y-95907142D01*
X122478110Y-95907142D02*
X122535253Y-95935713D01*
X122535253Y-95935713D02*
X122592396Y-95935713D01*
X122592396Y-95935713D02*
X122678110Y-95907142D01*
X122678110Y-95907142D02*
X123020967Y-95564285D01*
X123020967Y-95564285D02*
X123020967Y-95935713D01*
X122678110Y-96278571D02*
X122649538Y-96221428D01*
X122649538Y-96221428D02*
X122620967Y-96192857D01*
X122620967Y-96192857D02*
X122563824Y-96164285D01*
X122563824Y-96164285D02*
X122535253Y-96164285D01*
X122535253Y-96164285D02*
X122478110Y-96192857D01*
X122478110Y-96192857D02*
X122449538Y-96221428D01*
X122449538Y-96221428D02*
X122420967Y-96278571D01*
X122420967Y-96278571D02*
X122420967Y-96392857D01*
X122420967Y-96392857D02*
X122449538Y-96450000D01*
X122449538Y-96450000D02*
X122478110Y-96478571D01*
X122478110Y-96478571D02*
X122535253Y-96507142D01*
X122535253Y-96507142D02*
X122563824Y-96507142D01*
X122563824Y-96507142D02*
X122620967Y-96478571D01*
X122620967Y-96478571D02*
X122649538Y-96450000D01*
X122649538Y-96450000D02*
X122678110Y-96392857D01*
X122678110Y-96392857D02*
X122678110Y-96278571D01*
X122678110Y-96278571D02*
X122706681Y-96221428D01*
X122706681Y-96221428D02*
X122735253Y-96192857D01*
X122735253Y-96192857D02*
X122792396Y-96164285D01*
X122792396Y-96164285D02*
X122906681Y-96164285D01*
X122906681Y-96164285D02*
X122963824Y-96192857D01*
X122963824Y-96192857D02*
X122992396Y-96221428D01*
X122992396Y-96221428D02*
X123020967Y-96278571D01*
X123020967Y-96278571D02*
X123020967Y-96392857D01*
X123020967Y-96392857D02*
X122992396Y-96450000D01*
X122992396Y-96450000D02*
X122963824Y-96478571D01*
X122963824Y-96478571D02*
X122906681Y-96507142D01*
X122906681Y-96507142D02*
X122792396Y-96507142D01*
X122792396Y-96507142D02*
X122735253Y-96478571D01*
X122735253Y-96478571D02*
X122706681Y-96450000D01*
X122706681Y-96450000D02*
X122678110Y-96392857D01*
X121020967Y-97364285D02*
X120735253Y-97164285D01*
X121020967Y-97021428D02*
X120420967Y-97021428D01*
X120420967Y-97021428D02*
X120420967Y-97249999D01*
X120420967Y-97249999D02*
X120449538Y-97307142D01*
X120449538Y-97307142D02*
X120478110Y-97335713D01*
X120478110Y-97335713D02*
X120535253Y-97364285D01*
X120535253Y-97364285D02*
X120620967Y-97364285D01*
X120620967Y-97364285D02*
X120678110Y-97335713D01*
X120678110Y-97335713D02*
X120706681Y-97307142D01*
X120706681Y-97307142D02*
X120735253Y-97249999D01*
X120735253Y-97249999D02*
X120735253Y-97021428D01*
X120420967Y-97564285D02*
X120420967Y-97935713D01*
X120420967Y-97935713D02*
X120649538Y-97735713D01*
X120649538Y-97735713D02*
X120649538Y-97821428D01*
X120649538Y-97821428D02*
X120678110Y-97878571D01*
X120678110Y-97878571D02*
X120706681Y-97907142D01*
X120706681Y-97907142D02*
X120763824Y-97935713D01*
X120763824Y-97935713D02*
X120906681Y-97935713D01*
X120906681Y-97935713D02*
X120963824Y-97907142D01*
X120963824Y-97907142D02*
X120992396Y-97878571D01*
X120992396Y-97878571D02*
X121020967Y-97821428D01*
X121020967Y-97821428D02*
X121020967Y-97649999D01*
X121020967Y-97649999D02*
X120992396Y-97592856D01*
X120992396Y-97592856D02*
X120963824Y-97564285D01*
X120620967Y-98450000D02*
X121020967Y-98450000D01*
X120392396Y-98307142D02*
X120820967Y-98164285D01*
X120820967Y-98164285D02*
X120820967Y-98535714D01*
X122020967Y-95021428D02*
X121420967Y-95021428D01*
X121420967Y-95021428D02*
X121420967Y-95164285D01*
X121420967Y-95164285D02*
X121449538Y-95249999D01*
X121449538Y-95249999D02*
X121506681Y-95307142D01*
X121506681Y-95307142D02*
X121563824Y-95335713D01*
X121563824Y-95335713D02*
X121678110Y-95364285D01*
X121678110Y-95364285D02*
X121763824Y-95364285D01*
X121763824Y-95364285D02*
X121878110Y-95335713D01*
X121878110Y-95335713D02*
X121935253Y-95307142D01*
X121935253Y-95307142D02*
X121992396Y-95249999D01*
X121992396Y-95249999D02*
X122020967Y-95164285D01*
X122020967Y-95164285D02*
X122020967Y-95021428D01*
X121478110Y-95592856D02*
X121449538Y-95621428D01*
X121449538Y-95621428D02*
X121420967Y-95678571D01*
X121420967Y-95678571D02*
X121420967Y-95821428D01*
X121420967Y-95821428D02*
X121449538Y-95878571D01*
X121449538Y-95878571D02*
X121478110Y-95907142D01*
X121478110Y-95907142D02*
X121535253Y-95935713D01*
X121535253Y-95935713D02*
X121592396Y-95935713D01*
X121592396Y-95935713D02*
X121678110Y-95907142D01*
X121678110Y-95907142D02*
X122020967Y-95564285D01*
X122020967Y-95564285D02*
X122020967Y-95935713D01*
X121420967Y-96135714D02*
X121420967Y-96535714D01*
X121420967Y-96535714D02*
X122020967Y-96278571D01*
X120020967Y-95021428D02*
X119420967Y-95021428D01*
X119420967Y-95021428D02*
X119420967Y-95164285D01*
X119420967Y-95164285D02*
X119449538Y-95249999D01*
X119449538Y-95249999D02*
X119506681Y-95307142D01*
X119506681Y-95307142D02*
X119563824Y-95335713D01*
X119563824Y-95335713D02*
X119678110Y-95364285D01*
X119678110Y-95364285D02*
X119763824Y-95364285D01*
X119763824Y-95364285D02*
X119878110Y-95335713D01*
X119878110Y-95335713D02*
X119935253Y-95307142D01*
X119935253Y-95307142D02*
X119992396Y-95249999D01*
X119992396Y-95249999D02*
X120020967Y-95164285D01*
X120020967Y-95164285D02*
X120020967Y-95021428D01*
X119478110Y-95592856D02*
X119449538Y-95621428D01*
X119449538Y-95621428D02*
X119420967Y-95678571D01*
X119420967Y-95678571D02*
X119420967Y-95821428D01*
X119420967Y-95821428D02*
X119449538Y-95878571D01*
X119449538Y-95878571D02*
X119478110Y-95907142D01*
X119478110Y-95907142D02*
X119535253Y-95935713D01*
X119535253Y-95935713D02*
X119592396Y-95935713D01*
X119592396Y-95935713D02*
X119678110Y-95907142D01*
X119678110Y-95907142D02*
X120020967Y-95564285D01*
X120020967Y-95564285D02*
X120020967Y-95935713D01*
X119420967Y-96478571D02*
X119420967Y-96192857D01*
X119420967Y-96192857D02*
X119706681Y-96164285D01*
X119706681Y-96164285D02*
X119678110Y-96192857D01*
X119678110Y-96192857D02*
X119649538Y-96250000D01*
X119649538Y-96250000D02*
X119649538Y-96392857D01*
X119649538Y-96392857D02*
X119678110Y-96450000D01*
X119678110Y-96450000D02*
X119706681Y-96478571D01*
X119706681Y-96478571D02*
X119763824Y-96507142D01*
X119763824Y-96507142D02*
X119906681Y-96507142D01*
X119906681Y-96507142D02*
X119963824Y-96478571D01*
X119963824Y-96478571D02*
X119992396Y-96450000D01*
X119992396Y-96450000D02*
X120020967Y-96392857D01*
X120020967Y-96392857D02*
X120020967Y-96250000D01*
X120020967Y-96250000D02*
X119992396Y-96192857D01*
X119992396Y-96192857D02*
X119963824Y-96164285D01*
X153770967Y-95021428D02*
X153170967Y-95021428D01*
X153170967Y-95021428D02*
X153170967Y-95164285D01*
X153170967Y-95164285D02*
X153199538Y-95249999D01*
X153199538Y-95249999D02*
X153256681Y-95307142D01*
X153256681Y-95307142D02*
X153313824Y-95335713D01*
X153313824Y-95335713D02*
X153428110Y-95364285D01*
X153428110Y-95364285D02*
X153513824Y-95364285D01*
X153513824Y-95364285D02*
X153628110Y-95335713D01*
X153628110Y-95335713D02*
X153685253Y-95307142D01*
X153685253Y-95307142D02*
X153742396Y-95249999D01*
X153742396Y-95249999D02*
X153770967Y-95164285D01*
X153770967Y-95164285D02*
X153770967Y-95021428D01*
X153770967Y-95935713D02*
X153770967Y-95592856D01*
X153770967Y-95764285D02*
X153170967Y-95764285D01*
X153170967Y-95764285D02*
X153256681Y-95707142D01*
X153256681Y-95707142D02*
X153313824Y-95649999D01*
X153313824Y-95649999D02*
X153342396Y-95592856D01*
X153170967Y-96135714D02*
X153170967Y-96535714D01*
X153170967Y-96535714D02*
X153770967Y-96278571D01*
X150770967Y-95021428D02*
X150170967Y-95021428D01*
X150170967Y-95021428D02*
X150170967Y-95164285D01*
X150170967Y-95164285D02*
X150199538Y-95249999D01*
X150199538Y-95249999D02*
X150256681Y-95307142D01*
X150256681Y-95307142D02*
X150313824Y-95335713D01*
X150313824Y-95335713D02*
X150428110Y-95364285D01*
X150428110Y-95364285D02*
X150513824Y-95364285D01*
X150513824Y-95364285D02*
X150628110Y-95335713D01*
X150628110Y-95335713D02*
X150685253Y-95307142D01*
X150685253Y-95307142D02*
X150742396Y-95249999D01*
X150742396Y-95249999D02*
X150770967Y-95164285D01*
X150770967Y-95164285D02*
X150770967Y-95021428D01*
X150228110Y-95592856D02*
X150199538Y-95621428D01*
X150199538Y-95621428D02*
X150170967Y-95678571D01*
X150170967Y-95678571D02*
X150170967Y-95821428D01*
X150170967Y-95821428D02*
X150199538Y-95878571D01*
X150199538Y-95878571D02*
X150228110Y-95907142D01*
X150228110Y-95907142D02*
X150285253Y-95935713D01*
X150285253Y-95935713D02*
X150342396Y-95935713D01*
X150342396Y-95935713D02*
X150428110Y-95907142D01*
X150428110Y-95907142D02*
X150770967Y-95564285D01*
X150770967Y-95564285D02*
X150770967Y-95935713D01*
X150170967Y-96307142D02*
X150170967Y-96364285D01*
X150170967Y-96364285D02*
X150199538Y-96421428D01*
X150199538Y-96421428D02*
X150228110Y-96450000D01*
X150228110Y-96450000D02*
X150285253Y-96478571D01*
X150285253Y-96478571D02*
X150399538Y-96507142D01*
X150399538Y-96507142D02*
X150542396Y-96507142D01*
X150542396Y-96507142D02*
X150656681Y-96478571D01*
X150656681Y-96478571D02*
X150713824Y-96450000D01*
X150713824Y-96450000D02*
X150742396Y-96421428D01*
X150742396Y-96421428D02*
X150770967Y-96364285D01*
X150770967Y-96364285D02*
X150770967Y-96307142D01*
X150770967Y-96307142D02*
X150742396Y-96250000D01*
X150742396Y-96250000D02*
X150713824Y-96221428D01*
X150713824Y-96221428D02*
X150656681Y-96192857D01*
X150656681Y-96192857D02*
X150542396Y-96164285D01*
X150542396Y-96164285D02*
X150399538Y-96164285D01*
X150399538Y-96164285D02*
X150285253Y-96192857D01*
X150285253Y-96192857D02*
X150228110Y-96221428D01*
X150228110Y-96221428D02*
X150199538Y-96250000D01*
X150199538Y-96250000D02*
X150170967Y-96307142D01*
X157463824Y-118400000D02*
X157492396Y-118371428D01*
X157492396Y-118371428D02*
X157520967Y-118285714D01*
X157520967Y-118285714D02*
X157520967Y-118228571D01*
X157520967Y-118228571D02*
X157492396Y-118142857D01*
X157492396Y-118142857D02*
X157435253Y-118085714D01*
X157435253Y-118085714D02*
X157378110Y-118057143D01*
X157378110Y-118057143D02*
X157263824Y-118028571D01*
X157263824Y-118028571D02*
X157178110Y-118028571D01*
X157178110Y-118028571D02*
X157063824Y-118057143D01*
X157063824Y-118057143D02*
X157006681Y-118085714D01*
X157006681Y-118085714D02*
X156949538Y-118142857D01*
X156949538Y-118142857D02*
X156920967Y-118228571D01*
X156920967Y-118228571D02*
X156920967Y-118285714D01*
X156920967Y-118285714D02*
X156949538Y-118371428D01*
X156949538Y-118371428D02*
X156978110Y-118400000D01*
X157120967Y-118914286D02*
X157520967Y-118914286D01*
X156892396Y-118771428D02*
X157320967Y-118628571D01*
X157320967Y-118628571D02*
X157320967Y-119000000D01*
X150770967Y-97364285D02*
X150485253Y-97164285D01*
X150770967Y-97021428D02*
X150170967Y-97021428D01*
X150170967Y-97021428D02*
X150170967Y-97249999D01*
X150170967Y-97249999D02*
X150199538Y-97307142D01*
X150199538Y-97307142D02*
X150228110Y-97335713D01*
X150228110Y-97335713D02*
X150285253Y-97364285D01*
X150285253Y-97364285D02*
X150370967Y-97364285D01*
X150370967Y-97364285D02*
X150428110Y-97335713D01*
X150428110Y-97335713D02*
X150456681Y-97307142D01*
X150456681Y-97307142D02*
X150485253Y-97249999D01*
X150485253Y-97249999D02*
X150485253Y-97021428D01*
X150228110Y-97592856D02*
X150199538Y-97621428D01*
X150199538Y-97621428D02*
X150170967Y-97678571D01*
X150170967Y-97678571D02*
X150170967Y-97821428D01*
X150170967Y-97821428D02*
X150199538Y-97878571D01*
X150199538Y-97878571D02*
X150228110Y-97907142D01*
X150228110Y-97907142D02*
X150285253Y-97935713D01*
X150285253Y-97935713D02*
X150342396Y-97935713D01*
X150342396Y-97935713D02*
X150428110Y-97907142D01*
X150428110Y-97907142D02*
X150770967Y-97564285D01*
X150770967Y-97564285D02*
X150770967Y-97935713D01*
X150370967Y-98450000D02*
X150770967Y-98450000D01*
X150142396Y-98307142D02*
X150570967Y-98164285D01*
X150570967Y-98164285D02*
X150570967Y-98535714D01*
X116020967Y-97364285D02*
X115735253Y-97164285D01*
X116020967Y-97021428D02*
X115420967Y-97021428D01*
X115420967Y-97021428D02*
X115420967Y-97249999D01*
X115420967Y-97249999D02*
X115449538Y-97307142D01*
X115449538Y-97307142D02*
X115478110Y-97335713D01*
X115478110Y-97335713D02*
X115535253Y-97364285D01*
X115535253Y-97364285D02*
X115620967Y-97364285D01*
X115620967Y-97364285D02*
X115678110Y-97335713D01*
X115678110Y-97335713D02*
X115706681Y-97307142D01*
X115706681Y-97307142D02*
X115735253Y-97249999D01*
X115735253Y-97249999D02*
X115735253Y-97021428D01*
X115478110Y-97592856D02*
X115449538Y-97621428D01*
X115449538Y-97621428D02*
X115420967Y-97678571D01*
X115420967Y-97678571D02*
X115420967Y-97821428D01*
X115420967Y-97821428D02*
X115449538Y-97878571D01*
X115449538Y-97878571D02*
X115478110Y-97907142D01*
X115478110Y-97907142D02*
X115535253Y-97935713D01*
X115535253Y-97935713D02*
X115592396Y-97935713D01*
X115592396Y-97935713D02*
X115678110Y-97907142D01*
X115678110Y-97907142D02*
X116020967Y-97564285D01*
X116020967Y-97564285D02*
X116020967Y-97935713D01*
X115420967Y-98478571D02*
X115420967Y-98192857D01*
X115420967Y-98192857D02*
X115706681Y-98164285D01*
X115706681Y-98164285D02*
X115678110Y-98192857D01*
X115678110Y-98192857D02*
X115649538Y-98250000D01*
X115649538Y-98250000D02*
X115649538Y-98392857D01*
X115649538Y-98392857D02*
X115678110Y-98450000D01*
X115678110Y-98450000D02*
X115706681Y-98478571D01*
X115706681Y-98478571D02*
X115763824Y-98507142D01*
X115763824Y-98507142D02*
X115906681Y-98507142D01*
X115906681Y-98507142D02*
X115963824Y-98478571D01*
X115963824Y-98478571D02*
X115992396Y-98450000D01*
X115992396Y-98450000D02*
X116020967Y-98392857D01*
X116020967Y-98392857D02*
X116020967Y-98250000D01*
X116020967Y-98250000D02*
X115992396Y-98192857D01*
X115992396Y-98192857D02*
X115963824Y-98164285D01*
X154770967Y-97364285D02*
X154485253Y-97164285D01*
X154770967Y-97021428D02*
X154170967Y-97021428D01*
X154170967Y-97021428D02*
X154170967Y-97249999D01*
X154170967Y-97249999D02*
X154199538Y-97307142D01*
X154199538Y-97307142D02*
X154228110Y-97335713D01*
X154228110Y-97335713D02*
X154285253Y-97364285D01*
X154285253Y-97364285D02*
X154370967Y-97364285D01*
X154370967Y-97364285D02*
X154428110Y-97335713D01*
X154428110Y-97335713D02*
X154456681Y-97307142D01*
X154456681Y-97307142D02*
X154485253Y-97249999D01*
X154485253Y-97249999D02*
X154485253Y-97021428D01*
X154770967Y-97935713D02*
X154770967Y-97592856D01*
X154770967Y-97764285D02*
X154170967Y-97764285D01*
X154170967Y-97764285D02*
X154256681Y-97707142D01*
X154256681Y-97707142D02*
X154313824Y-97649999D01*
X154313824Y-97649999D02*
X154342396Y-97592856D01*
X154770967Y-98221428D02*
X154770967Y-98335714D01*
X154770967Y-98335714D02*
X154742396Y-98392857D01*
X154742396Y-98392857D02*
X154713824Y-98421428D01*
X154713824Y-98421428D02*
X154628110Y-98478571D01*
X154628110Y-98478571D02*
X154513824Y-98507142D01*
X154513824Y-98507142D02*
X154285253Y-98507142D01*
X154285253Y-98507142D02*
X154228110Y-98478571D01*
X154228110Y-98478571D02*
X154199538Y-98450000D01*
X154199538Y-98450000D02*
X154170967Y-98392857D01*
X154170967Y-98392857D02*
X154170967Y-98278571D01*
X154170967Y-98278571D02*
X154199538Y-98221428D01*
X154199538Y-98221428D02*
X154228110Y-98192857D01*
X154228110Y-98192857D02*
X154285253Y-98164285D01*
X154285253Y-98164285D02*
X154428110Y-98164285D01*
X154428110Y-98164285D02*
X154485253Y-98192857D01*
X154485253Y-98192857D02*
X154513824Y-98221428D01*
X154513824Y-98221428D02*
X154542396Y-98278571D01*
X154542396Y-98278571D02*
X154542396Y-98392857D01*
X154542396Y-98392857D02*
X154513824Y-98450000D01*
X154513824Y-98450000D02*
X154485253Y-98478571D01*
X154485253Y-98478571D02*
X154428110Y-98507142D01*
X156770967Y-97364285D02*
X156485253Y-97164285D01*
X156770967Y-97021428D02*
X156170967Y-97021428D01*
X156170967Y-97021428D02*
X156170967Y-97249999D01*
X156170967Y-97249999D02*
X156199538Y-97307142D01*
X156199538Y-97307142D02*
X156228110Y-97335713D01*
X156228110Y-97335713D02*
X156285253Y-97364285D01*
X156285253Y-97364285D02*
X156370967Y-97364285D01*
X156370967Y-97364285D02*
X156428110Y-97335713D01*
X156428110Y-97335713D02*
X156456681Y-97307142D01*
X156456681Y-97307142D02*
X156485253Y-97249999D01*
X156485253Y-97249999D02*
X156485253Y-97021428D01*
X156770967Y-97935713D02*
X156770967Y-97592856D01*
X156770967Y-97764285D02*
X156170967Y-97764285D01*
X156170967Y-97764285D02*
X156256681Y-97707142D01*
X156256681Y-97707142D02*
X156313824Y-97649999D01*
X156313824Y-97649999D02*
X156342396Y-97592856D01*
X156170967Y-98450000D02*
X156170967Y-98335714D01*
X156170967Y-98335714D02*
X156199538Y-98278571D01*
X156199538Y-98278571D02*
X156228110Y-98250000D01*
X156228110Y-98250000D02*
X156313824Y-98192857D01*
X156313824Y-98192857D02*
X156428110Y-98164285D01*
X156428110Y-98164285D02*
X156656681Y-98164285D01*
X156656681Y-98164285D02*
X156713824Y-98192857D01*
X156713824Y-98192857D02*
X156742396Y-98221428D01*
X156742396Y-98221428D02*
X156770967Y-98278571D01*
X156770967Y-98278571D02*
X156770967Y-98392857D01*
X156770967Y-98392857D02*
X156742396Y-98450000D01*
X156742396Y-98450000D02*
X156713824Y-98478571D01*
X156713824Y-98478571D02*
X156656681Y-98507142D01*
X156656681Y-98507142D02*
X156513824Y-98507142D01*
X156513824Y-98507142D02*
X156456681Y-98478571D01*
X156456681Y-98478571D02*
X156428110Y-98450000D01*
X156428110Y-98450000D02*
X156399538Y-98392857D01*
X156399538Y-98392857D02*
X156399538Y-98278571D01*
X156399538Y-98278571D02*
X156428110Y-98221428D01*
X156428110Y-98221428D02*
X156456681Y-98192857D01*
X156456681Y-98192857D02*
X156513824Y-98164285D01*
X161213824Y-116639285D02*
X161242396Y-116610713D01*
X161242396Y-116610713D02*
X161270967Y-116524999D01*
X161270967Y-116524999D02*
X161270967Y-116467856D01*
X161270967Y-116467856D02*
X161242396Y-116382142D01*
X161242396Y-116382142D02*
X161185253Y-116324999D01*
X161185253Y-116324999D02*
X161128110Y-116296428D01*
X161128110Y-116296428D02*
X161013824Y-116267856D01*
X161013824Y-116267856D02*
X160928110Y-116267856D01*
X160928110Y-116267856D02*
X160813824Y-116296428D01*
X160813824Y-116296428D02*
X160756681Y-116324999D01*
X160756681Y-116324999D02*
X160699538Y-116382142D01*
X160699538Y-116382142D02*
X160670967Y-116467856D01*
X160670967Y-116467856D02*
X160670967Y-116524999D01*
X160670967Y-116524999D02*
X160699538Y-116610713D01*
X160699538Y-116610713D02*
X160728110Y-116639285D01*
X161270967Y-117210713D02*
X161270967Y-116867856D01*
X161270967Y-117039285D02*
X160670967Y-117039285D01*
X160670967Y-117039285D02*
X160756681Y-116982142D01*
X160756681Y-116982142D02*
X160813824Y-116924999D01*
X160813824Y-116924999D02*
X160842396Y-116867856D01*
X160670967Y-117410714D02*
X160670967Y-117782142D01*
X160670967Y-117782142D02*
X160899538Y-117582142D01*
X160899538Y-117582142D02*
X160899538Y-117667857D01*
X160899538Y-117667857D02*
X160928110Y-117725000D01*
X160928110Y-117725000D02*
X160956681Y-117753571D01*
X160956681Y-117753571D02*
X161013824Y-117782142D01*
X161013824Y-117782142D02*
X161156681Y-117782142D01*
X161156681Y-117782142D02*
X161213824Y-117753571D01*
X161213824Y-117753571D02*
X161242396Y-117725000D01*
X161242396Y-117725000D02*
X161270967Y-117667857D01*
X161270967Y-117667857D02*
X161270967Y-117496428D01*
X161270967Y-117496428D02*
X161242396Y-117439285D01*
X161242396Y-117439285D02*
X161213824Y-117410714D01*
X154770967Y-95021428D02*
X154170967Y-95021428D01*
X154170967Y-95021428D02*
X154170967Y-95164285D01*
X154170967Y-95164285D02*
X154199538Y-95249999D01*
X154199538Y-95249999D02*
X154256681Y-95307142D01*
X154256681Y-95307142D02*
X154313824Y-95335713D01*
X154313824Y-95335713D02*
X154428110Y-95364285D01*
X154428110Y-95364285D02*
X154513824Y-95364285D01*
X154513824Y-95364285D02*
X154628110Y-95335713D01*
X154628110Y-95335713D02*
X154685253Y-95307142D01*
X154685253Y-95307142D02*
X154742396Y-95249999D01*
X154742396Y-95249999D02*
X154770967Y-95164285D01*
X154770967Y-95164285D02*
X154770967Y-95021428D01*
X154770967Y-95935713D02*
X154770967Y-95592856D01*
X154770967Y-95764285D02*
X154170967Y-95764285D01*
X154170967Y-95764285D02*
X154256681Y-95707142D01*
X154256681Y-95707142D02*
X154313824Y-95649999D01*
X154313824Y-95649999D02*
X154342396Y-95592856D01*
X154170967Y-96450000D02*
X154170967Y-96335714D01*
X154170967Y-96335714D02*
X154199538Y-96278571D01*
X154199538Y-96278571D02*
X154228110Y-96250000D01*
X154228110Y-96250000D02*
X154313824Y-96192857D01*
X154313824Y-96192857D02*
X154428110Y-96164285D01*
X154428110Y-96164285D02*
X154656681Y-96164285D01*
X154656681Y-96164285D02*
X154713824Y-96192857D01*
X154713824Y-96192857D02*
X154742396Y-96221428D01*
X154742396Y-96221428D02*
X154770967Y-96278571D01*
X154770967Y-96278571D02*
X154770967Y-96392857D01*
X154770967Y-96392857D02*
X154742396Y-96450000D01*
X154742396Y-96450000D02*
X154713824Y-96478571D01*
X154713824Y-96478571D02*
X154656681Y-96507142D01*
X154656681Y-96507142D02*
X154513824Y-96507142D01*
X154513824Y-96507142D02*
X154456681Y-96478571D01*
X154456681Y-96478571D02*
X154428110Y-96450000D01*
X154428110Y-96450000D02*
X154399538Y-96392857D01*
X154399538Y-96392857D02*
X154399538Y-96278571D01*
X154399538Y-96278571D02*
X154428110Y-96221428D01*
X154428110Y-96221428D02*
X154456681Y-96192857D01*
X154456681Y-96192857D02*
X154513824Y-96164285D01*
X118020967Y-95021428D02*
X117420967Y-95021428D01*
X117420967Y-95021428D02*
X117420967Y-95164285D01*
X117420967Y-95164285D02*
X117449538Y-95249999D01*
X117449538Y-95249999D02*
X117506681Y-95307142D01*
X117506681Y-95307142D02*
X117563824Y-95335713D01*
X117563824Y-95335713D02*
X117678110Y-95364285D01*
X117678110Y-95364285D02*
X117763824Y-95364285D01*
X117763824Y-95364285D02*
X117878110Y-95335713D01*
X117878110Y-95335713D02*
X117935253Y-95307142D01*
X117935253Y-95307142D02*
X117992396Y-95249999D01*
X117992396Y-95249999D02*
X118020967Y-95164285D01*
X118020967Y-95164285D02*
X118020967Y-95021428D01*
X117478110Y-95592856D02*
X117449538Y-95621428D01*
X117449538Y-95621428D02*
X117420967Y-95678571D01*
X117420967Y-95678571D02*
X117420967Y-95821428D01*
X117420967Y-95821428D02*
X117449538Y-95878571D01*
X117449538Y-95878571D02*
X117478110Y-95907142D01*
X117478110Y-95907142D02*
X117535253Y-95935713D01*
X117535253Y-95935713D02*
X117592396Y-95935713D01*
X117592396Y-95935713D02*
X117678110Y-95907142D01*
X117678110Y-95907142D02*
X118020967Y-95564285D01*
X118020967Y-95564285D02*
X118020967Y-95935713D01*
X117420967Y-96135714D02*
X117420967Y-96507142D01*
X117420967Y-96507142D02*
X117649538Y-96307142D01*
X117649538Y-96307142D02*
X117649538Y-96392857D01*
X117649538Y-96392857D02*
X117678110Y-96450000D01*
X117678110Y-96450000D02*
X117706681Y-96478571D01*
X117706681Y-96478571D02*
X117763824Y-96507142D01*
X117763824Y-96507142D02*
X117906681Y-96507142D01*
X117906681Y-96507142D02*
X117963824Y-96478571D01*
X117963824Y-96478571D02*
X117992396Y-96450000D01*
X117992396Y-96450000D02*
X118020967Y-96392857D01*
X118020967Y-96392857D02*
X118020967Y-96221428D01*
X118020967Y-96221428D02*
X117992396Y-96164285D01*
X117992396Y-96164285D02*
X117963824Y-96135714D01*
X118020967Y-97364285D02*
X117735253Y-97164285D01*
X118020967Y-97021428D02*
X117420967Y-97021428D01*
X117420967Y-97021428D02*
X117420967Y-97249999D01*
X117420967Y-97249999D02*
X117449538Y-97307142D01*
X117449538Y-97307142D02*
X117478110Y-97335713D01*
X117478110Y-97335713D02*
X117535253Y-97364285D01*
X117535253Y-97364285D02*
X117620967Y-97364285D01*
X117620967Y-97364285D02*
X117678110Y-97335713D01*
X117678110Y-97335713D02*
X117706681Y-97307142D01*
X117706681Y-97307142D02*
X117735253Y-97249999D01*
X117735253Y-97249999D02*
X117735253Y-97021428D01*
X117478110Y-97592856D02*
X117449538Y-97621428D01*
X117449538Y-97621428D02*
X117420967Y-97678571D01*
X117420967Y-97678571D02*
X117420967Y-97821428D01*
X117420967Y-97821428D02*
X117449538Y-97878571D01*
X117449538Y-97878571D02*
X117478110Y-97907142D01*
X117478110Y-97907142D02*
X117535253Y-97935713D01*
X117535253Y-97935713D02*
X117592396Y-97935713D01*
X117592396Y-97935713D02*
X117678110Y-97907142D01*
X117678110Y-97907142D02*
X118020967Y-97564285D01*
X118020967Y-97564285D02*
X118020967Y-97935713D01*
X118020967Y-98221428D02*
X118020967Y-98335714D01*
X118020967Y-98335714D02*
X117992396Y-98392857D01*
X117992396Y-98392857D02*
X117963824Y-98421428D01*
X117963824Y-98421428D02*
X117878110Y-98478571D01*
X117878110Y-98478571D02*
X117763824Y-98507142D01*
X117763824Y-98507142D02*
X117535253Y-98507142D01*
X117535253Y-98507142D02*
X117478110Y-98478571D01*
X117478110Y-98478571D02*
X117449538Y-98450000D01*
X117449538Y-98450000D02*
X117420967Y-98392857D01*
X117420967Y-98392857D02*
X117420967Y-98278571D01*
X117420967Y-98278571D02*
X117449538Y-98221428D01*
X117449538Y-98221428D02*
X117478110Y-98192857D01*
X117478110Y-98192857D02*
X117535253Y-98164285D01*
X117535253Y-98164285D02*
X117678110Y-98164285D01*
X117678110Y-98164285D02*
X117735253Y-98192857D01*
X117735253Y-98192857D02*
X117763824Y-98221428D01*
X117763824Y-98221428D02*
X117792396Y-98278571D01*
X117792396Y-98278571D02*
X117792396Y-98392857D01*
X117792396Y-98392857D02*
X117763824Y-98450000D01*
X117763824Y-98450000D02*
X117735253Y-98478571D01*
X117735253Y-98478571D02*
X117678110Y-98507142D01*
X161213824Y-124364285D02*
X161242396Y-124335713D01*
X161242396Y-124335713D02*
X161270967Y-124249999D01*
X161270967Y-124249999D02*
X161270967Y-124192856D01*
X161270967Y-124192856D02*
X161242396Y-124107142D01*
X161242396Y-124107142D02*
X161185253Y-124049999D01*
X161185253Y-124049999D02*
X161128110Y-124021428D01*
X161128110Y-124021428D02*
X161013824Y-123992856D01*
X161013824Y-123992856D02*
X160928110Y-123992856D01*
X160928110Y-123992856D02*
X160813824Y-124021428D01*
X160813824Y-124021428D02*
X160756681Y-124049999D01*
X160756681Y-124049999D02*
X160699538Y-124107142D01*
X160699538Y-124107142D02*
X160670967Y-124192856D01*
X160670967Y-124192856D02*
X160670967Y-124249999D01*
X160670967Y-124249999D02*
X160699538Y-124335713D01*
X160699538Y-124335713D02*
X160728110Y-124364285D01*
X161270967Y-124935713D02*
X161270967Y-124592856D01*
X161270967Y-124764285D02*
X160670967Y-124764285D01*
X160670967Y-124764285D02*
X160756681Y-124707142D01*
X160756681Y-124707142D02*
X160813824Y-124649999D01*
X160813824Y-124649999D02*
X160842396Y-124592856D01*
X160670967Y-125478571D02*
X160670967Y-125192857D01*
X160670967Y-125192857D02*
X160956681Y-125164285D01*
X160956681Y-125164285D02*
X160928110Y-125192857D01*
X160928110Y-125192857D02*
X160899538Y-125250000D01*
X160899538Y-125250000D02*
X160899538Y-125392857D01*
X160899538Y-125392857D02*
X160928110Y-125450000D01*
X160928110Y-125450000D02*
X160956681Y-125478571D01*
X160956681Y-125478571D02*
X161013824Y-125507142D01*
X161013824Y-125507142D02*
X161156681Y-125507142D01*
X161156681Y-125507142D02*
X161213824Y-125478571D01*
X161213824Y-125478571D02*
X161242396Y-125450000D01*
X161242396Y-125450000D02*
X161270967Y-125392857D01*
X161270967Y-125392857D02*
X161270967Y-125250000D01*
X161270967Y-125250000D02*
X161242396Y-125192857D01*
X161242396Y-125192857D02*
X161213824Y-125164285D01*
X139980714Y-97770967D02*
X140180714Y-97485253D01*
X140323571Y-97770967D02*
X140323571Y-97170967D01*
X140323571Y-97170967D02*
X140095000Y-97170967D01*
X140095000Y-97170967D02*
X140037857Y-97199538D01*
X140037857Y-97199538D02*
X140009286Y-97228110D01*
X140009286Y-97228110D02*
X139980714Y-97285253D01*
X139980714Y-97285253D02*
X139980714Y-97370967D01*
X139980714Y-97370967D02*
X140009286Y-97428110D01*
X140009286Y-97428110D02*
X140037857Y-97456681D01*
X140037857Y-97456681D02*
X140095000Y-97485253D01*
X140095000Y-97485253D02*
X140323571Y-97485253D01*
X139780714Y-97170967D02*
X139409286Y-97170967D01*
X139409286Y-97170967D02*
X139609286Y-97399538D01*
X139609286Y-97399538D02*
X139523571Y-97399538D01*
X139523571Y-97399538D02*
X139466429Y-97428110D01*
X139466429Y-97428110D02*
X139437857Y-97456681D01*
X139437857Y-97456681D02*
X139409286Y-97513824D01*
X139409286Y-97513824D02*
X139409286Y-97656681D01*
X139409286Y-97656681D02*
X139437857Y-97713824D01*
X139437857Y-97713824D02*
X139466429Y-97742396D01*
X139466429Y-97742396D02*
X139523571Y-97770967D01*
X139523571Y-97770967D02*
X139695000Y-97770967D01*
X139695000Y-97770967D02*
X139752143Y-97742396D01*
X139752143Y-97742396D02*
X139780714Y-97713824D01*
X138837857Y-97770967D02*
X139180714Y-97770967D01*
X139009285Y-97770967D02*
X139009285Y-97170967D01*
X139009285Y-97170967D02*
X139066428Y-97256681D01*
X139066428Y-97256681D02*
X139123571Y-97313824D01*
X139123571Y-97313824D02*
X139180714Y-97342396D01*
X161213824Y-120614285D02*
X161242396Y-120585713D01*
X161242396Y-120585713D02*
X161270967Y-120499999D01*
X161270967Y-120499999D02*
X161270967Y-120442856D01*
X161270967Y-120442856D02*
X161242396Y-120357142D01*
X161242396Y-120357142D02*
X161185253Y-120299999D01*
X161185253Y-120299999D02*
X161128110Y-120271428D01*
X161128110Y-120271428D02*
X161013824Y-120242856D01*
X161013824Y-120242856D02*
X160928110Y-120242856D01*
X160928110Y-120242856D02*
X160813824Y-120271428D01*
X160813824Y-120271428D02*
X160756681Y-120299999D01*
X160756681Y-120299999D02*
X160699538Y-120357142D01*
X160699538Y-120357142D02*
X160670967Y-120442856D01*
X160670967Y-120442856D02*
X160670967Y-120499999D01*
X160670967Y-120499999D02*
X160699538Y-120585713D01*
X160699538Y-120585713D02*
X160728110Y-120614285D01*
X161270967Y-121185713D02*
X161270967Y-120842856D01*
X161270967Y-121014285D02*
X160670967Y-121014285D01*
X160670967Y-121014285D02*
X160756681Y-120957142D01*
X160756681Y-120957142D02*
X160813824Y-120899999D01*
X160813824Y-120899999D02*
X160842396Y-120842856D01*
X160870967Y-121700000D02*
X161270967Y-121700000D01*
X160642396Y-121557142D02*
X161070967Y-121414285D01*
X161070967Y-121414285D02*
X161070967Y-121785714D01*
X167250000Y-112170967D02*
X167250000Y-112599538D01*
X167250000Y-112599538D02*
X167278571Y-112685253D01*
X167278571Y-112685253D02*
X167335714Y-112742396D01*
X167335714Y-112742396D02*
X167421428Y-112770967D01*
X167421428Y-112770967D02*
X167478571Y-112770967D01*
X166964285Y-112770967D02*
X166964285Y-112170967D01*
X166964285Y-112170967D02*
X166735714Y-112170967D01*
X166735714Y-112170967D02*
X166678571Y-112199538D01*
X166678571Y-112199538D02*
X166650000Y-112228110D01*
X166650000Y-112228110D02*
X166621428Y-112285253D01*
X166621428Y-112285253D02*
X166621428Y-112370967D01*
X166621428Y-112370967D02*
X166650000Y-112428110D01*
X166650000Y-112428110D02*
X166678571Y-112456681D01*
X166678571Y-112456681D02*
X166735714Y-112485253D01*
X166735714Y-112485253D02*
X166964285Y-112485253D01*
X166107143Y-112370967D02*
X166107143Y-112770967D01*
X166250000Y-112142396D02*
X166392857Y-112570967D01*
X166392857Y-112570967D02*
X166021428Y-112570967D01*
X162250000Y-112170967D02*
X162250000Y-112599538D01*
X162250000Y-112599538D02*
X162278571Y-112685253D01*
X162278571Y-112685253D02*
X162335714Y-112742396D01*
X162335714Y-112742396D02*
X162421428Y-112770967D01*
X162421428Y-112770967D02*
X162478571Y-112770967D01*
X161964285Y-112770967D02*
X161964285Y-112170967D01*
X161964285Y-112170967D02*
X161735714Y-112170967D01*
X161735714Y-112170967D02*
X161678571Y-112199538D01*
X161678571Y-112199538D02*
X161650000Y-112228110D01*
X161650000Y-112228110D02*
X161621428Y-112285253D01*
X161621428Y-112285253D02*
X161621428Y-112370967D01*
X161621428Y-112370967D02*
X161650000Y-112428110D01*
X161650000Y-112428110D02*
X161678571Y-112456681D01*
X161678571Y-112456681D02*
X161735714Y-112485253D01*
X161735714Y-112485253D02*
X161964285Y-112485253D01*
X161392857Y-112228110D02*
X161364285Y-112199538D01*
X161364285Y-112199538D02*
X161307143Y-112170967D01*
X161307143Y-112170967D02*
X161164285Y-112170967D01*
X161164285Y-112170967D02*
X161107143Y-112199538D01*
X161107143Y-112199538D02*
X161078571Y-112228110D01*
X161078571Y-112228110D02*
X161050000Y-112285253D01*
X161050000Y-112285253D02*
X161050000Y-112342396D01*
X161050000Y-112342396D02*
X161078571Y-112428110D01*
X161078571Y-112428110D02*
X161421428Y-112770967D01*
X161421428Y-112770967D02*
X161050000Y-112770967D01*
X123020967Y-97364285D02*
X122735253Y-97164285D01*
X123020967Y-97021428D02*
X122420967Y-97021428D01*
X122420967Y-97021428D02*
X122420967Y-97249999D01*
X122420967Y-97249999D02*
X122449538Y-97307142D01*
X122449538Y-97307142D02*
X122478110Y-97335713D01*
X122478110Y-97335713D02*
X122535253Y-97364285D01*
X122535253Y-97364285D02*
X122620967Y-97364285D01*
X122620967Y-97364285D02*
X122678110Y-97335713D01*
X122678110Y-97335713D02*
X122706681Y-97307142D01*
X122706681Y-97307142D02*
X122735253Y-97249999D01*
X122735253Y-97249999D02*
X122735253Y-97021428D01*
X122420967Y-97564285D02*
X122420967Y-97935713D01*
X122420967Y-97935713D02*
X122649538Y-97735713D01*
X122649538Y-97735713D02*
X122649538Y-97821428D01*
X122649538Y-97821428D02*
X122678110Y-97878571D01*
X122678110Y-97878571D02*
X122706681Y-97907142D01*
X122706681Y-97907142D02*
X122763824Y-97935713D01*
X122763824Y-97935713D02*
X122906681Y-97935713D01*
X122906681Y-97935713D02*
X122963824Y-97907142D01*
X122963824Y-97907142D02*
X122992396Y-97878571D01*
X122992396Y-97878571D02*
X123020967Y-97821428D01*
X123020967Y-97821428D02*
X123020967Y-97649999D01*
X123020967Y-97649999D02*
X122992396Y-97592856D01*
X122992396Y-97592856D02*
X122963824Y-97564285D01*
X122420967Y-98450000D02*
X122420967Y-98335714D01*
X122420967Y-98335714D02*
X122449538Y-98278571D01*
X122449538Y-98278571D02*
X122478110Y-98250000D01*
X122478110Y-98250000D02*
X122563824Y-98192857D01*
X122563824Y-98192857D02*
X122678110Y-98164285D01*
X122678110Y-98164285D02*
X122906681Y-98164285D01*
X122906681Y-98164285D02*
X122963824Y-98192857D01*
X122963824Y-98192857D02*
X122992396Y-98221428D01*
X122992396Y-98221428D02*
X123020967Y-98278571D01*
X123020967Y-98278571D02*
X123020967Y-98392857D01*
X123020967Y-98392857D02*
X122992396Y-98450000D01*
X122992396Y-98450000D02*
X122963824Y-98478571D01*
X122963824Y-98478571D02*
X122906681Y-98507142D01*
X122906681Y-98507142D02*
X122763824Y-98507142D01*
X122763824Y-98507142D02*
X122706681Y-98478571D01*
X122706681Y-98478571D02*
X122678110Y-98450000D01*
X122678110Y-98450000D02*
X122649538Y-98392857D01*
X122649538Y-98392857D02*
X122649538Y-98278571D01*
X122649538Y-98278571D02*
X122678110Y-98221428D01*
X122678110Y-98221428D02*
X122706681Y-98192857D01*
X122706681Y-98192857D02*
X122763824Y-98164285D01*
X155770967Y-95021428D02*
X155170967Y-95021428D01*
X155170967Y-95021428D02*
X155170967Y-95164285D01*
X155170967Y-95164285D02*
X155199538Y-95249999D01*
X155199538Y-95249999D02*
X155256681Y-95307142D01*
X155256681Y-95307142D02*
X155313824Y-95335713D01*
X155313824Y-95335713D02*
X155428110Y-95364285D01*
X155428110Y-95364285D02*
X155513824Y-95364285D01*
X155513824Y-95364285D02*
X155628110Y-95335713D01*
X155628110Y-95335713D02*
X155685253Y-95307142D01*
X155685253Y-95307142D02*
X155742396Y-95249999D01*
X155742396Y-95249999D02*
X155770967Y-95164285D01*
X155770967Y-95164285D02*
X155770967Y-95021428D01*
X155770967Y-95935713D02*
X155770967Y-95592856D01*
X155770967Y-95764285D02*
X155170967Y-95764285D01*
X155170967Y-95764285D02*
X155256681Y-95707142D01*
X155256681Y-95707142D02*
X155313824Y-95649999D01*
X155313824Y-95649999D02*
X155342396Y-95592856D01*
X155170967Y-96478571D02*
X155170967Y-96192857D01*
X155170967Y-96192857D02*
X155456681Y-96164285D01*
X155456681Y-96164285D02*
X155428110Y-96192857D01*
X155428110Y-96192857D02*
X155399538Y-96250000D01*
X155399538Y-96250000D02*
X155399538Y-96392857D01*
X155399538Y-96392857D02*
X155428110Y-96450000D01*
X155428110Y-96450000D02*
X155456681Y-96478571D01*
X155456681Y-96478571D02*
X155513824Y-96507142D01*
X155513824Y-96507142D02*
X155656681Y-96507142D01*
X155656681Y-96507142D02*
X155713824Y-96478571D01*
X155713824Y-96478571D02*
X155742396Y-96450000D01*
X155742396Y-96450000D02*
X155770967Y-96392857D01*
X155770967Y-96392857D02*
X155770967Y-96250000D01*
X155770967Y-96250000D02*
X155742396Y-96192857D01*
X155742396Y-96192857D02*
X155713824Y-96164285D01*
X152770967Y-95021428D02*
X152170967Y-95021428D01*
X152170967Y-95021428D02*
X152170967Y-95164285D01*
X152170967Y-95164285D02*
X152199538Y-95249999D01*
X152199538Y-95249999D02*
X152256681Y-95307142D01*
X152256681Y-95307142D02*
X152313824Y-95335713D01*
X152313824Y-95335713D02*
X152428110Y-95364285D01*
X152428110Y-95364285D02*
X152513824Y-95364285D01*
X152513824Y-95364285D02*
X152628110Y-95335713D01*
X152628110Y-95335713D02*
X152685253Y-95307142D01*
X152685253Y-95307142D02*
X152742396Y-95249999D01*
X152742396Y-95249999D02*
X152770967Y-95164285D01*
X152770967Y-95164285D02*
X152770967Y-95021428D01*
X152770967Y-95935713D02*
X152770967Y-95592856D01*
X152770967Y-95764285D02*
X152170967Y-95764285D01*
X152170967Y-95764285D02*
X152256681Y-95707142D01*
X152256681Y-95707142D02*
X152313824Y-95649999D01*
X152313824Y-95649999D02*
X152342396Y-95592856D01*
X152428110Y-96278571D02*
X152399538Y-96221428D01*
X152399538Y-96221428D02*
X152370967Y-96192857D01*
X152370967Y-96192857D02*
X152313824Y-96164285D01*
X152313824Y-96164285D02*
X152285253Y-96164285D01*
X152285253Y-96164285D02*
X152228110Y-96192857D01*
X152228110Y-96192857D02*
X152199538Y-96221428D01*
X152199538Y-96221428D02*
X152170967Y-96278571D01*
X152170967Y-96278571D02*
X152170967Y-96392857D01*
X152170967Y-96392857D02*
X152199538Y-96450000D01*
X152199538Y-96450000D02*
X152228110Y-96478571D01*
X152228110Y-96478571D02*
X152285253Y-96507142D01*
X152285253Y-96507142D02*
X152313824Y-96507142D01*
X152313824Y-96507142D02*
X152370967Y-96478571D01*
X152370967Y-96478571D02*
X152399538Y-96450000D01*
X152399538Y-96450000D02*
X152428110Y-96392857D01*
X152428110Y-96392857D02*
X152428110Y-96278571D01*
X152428110Y-96278571D02*
X152456681Y-96221428D01*
X152456681Y-96221428D02*
X152485253Y-96192857D01*
X152485253Y-96192857D02*
X152542396Y-96164285D01*
X152542396Y-96164285D02*
X152656681Y-96164285D01*
X152656681Y-96164285D02*
X152713824Y-96192857D01*
X152713824Y-96192857D02*
X152742396Y-96221428D01*
X152742396Y-96221428D02*
X152770967Y-96278571D01*
X152770967Y-96278571D02*
X152770967Y-96392857D01*
X152770967Y-96392857D02*
X152742396Y-96450000D01*
X152742396Y-96450000D02*
X152713824Y-96478571D01*
X152713824Y-96478571D02*
X152656681Y-96507142D01*
X152656681Y-96507142D02*
X152542396Y-96507142D01*
X152542396Y-96507142D02*
X152485253Y-96478571D01*
X152485253Y-96478571D02*
X152456681Y-96450000D01*
X152456681Y-96450000D02*
X152428110Y-96392857D01*
X164713824Y-121150000D02*
X164742396Y-121121428D01*
X164742396Y-121121428D02*
X164770967Y-121035714D01*
X164770967Y-121035714D02*
X164770967Y-120978571D01*
X164770967Y-120978571D02*
X164742396Y-120892857D01*
X164742396Y-120892857D02*
X164685253Y-120835714D01*
X164685253Y-120835714D02*
X164628110Y-120807143D01*
X164628110Y-120807143D02*
X164513824Y-120778571D01*
X164513824Y-120778571D02*
X164428110Y-120778571D01*
X164428110Y-120778571D02*
X164313824Y-120807143D01*
X164313824Y-120807143D02*
X164256681Y-120835714D01*
X164256681Y-120835714D02*
X164199538Y-120892857D01*
X164199538Y-120892857D02*
X164170967Y-120978571D01*
X164170967Y-120978571D02*
X164170967Y-121035714D01*
X164170967Y-121035714D02*
X164199538Y-121121428D01*
X164199538Y-121121428D02*
X164228110Y-121150000D01*
X164170967Y-121664286D02*
X164170967Y-121550000D01*
X164170967Y-121550000D02*
X164199538Y-121492857D01*
X164199538Y-121492857D02*
X164228110Y-121464286D01*
X164228110Y-121464286D02*
X164313824Y-121407143D01*
X164313824Y-121407143D02*
X164428110Y-121378571D01*
X164428110Y-121378571D02*
X164656681Y-121378571D01*
X164656681Y-121378571D02*
X164713824Y-121407143D01*
X164713824Y-121407143D02*
X164742396Y-121435714D01*
X164742396Y-121435714D02*
X164770967Y-121492857D01*
X164770967Y-121492857D02*
X164770967Y-121607143D01*
X164770967Y-121607143D02*
X164742396Y-121664286D01*
X164742396Y-121664286D02*
X164713824Y-121692857D01*
X164713824Y-121692857D02*
X164656681Y-121721428D01*
X164656681Y-121721428D02*
X164513824Y-121721428D01*
X164513824Y-121721428D02*
X164456681Y-121692857D01*
X164456681Y-121692857D02*
X164428110Y-121664286D01*
X164428110Y-121664286D02*
X164399538Y-121607143D01*
X164399538Y-121607143D02*
X164399538Y-121492857D01*
X164399538Y-121492857D02*
X164428110Y-121435714D01*
X164428110Y-121435714D02*
X164456681Y-121407143D01*
X164456681Y-121407143D02*
X164513824Y-121378571D01*
X136480714Y-97770967D02*
X136680714Y-97485253D01*
X136823571Y-97770967D02*
X136823571Y-97170967D01*
X136823571Y-97170967D02*
X136595000Y-97170967D01*
X136595000Y-97170967D02*
X136537857Y-97199538D01*
X136537857Y-97199538D02*
X136509286Y-97228110D01*
X136509286Y-97228110D02*
X136480714Y-97285253D01*
X136480714Y-97285253D02*
X136480714Y-97370967D01*
X136480714Y-97370967D02*
X136509286Y-97428110D01*
X136509286Y-97428110D02*
X136537857Y-97456681D01*
X136537857Y-97456681D02*
X136595000Y-97485253D01*
X136595000Y-97485253D02*
X136823571Y-97485253D01*
X135909286Y-97770967D02*
X136252143Y-97770967D01*
X136080714Y-97770967D02*
X136080714Y-97170967D01*
X136080714Y-97170967D02*
X136137857Y-97256681D01*
X136137857Y-97256681D02*
X136195000Y-97313824D01*
X136195000Y-97313824D02*
X136252143Y-97342396D01*
X135709285Y-97170967D02*
X135337857Y-97170967D01*
X135337857Y-97170967D02*
X135537857Y-97399538D01*
X135537857Y-97399538D02*
X135452142Y-97399538D01*
X135452142Y-97399538D02*
X135395000Y-97428110D01*
X135395000Y-97428110D02*
X135366428Y-97456681D01*
X135366428Y-97456681D02*
X135337857Y-97513824D01*
X135337857Y-97513824D02*
X135337857Y-97656681D01*
X135337857Y-97656681D02*
X135366428Y-97713824D01*
X135366428Y-97713824D02*
X135395000Y-97742396D01*
X135395000Y-97742396D02*
X135452142Y-97770967D01*
X135452142Y-97770967D02*
X135623571Y-97770967D01*
X135623571Y-97770967D02*
X135680714Y-97742396D01*
X135680714Y-97742396D02*
X135709285Y-97713824D01*
X157770967Y-95021428D02*
X157170967Y-95021428D01*
X157170967Y-95021428D02*
X157170967Y-95164285D01*
X157170967Y-95164285D02*
X157199538Y-95249999D01*
X157199538Y-95249999D02*
X157256681Y-95307142D01*
X157256681Y-95307142D02*
X157313824Y-95335713D01*
X157313824Y-95335713D02*
X157428110Y-95364285D01*
X157428110Y-95364285D02*
X157513824Y-95364285D01*
X157513824Y-95364285D02*
X157628110Y-95335713D01*
X157628110Y-95335713D02*
X157685253Y-95307142D01*
X157685253Y-95307142D02*
X157742396Y-95249999D01*
X157742396Y-95249999D02*
X157770967Y-95164285D01*
X157770967Y-95164285D02*
X157770967Y-95021428D01*
X157770967Y-95935713D02*
X157770967Y-95592856D01*
X157770967Y-95764285D02*
X157170967Y-95764285D01*
X157170967Y-95764285D02*
X157256681Y-95707142D01*
X157256681Y-95707142D02*
X157313824Y-95649999D01*
X157313824Y-95649999D02*
X157342396Y-95592856D01*
X157170967Y-96135714D02*
X157170967Y-96507142D01*
X157170967Y-96507142D02*
X157399538Y-96307142D01*
X157399538Y-96307142D02*
X157399538Y-96392857D01*
X157399538Y-96392857D02*
X157428110Y-96450000D01*
X157428110Y-96450000D02*
X157456681Y-96478571D01*
X157456681Y-96478571D02*
X157513824Y-96507142D01*
X157513824Y-96507142D02*
X157656681Y-96507142D01*
X157656681Y-96507142D02*
X157713824Y-96478571D01*
X157713824Y-96478571D02*
X157742396Y-96450000D01*
X157742396Y-96450000D02*
X157770967Y-96392857D01*
X157770967Y-96392857D02*
X157770967Y-96221428D01*
X157770967Y-96221428D02*
X157742396Y-96164285D01*
X157742396Y-96164285D02*
X157713824Y-96135714D01*
X151770967Y-95021428D02*
X151170967Y-95021428D01*
X151170967Y-95021428D02*
X151170967Y-95164285D01*
X151170967Y-95164285D02*
X151199538Y-95249999D01*
X151199538Y-95249999D02*
X151256681Y-95307142D01*
X151256681Y-95307142D02*
X151313824Y-95335713D01*
X151313824Y-95335713D02*
X151428110Y-95364285D01*
X151428110Y-95364285D02*
X151513824Y-95364285D01*
X151513824Y-95364285D02*
X151628110Y-95335713D01*
X151628110Y-95335713D02*
X151685253Y-95307142D01*
X151685253Y-95307142D02*
X151742396Y-95249999D01*
X151742396Y-95249999D02*
X151770967Y-95164285D01*
X151770967Y-95164285D02*
X151770967Y-95021428D01*
X151770967Y-95935713D02*
X151770967Y-95592856D01*
X151770967Y-95764285D02*
X151170967Y-95764285D01*
X151170967Y-95764285D02*
X151256681Y-95707142D01*
X151256681Y-95707142D02*
X151313824Y-95649999D01*
X151313824Y-95649999D02*
X151342396Y-95592856D01*
X151770967Y-96221428D02*
X151770967Y-96335714D01*
X151770967Y-96335714D02*
X151742396Y-96392857D01*
X151742396Y-96392857D02*
X151713824Y-96421428D01*
X151713824Y-96421428D02*
X151628110Y-96478571D01*
X151628110Y-96478571D02*
X151513824Y-96507142D01*
X151513824Y-96507142D02*
X151285253Y-96507142D01*
X151285253Y-96507142D02*
X151228110Y-96478571D01*
X151228110Y-96478571D02*
X151199538Y-96450000D01*
X151199538Y-96450000D02*
X151170967Y-96392857D01*
X151170967Y-96392857D02*
X151170967Y-96278571D01*
X151170967Y-96278571D02*
X151199538Y-96221428D01*
X151199538Y-96221428D02*
X151228110Y-96192857D01*
X151228110Y-96192857D02*
X151285253Y-96164285D01*
X151285253Y-96164285D02*
X151428110Y-96164285D01*
X151428110Y-96164285D02*
X151485253Y-96192857D01*
X151485253Y-96192857D02*
X151513824Y-96221428D01*
X151513824Y-96221428D02*
X151542396Y-96278571D01*
X151542396Y-96278571D02*
X151542396Y-96392857D01*
X151542396Y-96392857D02*
X151513824Y-96450000D01*
X151513824Y-96450000D02*
X151485253Y-96478571D01*
X151485253Y-96478571D02*
X151428110Y-96507142D01*
X164713824Y-117400000D02*
X164742396Y-117371428D01*
X164742396Y-117371428D02*
X164770967Y-117285714D01*
X164770967Y-117285714D02*
X164770967Y-117228571D01*
X164770967Y-117228571D02*
X164742396Y-117142857D01*
X164742396Y-117142857D02*
X164685253Y-117085714D01*
X164685253Y-117085714D02*
X164628110Y-117057143D01*
X164628110Y-117057143D02*
X164513824Y-117028571D01*
X164513824Y-117028571D02*
X164428110Y-117028571D01*
X164428110Y-117028571D02*
X164313824Y-117057143D01*
X164313824Y-117057143D02*
X164256681Y-117085714D01*
X164256681Y-117085714D02*
X164199538Y-117142857D01*
X164199538Y-117142857D02*
X164170967Y-117228571D01*
X164170967Y-117228571D02*
X164170967Y-117285714D01*
X164170967Y-117285714D02*
X164199538Y-117371428D01*
X164199538Y-117371428D02*
X164228110Y-117400000D01*
X164170967Y-117942857D02*
X164170967Y-117657143D01*
X164170967Y-117657143D02*
X164456681Y-117628571D01*
X164456681Y-117628571D02*
X164428110Y-117657143D01*
X164428110Y-117657143D02*
X164399538Y-117714286D01*
X164399538Y-117714286D02*
X164399538Y-117857143D01*
X164399538Y-117857143D02*
X164428110Y-117914286D01*
X164428110Y-117914286D02*
X164456681Y-117942857D01*
X164456681Y-117942857D02*
X164513824Y-117971428D01*
X164513824Y-117971428D02*
X164656681Y-117971428D01*
X164656681Y-117971428D02*
X164713824Y-117942857D01*
X164713824Y-117942857D02*
X164742396Y-117914286D01*
X164742396Y-117914286D02*
X164770967Y-117857143D01*
X164770967Y-117857143D02*
X164770967Y-117714286D01*
X164770967Y-117714286D02*
X164742396Y-117657143D01*
X164742396Y-117657143D02*
X164713824Y-117628571D01*
X119020967Y-97364285D02*
X118735253Y-97164285D01*
X119020967Y-97021428D02*
X118420967Y-97021428D01*
X118420967Y-97021428D02*
X118420967Y-97249999D01*
X118420967Y-97249999D02*
X118449538Y-97307142D01*
X118449538Y-97307142D02*
X118478110Y-97335713D01*
X118478110Y-97335713D02*
X118535253Y-97364285D01*
X118535253Y-97364285D02*
X118620967Y-97364285D01*
X118620967Y-97364285D02*
X118678110Y-97335713D01*
X118678110Y-97335713D02*
X118706681Y-97307142D01*
X118706681Y-97307142D02*
X118735253Y-97249999D01*
X118735253Y-97249999D02*
X118735253Y-97021428D01*
X118420967Y-97564285D02*
X118420967Y-97935713D01*
X118420967Y-97935713D02*
X118649538Y-97735713D01*
X118649538Y-97735713D02*
X118649538Y-97821428D01*
X118649538Y-97821428D02*
X118678110Y-97878571D01*
X118678110Y-97878571D02*
X118706681Y-97907142D01*
X118706681Y-97907142D02*
X118763824Y-97935713D01*
X118763824Y-97935713D02*
X118906681Y-97935713D01*
X118906681Y-97935713D02*
X118963824Y-97907142D01*
X118963824Y-97907142D02*
X118992396Y-97878571D01*
X118992396Y-97878571D02*
X119020967Y-97821428D01*
X119020967Y-97821428D02*
X119020967Y-97649999D01*
X119020967Y-97649999D02*
X118992396Y-97592856D01*
X118992396Y-97592856D02*
X118963824Y-97564285D01*
X118478110Y-98164285D02*
X118449538Y-98192857D01*
X118449538Y-98192857D02*
X118420967Y-98250000D01*
X118420967Y-98250000D02*
X118420967Y-98392857D01*
X118420967Y-98392857D02*
X118449538Y-98450000D01*
X118449538Y-98450000D02*
X118478110Y-98478571D01*
X118478110Y-98478571D02*
X118535253Y-98507142D01*
X118535253Y-98507142D02*
X118592396Y-98507142D01*
X118592396Y-98507142D02*
X118678110Y-98478571D01*
X118678110Y-98478571D02*
X119020967Y-98135714D01*
X119020967Y-98135714D02*
X119020967Y-98507142D01*
X119020967Y-95021428D02*
X118420967Y-95021428D01*
X118420967Y-95021428D02*
X118420967Y-95164285D01*
X118420967Y-95164285D02*
X118449538Y-95249999D01*
X118449538Y-95249999D02*
X118506681Y-95307142D01*
X118506681Y-95307142D02*
X118563824Y-95335713D01*
X118563824Y-95335713D02*
X118678110Y-95364285D01*
X118678110Y-95364285D02*
X118763824Y-95364285D01*
X118763824Y-95364285D02*
X118878110Y-95335713D01*
X118878110Y-95335713D02*
X118935253Y-95307142D01*
X118935253Y-95307142D02*
X118992396Y-95249999D01*
X118992396Y-95249999D02*
X119020967Y-95164285D01*
X119020967Y-95164285D02*
X119020967Y-95021428D01*
X118478110Y-95592856D02*
X118449538Y-95621428D01*
X118449538Y-95621428D02*
X118420967Y-95678571D01*
X118420967Y-95678571D02*
X118420967Y-95821428D01*
X118420967Y-95821428D02*
X118449538Y-95878571D01*
X118449538Y-95878571D02*
X118478110Y-95907142D01*
X118478110Y-95907142D02*
X118535253Y-95935713D01*
X118535253Y-95935713D02*
X118592396Y-95935713D01*
X118592396Y-95935713D02*
X118678110Y-95907142D01*
X118678110Y-95907142D02*
X119020967Y-95564285D01*
X119020967Y-95564285D02*
X119020967Y-95935713D01*
X118620967Y-96450000D02*
X119020967Y-96450000D01*
X118392396Y-96307142D02*
X118820967Y-96164285D01*
X118820967Y-96164285D02*
X118820967Y-96535714D01*
X157770967Y-97364285D02*
X157485253Y-97164285D01*
X157770967Y-97021428D02*
X157170967Y-97021428D01*
X157170967Y-97021428D02*
X157170967Y-97249999D01*
X157170967Y-97249999D02*
X157199538Y-97307142D01*
X157199538Y-97307142D02*
X157228110Y-97335713D01*
X157228110Y-97335713D02*
X157285253Y-97364285D01*
X157285253Y-97364285D02*
X157370967Y-97364285D01*
X157370967Y-97364285D02*
X157428110Y-97335713D01*
X157428110Y-97335713D02*
X157456681Y-97307142D01*
X157456681Y-97307142D02*
X157485253Y-97249999D01*
X157485253Y-97249999D02*
X157485253Y-97021428D01*
X157770967Y-97935713D02*
X157770967Y-97592856D01*
X157770967Y-97764285D02*
X157170967Y-97764285D01*
X157170967Y-97764285D02*
X157256681Y-97707142D01*
X157256681Y-97707142D02*
X157313824Y-97649999D01*
X157313824Y-97649999D02*
X157342396Y-97592856D01*
X157170967Y-98478571D02*
X157170967Y-98192857D01*
X157170967Y-98192857D02*
X157456681Y-98164285D01*
X157456681Y-98164285D02*
X157428110Y-98192857D01*
X157428110Y-98192857D02*
X157399538Y-98250000D01*
X157399538Y-98250000D02*
X157399538Y-98392857D01*
X157399538Y-98392857D02*
X157428110Y-98450000D01*
X157428110Y-98450000D02*
X157456681Y-98478571D01*
X157456681Y-98478571D02*
X157513824Y-98507142D01*
X157513824Y-98507142D02*
X157656681Y-98507142D01*
X157656681Y-98507142D02*
X157713824Y-98478571D01*
X157713824Y-98478571D02*
X157742396Y-98450000D01*
X157742396Y-98450000D02*
X157770967Y-98392857D01*
X157770967Y-98392857D02*
X157770967Y-98250000D01*
X157770967Y-98250000D02*
X157742396Y-98192857D01*
X157742396Y-98192857D02*
X157713824Y-98164285D01*
X155770967Y-97364285D02*
X155485253Y-97164285D01*
X155770967Y-97021428D02*
X155170967Y-97021428D01*
X155170967Y-97021428D02*
X155170967Y-97249999D01*
X155170967Y-97249999D02*
X155199538Y-97307142D01*
X155199538Y-97307142D02*
X155228110Y-97335713D01*
X155228110Y-97335713D02*
X155285253Y-97364285D01*
X155285253Y-97364285D02*
X155370967Y-97364285D01*
X155370967Y-97364285D02*
X155428110Y-97335713D01*
X155428110Y-97335713D02*
X155456681Y-97307142D01*
X155456681Y-97307142D02*
X155485253Y-97249999D01*
X155485253Y-97249999D02*
X155485253Y-97021428D01*
X155770967Y-97935713D02*
X155770967Y-97592856D01*
X155770967Y-97764285D02*
X155170967Y-97764285D01*
X155170967Y-97764285D02*
X155256681Y-97707142D01*
X155256681Y-97707142D02*
X155313824Y-97649999D01*
X155313824Y-97649999D02*
X155342396Y-97592856D01*
X155428110Y-98278571D02*
X155399538Y-98221428D01*
X155399538Y-98221428D02*
X155370967Y-98192857D01*
X155370967Y-98192857D02*
X155313824Y-98164285D01*
X155313824Y-98164285D02*
X155285253Y-98164285D01*
X155285253Y-98164285D02*
X155228110Y-98192857D01*
X155228110Y-98192857D02*
X155199538Y-98221428D01*
X155199538Y-98221428D02*
X155170967Y-98278571D01*
X155170967Y-98278571D02*
X155170967Y-98392857D01*
X155170967Y-98392857D02*
X155199538Y-98450000D01*
X155199538Y-98450000D02*
X155228110Y-98478571D01*
X155228110Y-98478571D02*
X155285253Y-98507142D01*
X155285253Y-98507142D02*
X155313824Y-98507142D01*
X155313824Y-98507142D02*
X155370967Y-98478571D01*
X155370967Y-98478571D02*
X155399538Y-98450000D01*
X155399538Y-98450000D02*
X155428110Y-98392857D01*
X155428110Y-98392857D02*
X155428110Y-98278571D01*
X155428110Y-98278571D02*
X155456681Y-98221428D01*
X155456681Y-98221428D02*
X155485253Y-98192857D01*
X155485253Y-98192857D02*
X155542396Y-98164285D01*
X155542396Y-98164285D02*
X155656681Y-98164285D01*
X155656681Y-98164285D02*
X155713824Y-98192857D01*
X155713824Y-98192857D02*
X155742396Y-98221428D01*
X155742396Y-98221428D02*
X155770967Y-98278571D01*
X155770967Y-98278571D02*
X155770967Y-98392857D01*
X155770967Y-98392857D02*
X155742396Y-98450000D01*
X155742396Y-98450000D02*
X155713824Y-98478571D01*
X155713824Y-98478571D02*
X155656681Y-98507142D01*
X155656681Y-98507142D02*
X155542396Y-98507142D01*
X155542396Y-98507142D02*
X155485253Y-98478571D01*
X155485253Y-98478571D02*
X155456681Y-98450000D01*
X155456681Y-98450000D02*
X155428110Y-98392857D01*
X121020967Y-95021428D02*
X120420967Y-95021428D01*
X120420967Y-95021428D02*
X120420967Y-95164285D01*
X120420967Y-95164285D02*
X120449538Y-95249999D01*
X120449538Y-95249999D02*
X120506681Y-95307142D01*
X120506681Y-95307142D02*
X120563824Y-95335713D01*
X120563824Y-95335713D02*
X120678110Y-95364285D01*
X120678110Y-95364285D02*
X120763824Y-95364285D01*
X120763824Y-95364285D02*
X120878110Y-95335713D01*
X120878110Y-95335713D02*
X120935253Y-95307142D01*
X120935253Y-95307142D02*
X120992396Y-95249999D01*
X120992396Y-95249999D02*
X121020967Y-95164285D01*
X121020967Y-95164285D02*
X121020967Y-95021428D01*
X120478110Y-95592856D02*
X120449538Y-95621428D01*
X120449538Y-95621428D02*
X120420967Y-95678571D01*
X120420967Y-95678571D02*
X120420967Y-95821428D01*
X120420967Y-95821428D02*
X120449538Y-95878571D01*
X120449538Y-95878571D02*
X120478110Y-95907142D01*
X120478110Y-95907142D02*
X120535253Y-95935713D01*
X120535253Y-95935713D02*
X120592396Y-95935713D01*
X120592396Y-95935713D02*
X120678110Y-95907142D01*
X120678110Y-95907142D02*
X121020967Y-95564285D01*
X121020967Y-95564285D02*
X121020967Y-95935713D01*
X120420967Y-96450000D02*
X120420967Y-96335714D01*
X120420967Y-96335714D02*
X120449538Y-96278571D01*
X120449538Y-96278571D02*
X120478110Y-96250000D01*
X120478110Y-96250000D02*
X120563824Y-96192857D01*
X120563824Y-96192857D02*
X120678110Y-96164285D01*
X120678110Y-96164285D02*
X120906681Y-96164285D01*
X120906681Y-96164285D02*
X120963824Y-96192857D01*
X120963824Y-96192857D02*
X120992396Y-96221428D01*
X120992396Y-96221428D02*
X121020967Y-96278571D01*
X121020967Y-96278571D02*
X121020967Y-96392857D01*
X121020967Y-96392857D02*
X120992396Y-96450000D01*
X120992396Y-96450000D02*
X120963824Y-96478571D01*
X120963824Y-96478571D02*
X120906681Y-96507142D01*
X120906681Y-96507142D02*
X120763824Y-96507142D01*
X120763824Y-96507142D02*
X120706681Y-96478571D01*
X120706681Y-96478571D02*
X120678110Y-96450000D01*
X120678110Y-96450000D02*
X120649538Y-96392857D01*
X120649538Y-96392857D02*
X120649538Y-96278571D01*
X120649538Y-96278571D02*
X120678110Y-96221428D01*
X120678110Y-96221428D02*
X120706681Y-96192857D01*
X120706681Y-96192857D02*
X120763824Y-96164285D01*
X157250000Y-112170967D02*
X157250000Y-112599538D01*
X157250000Y-112599538D02*
X157278571Y-112685253D01*
X157278571Y-112685253D02*
X157335714Y-112742396D01*
X157335714Y-112742396D02*
X157421428Y-112770967D01*
X157421428Y-112770967D02*
X157478571Y-112770967D01*
X156964285Y-112770967D02*
X156964285Y-112170967D01*
X156964285Y-112170967D02*
X156735714Y-112170967D01*
X156735714Y-112170967D02*
X156678571Y-112199538D01*
X156678571Y-112199538D02*
X156650000Y-112228110D01*
X156650000Y-112228110D02*
X156621428Y-112285253D01*
X156621428Y-112285253D02*
X156621428Y-112370967D01*
X156621428Y-112370967D02*
X156650000Y-112428110D01*
X156650000Y-112428110D02*
X156678571Y-112456681D01*
X156678571Y-112456681D02*
X156735714Y-112485253D01*
X156735714Y-112485253D02*
X156964285Y-112485253D01*
X156421428Y-112170967D02*
X156050000Y-112170967D01*
X156050000Y-112170967D02*
X156250000Y-112399538D01*
X156250000Y-112399538D02*
X156164285Y-112399538D01*
X156164285Y-112399538D02*
X156107143Y-112428110D01*
X156107143Y-112428110D02*
X156078571Y-112456681D01*
X156078571Y-112456681D02*
X156050000Y-112513824D01*
X156050000Y-112513824D02*
X156050000Y-112656681D01*
X156050000Y-112656681D02*
X156078571Y-112713824D01*
X156078571Y-112713824D02*
X156107143Y-112742396D01*
X156107143Y-112742396D02*
X156164285Y-112770967D01*
X156164285Y-112770967D02*
X156335714Y-112770967D01*
X156335714Y-112770967D02*
X156392857Y-112742396D01*
X156392857Y-112742396D02*
X156421428Y-112713824D01*
X152520967Y-103364285D02*
X152235253Y-103164285D01*
X152520967Y-103021428D02*
X151920967Y-103021428D01*
X151920967Y-103021428D02*
X151920967Y-103249999D01*
X151920967Y-103249999D02*
X151949538Y-103307142D01*
X151949538Y-103307142D02*
X151978110Y-103335713D01*
X151978110Y-103335713D02*
X152035253Y-103364285D01*
X152035253Y-103364285D02*
X152120967Y-103364285D01*
X152120967Y-103364285D02*
X152178110Y-103335713D01*
X152178110Y-103335713D02*
X152206681Y-103307142D01*
X152206681Y-103307142D02*
X152235253Y-103249999D01*
X152235253Y-103249999D02*
X152235253Y-103021428D01*
X151978110Y-103592856D02*
X151949538Y-103621428D01*
X151949538Y-103621428D02*
X151920967Y-103678571D01*
X151920967Y-103678571D02*
X151920967Y-103821428D01*
X151920967Y-103821428D02*
X151949538Y-103878571D01*
X151949538Y-103878571D02*
X151978110Y-103907142D01*
X151978110Y-103907142D02*
X152035253Y-103935713D01*
X152035253Y-103935713D02*
X152092396Y-103935713D01*
X152092396Y-103935713D02*
X152178110Y-103907142D01*
X152178110Y-103907142D02*
X152520967Y-103564285D01*
X152520967Y-103564285D02*
X152520967Y-103935713D01*
X151920967Y-104450000D02*
X151920967Y-104335714D01*
X151920967Y-104335714D02*
X151949538Y-104278571D01*
X151949538Y-104278571D02*
X151978110Y-104250000D01*
X151978110Y-104250000D02*
X152063824Y-104192857D01*
X152063824Y-104192857D02*
X152178110Y-104164285D01*
X152178110Y-104164285D02*
X152406681Y-104164285D01*
X152406681Y-104164285D02*
X152463824Y-104192857D01*
X152463824Y-104192857D02*
X152492396Y-104221428D01*
X152492396Y-104221428D02*
X152520967Y-104278571D01*
X152520967Y-104278571D02*
X152520967Y-104392857D01*
X152520967Y-104392857D02*
X152492396Y-104450000D01*
X152492396Y-104450000D02*
X152463824Y-104478571D01*
X152463824Y-104478571D02*
X152406681Y-104507142D01*
X152406681Y-104507142D02*
X152263824Y-104507142D01*
X152263824Y-104507142D02*
X152206681Y-104478571D01*
X152206681Y-104478571D02*
X152178110Y-104450000D01*
X152178110Y-104450000D02*
X152149538Y-104392857D01*
X152149538Y-104392857D02*
X152149538Y-104278571D01*
X152149538Y-104278571D02*
X152178110Y-104221428D01*
X152178110Y-104221428D02*
X152206681Y-104192857D01*
X152206681Y-104192857D02*
X152263824Y-104164285D01*
X157463824Y-129614285D02*
X157492396Y-129585713D01*
X157492396Y-129585713D02*
X157520967Y-129499999D01*
X157520967Y-129499999D02*
X157520967Y-129442856D01*
X157520967Y-129442856D02*
X157492396Y-129357142D01*
X157492396Y-129357142D02*
X157435253Y-129299999D01*
X157435253Y-129299999D02*
X157378110Y-129271428D01*
X157378110Y-129271428D02*
X157263824Y-129242856D01*
X157263824Y-129242856D02*
X157178110Y-129242856D01*
X157178110Y-129242856D02*
X157063824Y-129271428D01*
X157063824Y-129271428D02*
X157006681Y-129299999D01*
X157006681Y-129299999D02*
X156949538Y-129357142D01*
X156949538Y-129357142D02*
X156920967Y-129442856D01*
X156920967Y-129442856D02*
X156920967Y-129499999D01*
X156920967Y-129499999D02*
X156949538Y-129585713D01*
X156949538Y-129585713D02*
X156978110Y-129614285D01*
X157520967Y-130185713D02*
X157520967Y-129842856D01*
X157520967Y-130014285D02*
X156920967Y-130014285D01*
X156920967Y-130014285D02*
X157006681Y-129957142D01*
X157006681Y-129957142D02*
X157063824Y-129899999D01*
X157063824Y-129899999D02*
X157092396Y-129842856D01*
X156978110Y-130414285D02*
X156949538Y-130442857D01*
X156949538Y-130442857D02*
X156920967Y-130500000D01*
X156920967Y-130500000D02*
X156920967Y-130642857D01*
X156920967Y-130642857D02*
X156949538Y-130700000D01*
X156949538Y-130700000D02*
X156978110Y-130728571D01*
X156978110Y-130728571D02*
X157035253Y-130757142D01*
X157035253Y-130757142D02*
X157092396Y-130757142D01*
X157092396Y-130757142D02*
X157178110Y-130728571D01*
X157178110Y-130728571D02*
X157520967Y-130385714D01*
X157520967Y-130385714D02*
X157520967Y-130757142D01*
X122020967Y-97364285D02*
X121735253Y-97164285D01*
X122020967Y-97021428D02*
X121420967Y-97021428D01*
X121420967Y-97021428D02*
X121420967Y-97249999D01*
X121420967Y-97249999D02*
X121449538Y-97307142D01*
X121449538Y-97307142D02*
X121478110Y-97335713D01*
X121478110Y-97335713D02*
X121535253Y-97364285D01*
X121535253Y-97364285D02*
X121620967Y-97364285D01*
X121620967Y-97364285D02*
X121678110Y-97335713D01*
X121678110Y-97335713D02*
X121706681Y-97307142D01*
X121706681Y-97307142D02*
X121735253Y-97249999D01*
X121735253Y-97249999D02*
X121735253Y-97021428D01*
X121420967Y-97564285D02*
X121420967Y-97935713D01*
X121420967Y-97935713D02*
X121649538Y-97735713D01*
X121649538Y-97735713D02*
X121649538Y-97821428D01*
X121649538Y-97821428D02*
X121678110Y-97878571D01*
X121678110Y-97878571D02*
X121706681Y-97907142D01*
X121706681Y-97907142D02*
X121763824Y-97935713D01*
X121763824Y-97935713D02*
X121906681Y-97935713D01*
X121906681Y-97935713D02*
X121963824Y-97907142D01*
X121963824Y-97907142D02*
X121992396Y-97878571D01*
X121992396Y-97878571D02*
X122020967Y-97821428D01*
X122020967Y-97821428D02*
X122020967Y-97649999D01*
X122020967Y-97649999D02*
X121992396Y-97592856D01*
X121992396Y-97592856D02*
X121963824Y-97564285D01*
X121420967Y-98478571D02*
X121420967Y-98192857D01*
X121420967Y-98192857D02*
X121706681Y-98164285D01*
X121706681Y-98164285D02*
X121678110Y-98192857D01*
X121678110Y-98192857D02*
X121649538Y-98250000D01*
X121649538Y-98250000D02*
X121649538Y-98392857D01*
X121649538Y-98392857D02*
X121678110Y-98450000D01*
X121678110Y-98450000D02*
X121706681Y-98478571D01*
X121706681Y-98478571D02*
X121763824Y-98507142D01*
X121763824Y-98507142D02*
X121906681Y-98507142D01*
X121906681Y-98507142D02*
X121963824Y-98478571D01*
X121963824Y-98478571D02*
X121992396Y-98450000D01*
X121992396Y-98450000D02*
X122020967Y-98392857D01*
X122020967Y-98392857D02*
X122020967Y-98250000D01*
X122020967Y-98250000D02*
X121992396Y-98192857D01*
X121992396Y-98192857D02*
X121963824Y-98164285D01*
X153770967Y-97364285D02*
X153485253Y-97164285D01*
X153770967Y-97021428D02*
X153170967Y-97021428D01*
X153170967Y-97021428D02*
X153170967Y-97249999D01*
X153170967Y-97249999D02*
X153199538Y-97307142D01*
X153199538Y-97307142D02*
X153228110Y-97335713D01*
X153228110Y-97335713D02*
X153285253Y-97364285D01*
X153285253Y-97364285D02*
X153370967Y-97364285D01*
X153370967Y-97364285D02*
X153428110Y-97335713D01*
X153428110Y-97335713D02*
X153456681Y-97307142D01*
X153456681Y-97307142D02*
X153485253Y-97249999D01*
X153485253Y-97249999D02*
X153485253Y-97021428D01*
X153228110Y-97592856D02*
X153199538Y-97621428D01*
X153199538Y-97621428D02*
X153170967Y-97678571D01*
X153170967Y-97678571D02*
X153170967Y-97821428D01*
X153170967Y-97821428D02*
X153199538Y-97878571D01*
X153199538Y-97878571D02*
X153228110Y-97907142D01*
X153228110Y-97907142D02*
X153285253Y-97935713D01*
X153285253Y-97935713D02*
X153342396Y-97935713D01*
X153342396Y-97935713D02*
X153428110Y-97907142D01*
X153428110Y-97907142D02*
X153770967Y-97564285D01*
X153770967Y-97564285D02*
X153770967Y-97935713D01*
X153170967Y-98307142D02*
X153170967Y-98364285D01*
X153170967Y-98364285D02*
X153199538Y-98421428D01*
X153199538Y-98421428D02*
X153228110Y-98450000D01*
X153228110Y-98450000D02*
X153285253Y-98478571D01*
X153285253Y-98478571D02*
X153399538Y-98507142D01*
X153399538Y-98507142D02*
X153542396Y-98507142D01*
X153542396Y-98507142D02*
X153656681Y-98478571D01*
X153656681Y-98478571D02*
X153713824Y-98450000D01*
X153713824Y-98450000D02*
X153742396Y-98421428D01*
X153742396Y-98421428D02*
X153770967Y-98364285D01*
X153770967Y-98364285D02*
X153770967Y-98307142D01*
X153770967Y-98307142D02*
X153742396Y-98250000D01*
X153742396Y-98250000D02*
X153713824Y-98221428D01*
X153713824Y-98221428D02*
X153656681Y-98192857D01*
X153656681Y-98192857D02*
X153542396Y-98164285D01*
X153542396Y-98164285D02*
X153399538Y-98164285D01*
X153399538Y-98164285D02*
X153285253Y-98192857D01*
X153285253Y-98192857D02*
X153228110Y-98221428D01*
X153228110Y-98221428D02*
X153199538Y-98250000D01*
X153199538Y-98250000D02*
X153170967Y-98307142D01*
X117020967Y-97364285D02*
X116735253Y-97164285D01*
X117020967Y-97021428D02*
X116420967Y-97021428D01*
X116420967Y-97021428D02*
X116420967Y-97249999D01*
X116420967Y-97249999D02*
X116449538Y-97307142D01*
X116449538Y-97307142D02*
X116478110Y-97335713D01*
X116478110Y-97335713D02*
X116535253Y-97364285D01*
X116535253Y-97364285D02*
X116620967Y-97364285D01*
X116620967Y-97364285D02*
X116678110Y-97335713D01*
X116678110Y-97335713D02*
X116706681Y-97307142D01*
X116706681Y-97307142D02*
X116735253Y-97249999D01*
X116735253Y-97249999D02*
X116735253Y-97021428D01*
X116478110Y-97592856D02*
X116449538Y-97621428D01*
X116449538Y-97621428D02*
X116420967Y-97678571D01*
X116420967Y-97678571D02*
X116420967Y-97821428D01*
X116420967Y-97821428D02*
X116449538Y-97878571D01*
X116449538Y-97878571D02*
X116478110Y-97907142D01*
X116478110Y-97907142D02*
X116535253Y-97935713D01*
X116535253Y-97935713D02*
X116592396Y-97935713D01*
X116592396Y-97935713D02*
X116678110Y-97907142D01*
X116678110Y-97907142D02*
X117020967Y-97564285D01*
X117020967Y-97564285D02*
X117020967Y-97935713D01*
X116420967Y-98135714D02*
X116420967Y-98535714D01*
X116420967Y-98535714D02*
X117020967Y-98278571D01*
X157463824Y-123864285D02*
X157492396Y-123835713D01*
X157492396Y-123835713D02*
X157520967Y-123749999D01*
X157520967Y-123749999D02*
X157520967Y-123692856D01*
X157520967Y-123692856D02*
X157492396Y-123607142D01*
X157492396Y-123607142D02*
X157435253Y-123549999D01*
X157435253Y-123549999D02*
X157378110Y-123521428D01*
X157378110Y-123521428D02*
X157263824Y-123492856D01*
X157263824Y-123492856D02*
X157178110Y-123492856D01*
X157178110Y-123492856D02*
X157063824Y-123521428D01*
X157063824Y-123521428D02*
X157006681Y-123549999D01*
X157006681Y-123549999D02*
X156949538Y-123607142D01*
X156949538Y-123607142D02*
X156920967Y-123692856D01*
X156920967Y-123692856D02*
X156920967Y-123749999D01*
X156920967Y-123749999D02*
X156949538Y-123835713D01*
X156949538Y-123835713D02*
X156978110Y-123864285D01*
X157520967Y-124435713D02*
X157520967Y-124092856D01*
X157520967Y-124264285D02*
X156920967Y-124264285D01*
X156920967Y-124264285D02*
X157006681Y-124207142D01*
X157006681Y-124207142D02*
X157063824Y-124149999D01*
X157063824Y-124149999D02*
X157092396Y-124092856D01*
X157520967Y-125007142D02*
X157520967Y-124664285D01*
X157520967Y-124835714D02*
X156920967Y-124835714D01*
X156920967Y-124835714D02*
X157006681Y-124778571D01*
X157006681Y-124778571D02*
X157063824Y-124721428D01*
X157063824Y-124721428D02*
X157092396Y-124664285D01*
X120020967Y-97364285D02*
X119735253Y-97164285D01*
X120020967Y-97021428D02*
X119420967Y-97021428D01*
X119420967Y-97021428D02*
X119420967Y-97249999D01*
X119420967Y-97249999D02*
X119449538Y-97307142D01*
X119449538Y-97307142D02*
X119478110Y-97335713D01*
X119478110Y-97335713D02*
X119535253Y-97364285D01*
X119535253Y-97364285D02*
X119620967Y-97364285D01*
X119620967Y-97364285D02*
X119678110Y-97335713D01*
X119678110Y-97335713D02*
X119706681Y-97307142D01*
X119706681Y-97307142D02*
X119735253Y-97249999D01*
X119735253Y-97249999D02*
X119735253Y-97021428D01*
X119420967Y-97564285D02*
X119420967Y-97935713D01*
X119420967Y-97935713D02*
X119649538Y-97735713D01*
X119649538Y-97735713D02*
X119649538Y-97821428D01*
X119649538Y-97821428D02*
X119678110Y-97878571D01*
X119678110Y-97878571D02*
X119706681Y-97907142D01*
X119706681Y-97907142D02*
X119763824Y-97935713D01*
X119763824Y-97935713D02*
X119906681Y-97935713D01*
X119906681Y-97935713D02*
X119963824Y-97907142D01*
X119963824Y-97907142D02*
X119992396Y-97878571D01*
X119992396Y-97878571D02*
X120020967Y-97821428D01*
X120020967Y-97821428D02*
X120020967Y-97649999D01*
X120020967Y-97649999D02*
X119992396Y-97592856D01*
X119992396Y-97592856D02*
X119963824Y-97564285D01*
X119420967Y-98135714D02*
X119420967Y-98507142D01*
X119420967Y-98507142D02*
X119649538Y-98307142D01*
X119649538Y-98307142D02*
X119649538Y-98392857D01*
X119649538Y-98392857D02*
X119678110Y-98450000D01*
X119678110Y-98450000D02*
X119706681Y-98478571D01*
X119706681Y-98478571D02*
X119763824Y-98507142D01*
X119763824Y-98507142D02*
X119906681Y-98507142D01*
X119906681Y-98507142D02*
X119963824Y-98478571D01*
X119963824Y-98478571D02*
X119992396Y-98450000D01*
X119992396Y-98450000D02*
X120020967Y-98392857D01*
X120020967Y-98392857D02*
X120020967Y-98221428D01*
X120020967Y-98221428D02*
X119992396Y-98164285D01*
X119992396Y-98164285D02*
X119963824Y-98135714D01*
X147520967Y-103364285D02*
X147235253Y-103164285D01*
X147520967Y-103021428D02*
X146920967Y-103021428D01*
X146920967Y-103021428D02*
X146920967Y-103249999D01*
X146920967Y-103249999D02*
X146949538Y-103307142D01*
X146949538Y-103307142D02*
X146978110Y-103335713D01*
X146978110Y-103335713D02*
X147035253Y-103364285D01*
X147035253Y-103364285D02*
X147120967Y-103364285D01*
X147120967Y-103364285D02*
X147178110Y-103335713D01*
X147178110Y-103335713D02*
X147206681Y-103307142D01*
X147206681Y-103307142D02*
X147235253Y-103249999D01*
X147235253Y-103249999D02*
X147235253Y-103021428D01*
X146920967Y-103564285D02*
X146920967Y-103935713D01*
X146920967Y-103935713D02*
X147149538Y-103735713D01*
X147149538Y-103735713D02*
X147149538Y-103821428D01*
X147149538Y-103821428D02*
X147178110Y-103878571D01*
X147178110Y-103878571D02*
X147206681Y-103907142D01*
X147206681Y-103907142D02*
X147263824Y-103935713D01*
X147263824Y-103935713D02*
X147406681Y-103935713D01*
X147406681Y-103935713D02*
X147463824Y-103907142D01*
X147463824Y-103907142D02*
X147492396Y-103878571D01*
X147492396Y-103878571D02*
X147520967Y-103821428D01*
X147520967Y-103821428D02*
X147520967Y-103649999D01*
X147520967Y-103649999D02*
X147492396Y-103592856D01*
X147492396Y-103592856D02*
X147463824Y-103564285D01*
X146920967Y-104307142D02*
X146920967Y-104364285D01*
X146920967Y-104364285D02*
X146949538Y-104421428D01*
X146949538Y-104421428D02*
X146978110Y-104450000D01*
X146978110Y-104450000D02*
X147035253Y-104478571D01*
X147035253Y-104478571D02*
X147149538Y-104507142D01*
X147149538Y-104507142D02*
X147292396Y-104507142D01*
X147292396Y-104507142D02*
X147406681Y-104478571D01*
X147406681Y-104478571D02*
X147463824Y-104450000D01*
X147463824Y-104450000D02*
X147492396Y-104421428D01*
X147492396Y-104421428D02*
X147520967Y-104364285D01*
X147520967Y-104364285D02*
X147520967Y-104307142D01*
X147520967Y-104307142D02*
X147492396Y-104250000D01*
X147492396Y-104250000D02*
X147463824Y-104221428D01*
X147463824Y-104221428D02*
X147406681Y-104192857D01*
X147406681Y-104192857D02*
X147292396Y-104164285D01*
X147292396Y-104164285D02*
X147149538Y-104164285D01*
X147149538Y-104164285D02*
X147035253Y-104192857D01*
X147035253Y-104192857D02*
X146978110Y-104221428D01*
X146978110Y-104221428D02*
X146949538Y-104250000D01*
X146949538Y-104250000D02*
X146920967Y-104307142D01*
X156770967Y-95021428D02*
X156170967Y-95021428D01*
X156170967Y-95021428D02*
X156170967Y-95164285D01*
X156170967Y-95164285D02*
X156199538Y-95249999D01*
X156199538Y-95249999D02*
X156256681Y-95307142D01*
X156256681Y-95307142D02*
X156313824Y-95335713D01*
X156313824Y-95335713D02*
X156428110Y-95364285D01*
X156428110Y-95364285D02*
X156513824Y-95364285D01*
X156513824Y-95364285D02*
X156628110Y-95335713D01*
X156628110Y-95335713D02*
X156685253Y-95307142D01*
X156685253Y-95307142D02*
X156742396Y-95249999D01*
X156742396Y-95249999D02*
X156770967Y-95164285D01*
X156770967Y-95164285D02*
X156770967Y-95021428D01*
X156770967Y-95935713D02*
X156770967Y-95592856D01*
X156770967Y-95764285D02*
X156170967Y-95764285D01*
X156170967Y-95764285D02*
X156256681Y-95707142D01*
X156256681Y-95707142D02*
X156313824Y-95649999D01*
X156313824Y-95649999D02*
X156342396Y-95592856D01*
X156370967Y-96450000D02*
X156770967Y-96450000D01*
X156142396Y-96307142D02*
X156570967Y-96164285D01*
X156570967Y-96164285D02*
X156570967Y-96535714D01*
X164713824Y-124900000D02*
X164742396Y-124871428D01*
X164742396Y-124871428D02*
X164770967Y-124785714D01*
X164770967Y-124785714D02*
X164770967Y-124728571D01*
X164770967Y-124728571D02*
X164742396Y-124642857D01*
X164742396Y-124642857D02*
X164685253Y-124585714D01*
X164685253Y-124585714D02*
X164628110Y-124557143D01*
X164628110Y-124557143D02*
X164513824Y-124528571D01*
X164513824Y-124528571D02*
X164428110Y-124528571D01*
X164428110Y-124528571D02*
X164313824Y-124557143D01*
X164313824Y-124557143D02*
X164256681Y-124585714D01*
X164256681Y-124585714D02*
X164199538Y-124642857D01*
X164199538Y-124642857D02*
X164170967Y-124728571D01*
X164170967Y-124728571D02*
X164170967Y-124785714D01*
X164170967Y-124785714D02*
X164199538Y-124871428D01*
X164199538Y-124871428D02*
X164228110Y-124900000D01*
X164170967Y-125100000D02*
X164170967Y-125500000D01*
X164170967Y-125500000D02*
X164770967Y-125242857D01*
D13*
X150021071Y-103364285D02*
X149735357Y-103164285D01*
X150021071Y-103021428D02*
X149421071Y-103021428D01*
X149421071Y-103021428D02*
X149421071Y-103249999D01*
X149421071Y-103249999D02*
X149449642Y-103307142D01*
X149449642Y-103307142D02*
X149478214Y-103335713D01*
X149478214Y-103335713D02*
X149535357Y-103364285D01*
X149535357Y-103364285D02*
X149621071Y-103364285D01*
X149621071Y-103364285D02*
X149678214Y-103335713D01*
X149678214Y-103335713D02*
X149706785Y-103307142D01*
X149706785Y-103307142D02*
X149735357Y-103249999D01*
X149735357Y-103249999D02*
X149735357Y-103021428D01*
X149478214Y-103592856D02*
X149449642Y-103621428D01*
X149449642Y-103621428D02*
X149421071Y-103678571D01*
X149421071Y-103678571D02*
X149421071Y-103821428D01*
X149421071Y-103821428D02*
X149449642Y-103878571D01*
X149449642Y-103878571D02*
X149478214Y-103907142D01*
X149478214Y-103907142D02*
X149535357Y-103935713D01*
X149535357Y-103935713D02*
X149592500Y-103935713D01*
X149592500Y-103935713D02*
X149678214Y-103907142D01*
X149678214Y-103907142D02*
X150021071Y-103564285D01*
X150021071Y-103564285D02*
X150021071Y-103935713D01*
X149678214Y-104278571D02*
X149649642Y-104221428D01*
X149649642Y-104221428D02*
X149621071Y-104192857D01*
X149621071Y-104192857D02*
X149563928Y-104164285D01*
X149563928Y-104164285D02*
X149535357Y-104164285D01*
X149535357Y-104164285D02*
X149478214Y-104192857D01*
X149478214Y-104192857D02*
X149449642Y-104221428D01*
X149449642Y-104221428D02*
X149421071Y-104278571D01*
X149421071Y-104278571D02*
X149421071Y-104392857D01*
X149421071Y-104392857D02*
X149449642Y-104450000D01*
X149449642Y-104450000D02*
X149478214Y-104478571D01*
X149478214Y-104478571D02*
X149535357Y-104507142D01*
X149535357Y-104507142D02*
X149563928Y-104507142D01*
X149563928Y-104507142D02*
X149621071Y-104478571D01*
X149621071Y-104478571D02*
X149649642Y-104450000D01*
X149649642Y-104450000D02*
X149678214Y-104392857D01*
X149678214Y-104392857D02*
X149678214Y-104278571D01*
X149678214Y-104278571D02*
X149706785Y-104221428D01*
X149706785Y-104221428D02*
X149735357Y-104192857D01*
X149735357Y-104192857D02*
X149792500Y-104164285D01*
X149792500Y-104164285D02*
X149906785Y-104164285D01*
X149906785Y-104164285D02*
X149963928Y-104192857D01*
X149963928Y-104192857D02*
X149992500Y-104221428D01*
X149992500Y-104221428D02*
X150021071Y-104278571D01*
X150021071Y-104278571D02*
X150021071Y-104392857D01*
X150021071Y-104392857D02*
X149992500Y-104450000D01*
X149992500Y-104450000D02*
X149963928Y-104478571D01*
X149963928Y-104478571D02*
X149906785Y-104507142D01*
X149906785Y-104507142D02*
X149792500Y-104507142D01*
X149792500Y-104507142D02*
X149735357Y-104478571D01*
X149735357Y-104478571D02*
X149706785Y-104450000D01*
X149706785Y-104450000D02*
X149678214Y-104392857D01*
D12*
X152770967Y-97364285D02*
X152485253Y-97164285D01*
X152770967Y-97021428D02*
X152170967Y-97021428D01*
X152170967Y-97021428D02*
X152170967Y-97249999D01*
X152170967Y-97249999D02*
X152199538Y-97307142D01*
X152199538Y-97307142D02*
X152228110Y-97335713D01*
X152228110Y-97335713D02*
X152285253Y-97364285D01*
X152285253Y-97364285D02*
X152370967Y-97364285D01*
X152370967Y-97364285D02*
X152428110Y-97335713D01*
X152428110Y-97335713D02*
X152456681Y-97307142D01*
X152456681Y-97307142D02*
X152485253Y-97249999D01*
X152485253Y-97249999D02*
X152485253Y-97021428D01*
X152228110Y-97592856D02*
X152199538Y-97621428D01*
X152199538Y-97621428D02*
X152170967Y-97678571D01*
X152170967Y-97678571D02*
X152170967Y-97821428D01*
X152170967Y-97821428D02*
X152199538Y-97878571D01*
X152199538Y-97878571D02*
X152228110Y-97907142D01*
X152228110Y-97907142D02*
X152285253Y-97935713D01*
X152285253Y-97935713D02*
X152342396Y-97935713D01*
X152342396Y-97935713D02*
X152428110Y-97907142D01*
X152428110Y-97907142D02*
X152770967Y-97564285D01*
X152770967Y-97564285D02*
X152770967Y-97935713D01*
X152228110Y-98164285D02*
X152199538Y-98192857D01*
X152199538Y-98192857D02*
X152170967Y-98250000D01*
X152170967Y-98250000D02*
X152170967Y-98392857D01*
X152170967Y-98392857D02*
X152199538Y-98450000D01*
X152199538Y-98450000D02*
X152228110Y-98478571D01*
X152228110Y-98478571D02*
X152285253Y-98507142D01*
X152285253Y-98507142D02*
X152342396Y-98507142D01*
X152342396Y-98507142D02*
X152428110Y-98478571D01*
X152428110Y-98478571D02*
X152770967Y-98135714D01*
X152770967Y-98135714D02*
X152770967Y-98507142D01*
X151770967Y-97364285D02*
X151485253Y-97164285D01*
X151770967Y-97021428D02*
X151170967Y-97021428D01*
X151170967Y-97021428D02*
X151170967Y-97249999D01*
X151170967Y-97249999D02*
X151199538Y-97307142D01*
X151199538Y-97307142D02*
X151228110Y-97335713D01*
X151228110Y-97335713D02*
X151285253Y-97364285D01*
X151285253Y-97364285D02*
X151370967Y-97364285D01*
X151370967Y-97364285D02*
X151428110Y-97335713D01*
X151428110Y-97335713D02*
X151456681Y-97307142D01*
X151456681Y-97307142D02*
X151485253Y-97249999D01*
X151485253Y-97249999D02*
X151485253Y-97021428D01*
X151228110Y-97592856D02*
X151199538Y-97621428D01*
X151199538Y-97621428D02*
X151170967Y-97678571D01*
X151170967Y-97678571D02*
X151170967Y-97821428D01*
X151170967Y-97821428D02*
X151199538Y-97878571D01*
X151199538Y-97878571D02*
X151228110Y-97907142D01*
X151228110Y-97907142D02*
X151285253Y-97935713D01*
X151285253Y-97935713D02*
X151342396Y-97935713D01*
X151342396Y-97935713D02*
X151428110Y-97907142D01*
X151428110Y-97907142D02*
X151770967Y-97564285D01*
X151770967Y-97564285D02*
X151770967Y-97935713D01*
X151170967Y-98135714D02*
X151170967Y-98507142D01*
X151170967Y-98507142D02*
X151399538Y-98307142D01*
X151399538Y-98307142D02*
X151399538Y-98392857D01*
X151399538Y-98392857D02*
X151428110Y-98450000D01*
X151428110Y-98450000D02*
X151456681Y-98478571D01*
X151456681Y-98478571D02*
X151513824Y-98507142D01*
X151513824Y-98507142D02*
X151656681Y-98507142D01*
X151656681Y-98507142D02*
X151713824Y-98478571D01*
X151713824Y-98478571D02*
X151742396Y-98450000D01*
X151742396Y-98450000D02*
X151770967Y-98392857D01*
X151770967Y-98392857D02*
X151770967Y-98221428D01*
X151770967Y-98221428D02*
X151742396Y-98164285D01*
X151742396Y-98164285D02*
X151713824Y-98135714D01*
X117020967Y-95021428D02*
X116420967Y-95021428D01*
X116420967Y-95021428D02*
X116420967Y-95164285D01*
X116420967Y-95164285D02*
X116449538Y-95249999D01*
X116449538Y-95249999D02*
X116506681Y-95307142D01*
X116506681Y-95307142D02*
X116563824Y-95335713D01*
X116563824Y-95335713D02*
X116678110Y-95364285D01*
X116678110Y-95364285D02*
X116763824Y-95364285D01*
X116763824Y-95364285D02*
X116878110Y-95335713D01*
X116878110Y-95335713D02*
X116935253Y-95307142D01*
X116935253Y-95307142D02*
X116992396Y-95249999D01*
X116992396Y-95249999D02*
X117020967Y-95164285D01*
X117020967Y-95164285D02*
X117020967Y-95021428D01*
X116478110Y-95592856D02*
X116449538Y-95621428D01*
X116449538Y-95621428D02*
X116420967Y-95678571D01*
X116420967Y-95678571D02*
X116420967Y-95821428D01*
X116420967Y-95821428D02*
X116449538Y-95878571D01*
X116449538Y-95878571D02*
X116478110Y-95907142D01*
X116478110Y-95907142D02*
X116535253Y-95935713D01*
X116535253Y-95935713D02*
X116592396Y-95935713D01*
X116592396Y-95935713D02*
X116678110Y-95907142D01*
X116678110Y-95907142D02*
X117020967Y-95564285D01*
X117020967Y-95564285D02*
X117020967Y-95935713D01*
X116478110Y-96164285D02*
X116449538Y-96192857D01*
X116449538Y-96192857D02*
X116420967Y-96250000D01*
X116420967Y-96250000D02*
X116420967Y-96392857D01*
X116420967Y-96392857D02*
X116449538Y-96450000D01*
X116449538Y-96450000D02*
X116478110Y-96478571D01*
X116478110Y-96478571D02*
X116535253Y-96507142D01*
X116535253Y-96507142D02*
X116592396Y-96507142D01*
X116592396Y-96507142D02*
X116678110Y-96478571D01*
X116678110Y-96478571D02*
X117020967Y-96135714D01*
X117020967Y-96135714D02*
X117020967Y-96507142D01*
D14*
X167171000Y-91268000D02*
G75*
G02*
X166409000Y-91268000I-381000J0D01*
G01*
X166409000Y-91268000D02*
G75*
G02*
X167171000Y-91268000I381000J0D01*
G01*
D15*
X116040000Y-89935000D02*
X116040000Y-87250000D01*
X117960000Y-87250000D02*
X117960000Y-89935000D01*
X117960000Y-89935000D02*
X116040000Y-89935000D01*
X133540000Y-89935000D02*
X133540000Y-87250000D01*
X135460000Y-87250000D02*
X135460000Y-89935000D01*
X135460000Y-89935000D02*
X133540000Y-89935000D01*
X128765000Y-91522936D02*
X128765000Y-91977064D01*
X130235000Y-91522936D02*
X130235000Y-91977064D01*
X131040000Y-89935000D02*
X131040000Y-87250000D01*
X132960000Y-87250000D02*
X132960000Y-89935000D01*
X132960000Y-89935000D02*
X131040000Y-89935000D01*
X126040000Y-89935000D02*
X126040000Y-87250000D01*
X127960000Y-87250000D02*
X127960000Y-89935000D01*
X127960000Y-89935000D02*
X126040000Y-89935000D01*
X145290000Y-89935000D02*
X145290000Y-87250000D01*
X147210000Y-87250000D02*
X147210000Y-89935000D01*
X147210000Y-89935000D02*
X145290000Y-89935000D01*
X137540000Y-89935000D02*
X137540000Y-87250000D01*
X139460000Y-87250000D02*
X139460000Y-89935000D01*
X139460000Y-89935000D02*
X137540000Y-89935000D01*
X157740000Y-118359420D02*
X157740000Y-118640580D01*
X158760000Y-118359420D02*
X158760000Y-118640580D01*
X137765000Y-91522936D02*
X137765000Y-91977064D01*
X139235000Y-91522936D02*
X139235000Y-91977064D01*
X116265000Y-91522936D02*
X116265000Y-91977064D01*
X117735000Y-91522936D02*
X117735000Y-91977064D01*
X148015000Y-91522936D02*
X148015000Y-91977064D01*
X149485000Y-91522936D02*
X149485000Y-91977064D01*
X153015000Y-91522936D02*
X153015000Y-91977064D01*
X154485000Y-91522936D02*
X154485000Y-91977064D01*
X161490000Y-116884420D02*
X161490000Y-117165580D01*
X162510000Y-116884420D02*
X162510000Y-117165580D01*
X147790000Y-89935000D02*
X147790000Y-87250000D01*
X149710000Y-87250000D02*
X149710000Y-89935000D01*
X149710000Y-89935000D02*
X147790000Y-89935000D01*
X121040000Y-89935000D02*
X121040000Y-87250000D01*
X122960000Y-87250000D02*
X122960000Y-89935000D01*
X122960000Y-89935000D02*
X121040000Y-89935000D01*
X121265000Y-91522936D02*
X121265000Y-91977064D01*
X122735000Y-91522936D02*
X122735000Y-91977064D01*
X161490000Y-124609420D02*
X161490000Y-124890580D01*
X162510000Y-124609420D02*
X162510000Y-124890580D01*
X140205436Y-95265000D02*
X140659564Y-95265000D01*
X140205436Y-96735000D02*
X140659564Y-96735000D01*
X161490000Y-120859420D02*
X161490000Y-121140580D01*
X162510000Y-120859420D02*
X162510000Y-121140580D01*
X165350000Y-113700000D02*
X165350000Y-114300000D01*
X166050000Y-115000000D02*
X167450000Y-115000000D01*
X167450000Y-113000000D02*
X166050000Y-113000000D01*
X168150000Y-114300000D02*
X168150000Y-113700000D01*
X165350000Y-113700000D02*
G75*
G02*
X166050000Y-113000000I699999J1D01*
G01*
X166050000Y-115000000D02*
G75*
G02*
X165350000Y-114300000I-1J699999D01*
G01*
X167450000Y-113000000D02*
G75*
G02*
X168150000Y-113700000I0J-700000D01*
G01*
X168150000Y-114300000D02*
G75*
G02*
X167450000Y-115000000I-700000J0D01*
G01*
X160350000Y-113700000D02*
X160350000Y-114300000D01*
X161050000Y-115000000D02*
X162450000Y-115000000D01*
X162450000Y-113000000D02*
X161050000Y-113000000D01*
X163150000Y-114300000D02*
X163150000Y-113700000D01*
X160350000Y-113700000D02*
G75*
G02*
X161050000Y-113000000I699999J1D01*
G01*
X161050000Y-115000000D02*
G75*
G02*
X160350000Y-114300000I-1J699999D01*
G01*
X162450000Y-113000000D02*
G75*
G02*
X163150000Y-113700000I0J-700000D01*
G01*
X163150000Y-114300000D02*
G75*
G02*
X162450000Y-115000000I-700000J0D01*
G01*
X133765000Y-91522936D02*
X133765000Y-91977064D01*
X135235000Y-91522936D02*
X135235000Y-91977064D01*
X150290000Y-89935000D02*
X150290000Y-87250000D01*
X152210000Y-87250000D02*
X152210000Y-89935000D01*
X152210000Y-89935000D02*
X150290000Y-89935000D01*
X142790000Y-89935000D02*
X142790000Y-87250000D01*
X144710000Y-87250000D02*
X144710000Y-89935000D01*
X144710000Y-89935000D02*
X142790000Y-89935000D01*
X164990000Y-121109420D02*
X164990000Y-121390580D01*
X166010000Y-121109420D02*
X166010000Y-121390580D01*
X136367936Y-95265000D02*
X136822064Y-95265000D01*
X136367936Y-96735000D02*
X136822064Y-96735000D01*
X155290000Y-89935000D02*
X155290000Y-87250000D01*
X157210000Y-87250000D02*
X157210000Y-89935000D01*
X157210000Y-89935000D02*
X155290000Y-89935000D01*
X140040000Y-89935000D02*
X140040000Y-87250000D01*
X141960000Y-87250000D02*
X141960000Y-89935000D01*
X141960000Y-89935000D02*
X140040000Y-89935000D01*
X164990000Y-117359420D02*
X164990000Y-117640580D01*
X166010000Y-117359420D02*
X166010000Y-117640580D01*
X123765000Y-91522936D02*
X123765000Y-91977064D01*
X125235000Y-91522936D02*
X125235000Y-91977064D01*
X123540000Y-89935000D02*
X123540000Y-87250000D01*
X125460000Y-87250000D02*
X125460000Y-89935000D01*
X125460000Y-89935000D02*
X123540000Y-89935000D01*
X155515000Y-91522936D02*
X155515000Y-91977064D01*
X156985000Y-91522936D02*
X156985000Y-91977064D01*
X150515000Y-91522936D02*
X150515000Y-91977064D01*
X151985000Y-91522936D02*
X151985000Y-91977064D01*
X128540000Y-89935000D02*
X128540000Y-87250000D01*
X130460000Y-87250000D02*
X130460000Y-89935000D01*
X130460000Y-89935000D02*
X128540000Y-89935000D01*
X155350000Y-113700000D02*
X155350000Y-114300000D01*
X156050000Y-115000000D02*
X157450000Y-115000000D01*
X157450000Y-113000000D02*
X156050000Y-113000000D01*
X158150000Y-114300000D02*
X158150000Y-113700000D01*
X155350000Y-113700000D02*
G75*
G02*
X156050000Y-113000000I699999J1D01*
G01*
X156050000Y-115000000D02*
G75*
G02*
X155350000Y-114300000I-1J699999D01*
G01*
X157450000Y-113000000D02*
G75*
G02*
X158150000Y-113700000I0J-700000D01*
G01*
X158150000Y-114300000D02*
G75*
G02*
X157450000Y-115000000I-700000J0D01*
G01*
X151515000Y-100772936D02*
X151515000Y-101227064D01*
X152985000Y-100772936D02*
X152985000Y-101227064D01*
X157740000Y-129859420D02*
X157740000Y-130140580D01*
X158760000Y-129859420D02*
X158760000Y-130140580D01*
X131265000Y-91522936D02*
X131265000Y-91977064D01*
X132735000Y-91522936D02*
X132735000Y-91977064D01*
X145515000Y-91522936D02*
X145515000Y-91977064D01*
X146985000Y-91522936D02*
X146985000Y-91977064D01*
X118765000Y-91522936D02*
X118765000Y-91977064D01*
X120235000Y-91522936D02*
X120235000Y-91977064D01*
X157740000Y-124109420D02*
X157740000Y-124390580D01*
X158760000Y-124109420D02*
X158760000Y-124390580D01*
X126265000Y-91522936D02*
X126265000Y-91977064D01*
X127735000Y-91522936D02*
X127735000Y-91977064D01*
X146515000Y-100772936D02*
X146515000Y-101227064D01*
X147985000Y-100772936D02*
X147985000Y-101227064D01*
X152790000Y-89935000D02*
X152790000Y-87250000D01*
X154710000Y-87250000D02*
X154710000Y-89935000D01*
X154710000Y-89935000D02*
X152790000Y-89935000D01*
X164990000Y-124859420D02*
X164990000Y-125140580D01*
X166010000Y-124859420D02*
X166010000Y-125140580D01*
X149015000Y-100772936D02*
X149015000Y-101227064D01*
X150485000Y-100772936D02*
X150485000Y-101227064D01*
X143015000Y-91522936D02*
X143015000Y-91977064D01*
X144485000Y-91522936D02*
X144485000Y-91977064D01*
X140265000Y-91522936D02*
X140265000Y-91977064D01*
X141735000Y-91522936D02*
X141735000Y-91977064D01*
X118540000Y-89935000D02*
X118540000Y-87250000D01*
X120460000Y-87250000D02*
X120460000Y-89935000D01*
X120460000Y-89935000D02*
X118540000Y-89935000D01*
%LPC*%
G36*
X166600000Y-114750000D02*
G01*
X166900000Y-114750000D01*
X166900000Y-113250000D01*
X166600000Y-113250000D01*
X166600000Y-114750000D01*
G37*
G36*
X161600000Y-114750000D02*
G01*
X161900000Y-114750000D01*
X161900000Y-113250000D01*
X161600000Y-113250000D01*
X161600000Y-114750000D01*
G37*
G36*
X156600000Y-114750000D02*
G01*
X156900000Y-114750000D01*
X156900000Y-113250000D01*
X156600000Y-113250000D01*
X156600000Y-114750000D01*
G37*
D16*
G36*
X150092166Y-135311488D02*
G01*
X150105562Y-136710000D01*
X148769249Y-136710000D01*
X147432936Y-136710000D01*
X147432936Y-136459059D01*
X147432936Y-136208119D01*
X148453472Y-136194476D01*
X149474007Y-136180833D01*
X149499206Y-135046905D01*
X149524404Y-133912976D01*
X149801587Y-133912976D01*
X150078769Y-133912976D01*
X150092166Y-135311488D01*
G37*
G36*
X138650000Y-135038968D02*
G01*
X138650000Y-135744524D01*
X137868849Y-135744524D01*
X137087699Y-135744524D01*
X137087699Y-135996508D01*
X137087699Y-136248492D01*
X137868849Y-136248492D01*
X138650000Y-136248492D01*
X138650000Y-136475278D01*
X138650000Y-136702063D01*
X137642064Y-136702063D01*
X136634127Y-136702063D01*
X136634127Y-135996508D01*
X136634127Y-135290952D01*
X137415278Y-135290952D01*
X138196429Y-135290952D01*
X138196429Y-135038968D01*
X138196429Y-134786984D01*
X137415278Y-134786984D01*
X136634127Y-134786984D01*
X136634127Y-134560198D01*
X136634127Y-134333413D01*
X137642064Y-134333413D01*
X138650000Y-134333413D01*
X138650000Y-135038968D01*
G37*
G36*
X143920010Y-133897105D02*
G01*
X143996219Y-133946509D01*
X144038229Y-134049779D01*
X144057939Y-134222555D01*
X144067248Y-134480474D01*
X144081547Y-135021706D01*
X145165079Y-135021706D01*
X146248611Y-135021706D01*
X146263153Y-134520561D01*
X146269124Y-134383801D01*
X146285949Y-134181243D01*
X146308725Y-134028573D01*
X146334272Y-133951244D01*
X146339637Y-133945420D01*
X146448210Y-133902861D01*
X146647309Y-133898025D01*
X146903769Y-133912976D01*
X146917170Y-135313914D01*
X146930571Y-136714851D01*
X146614789Y-136699826D01*
X146299007Y-136684801D01*
X146284749Y-136116859D01*
X146270490Y-135548916D01*
X145176018Y-135562494D01*
X144081547Y-135576071D01*
X144067297Y-136143036D01*
X144053048Y-136710000D01*
X143726322Y-136710000D01*
X143399596Y-136710000D01*
X143412992Y-135311488D01*
X143426388Y-133912976D01*
X143623172Y-133896870D01*
X143797702Y-133885930D01*
X143920010Y-133897105D01*
G37*
G36*
X142645238Y-135325047D02*
G01*
X142645238Y-136710000D01*
X142317658Y-136710000D01*
X141990079Y-136710000D01*
X141990079Y-136281627D01*
X141990079Y-135853254D01*
X141036197Y-135853254D01*
X140082315Y-135853254D01*
X139977864Y-135986042D01*
X139928102Y-136064351D01*
X139885658Y-136207713D01*
X139873412Y-136414415D01*
X139873412Y-136710000D01*
X139539668Y-136710000D01*
X139205924Y-136710000D01*
X139227562Y-136257429D01*
X139229366Y-136220905D01*
X139244684Y-136003634D01*
X139267770Y-135858775D01*
X139304437Y-135761351D01*
X139360501Y-135686385D01*
X139369712Y-135676572D01*
X139436703Y-135596382D01*
X139436870Y-135544076D01*
X139372629Y-135478160D01*
X139328578Y-135422966D01*
X139258305Y-135262348D01*
X139207812Y-135053805D01*
X139190385Y-134889462D01*
X139848214Y-134889462D01*
X139848593Y-134924497D01*
X139872805Y-135115962D01*
X139938147Y-135234093D01*
X139954651Y-135248897D01*
X140005141Y-135277551D01*
X140083859Y-135298885D01*
X140205319Y-135314404D01*
X140384035Y-135325610D01*
X140634518Y-135334007D01*
X140971281Y-135341098D01*
X140972842Y-135341126D01*
X141271655Y-135344519D01*
X141535436Y-135343761D01*
X141747756Y-135339204D01*
X141892181Y-135331199D01*
X141952281Y-135320099D01*
X141958184Y-135309012D01*
X141974458Y-135217374D01*
X141985812Y-135059653D01*
X141990079Y-134862116D01*
X141990079Y-134442143D01*
X141038122Y-134442143D01*
X140782936Y-134442554D01*
X140510760Y-134445123D01*
X140313212Y-134451247D01*
X140175186Y-134462287D01*
X140081577Y-134479601D01*
X140017280Y-134504546D01*
X139967190Y-134538484D01*
X139896590Y-134613196D01*
X139858209Y-134720129D01*
X139848214Y-134889462D01*
X139190385Y-134889462D01*
X139184219Y-134831314D01*
X139194648Y-134628856D01*
X139223307Y-134469132D01*
X139263728Y-134312094D01*
X139320818Y-134187992D01*
X139405092Y-134092721D01*
X139527066Y-134022178D01*
X139697256Y-133972257D01*
X139926177Y-133938856D01*
X140224345Y-133917869D01*
X140602275Y-133905193D01*
X141070483Y-133896724D01*
X141393611Y-133892880D01*
X141730996Y-133891106D01*
X142027153Y-133891903D01*
X142267195Y-133895150D01*
X142436236Y-133900726D01*
X142519392Y-133908509D01*
X142645238Y-133940095D01*
X142645238Y-134862116D01*
X142645238Y-135325047D01*
G37*
D17*
X154000000Y-107250000D03*
D18*
X164500000Y-77800000D03*
D17*
X112000000Y-107250000D03*
X124000000Y-57250000D03*
X116920000Y-107250000D03*
D19*
X119460000Y-107250000D03*
X122000000Y-107250000D03*
D20*
X155500000Y-50782500D03*
D21*
X150500000Y-50782500D03*
D17*
X132500000Y-74750000D03*
X112000000Y-85000000D03*
X112750000Y-96250000D03*
X153412500Y-70750000D03*
D22*
X112090000Y-128240000D03*
D23*
X114630000Y-128240000D03*
X117170000Y-128240000D03*
X119710000Y-128240000D03*
X122250000Y-128240000D03*
X124790000Y-128240000D03*
X127330000Y-128240000D03*
X129870000Y-128240000D03*
X132410000Y-128240000D03*
X134950000Y-128240000D03*
X137490000Y-128240000D03*
X140030000Y-128240000D03*
X142570000Y-128240000D03*
X145110000Y-128240000D03*
X147650000Y-128240000D03*
D22*
X112090000Y-113000000D03*
D23*
X114630000Y-113000000D03*
X117170000Y-113000000D03*
X119710000Y-113000000D03*
X122250000Y-113000000D03*
X124790000Y-113000000D03*
X127330000Y-113000000D03*
X129870000Y-113000000D03*
X132410000Y-113000000D03*
X134950000Y-113000000D03*
X137490000Y-113000000D03*
X140030000Y-113000000D03*
X142570000Y-113000000D03*
X145110000Y-113000000D03*
X147650000Y-113000000D03*
D17*
X153412500Y-57500000D03*
D20*
X130000000Y-50750000D03*
D21*
X125000000Y-50750000D03*
D18*
X115800000Y-77800000D03*
X164500000Y-58750000D03*
D17*
X116960000Y-85000000D03*
D19*
X119500000Y-85000000D03*
X122040000Y-85000000D03*
X124580000Y-85000000D03*
X127120000Y-85000000D03*
X129660000Y-85000000D03*
X132200000Y-85000000D03*
X134740000Y-85000000D03*
D17*
X133750000Y-61750000D03*
D24*
X146212500Y-69210000D03*
X149612500Y-69210000D03*
X146212500Y-59290000D03*
X149612500Y-59290000D03*
D17*
X142750000Y-48500000D03*
X157250000Y-81000000D03*
D25*
X166000000Y-133750000D03*
D17*
X125750000Y-107250000D03*
D19*
X128290000Y-107250000D03*
X130830000Y-107250000D03*
X133370000Y-107250000D03*
X135910000Y-107250000D03*
X138450000Y-107250000D03*
X140990000Y-107250000D03*
X143530000Y-107250000D03*
D18*
X115800000Y-58750000D03*
D17*
X137250000Y-48500000D03*
X133080000Y-135000000D03*
D19*
X130540000Y-135000000D03*
X128000000Y-135000000D03*
X125460000Y-135000000D03*
X122920000Y-135000000D03*
X120380000Y-135000000D03*
D25*
X114250000Y-49750000D03*
D17*
X112750000Y-100000000D03*
D26*
X166790000Y-95840000D03*
X164250000Y-95840000D03*
X166790000Y-98380000D03*
X164250000Y-98380000D03*
X166790000Y-100920000D03*
X164250000Y-100920000D03*
X166790000Y-103460000D03*
X164250000Y-103460000D03*
X166790000Y-106000000D03*
X164250000Y-106000000D03*
D17*
X138500000Y-85000000D03*
D19*
X141040000Y-85000000D03*
X143580000Y-85000000D03*
X146120000Y-85000000D03*
X148660000Y-85000000D03*
X151200000Y-85000000D03*
X153740000Y-85000000D03*
X156280000Y-85000000D03*
D25*
X114250000Y-133750000D03*
D17*
X160560000Y-134750000D03*
D19*
X158020000Y-134750000D03*
X155480000Y-134750000D03*
X152940000Y-134750000D03*
D25*
X166000000Y-49750000D03*
D27*
X117000000Y-89187500D03*
X117000000Y-87312500D03*
X134500000Y-89187500D03*
X134500000Y-87312500D03*
D28*
X129500000Y-90837500D03*
X129500000Y-92662500D03*
D27*
X132000000Y-89187500D03*
X132000000Y-87312500D03*
X127000000Y-89187500D03*
X127000000Y-87312500D03*
X146250000Y-89187500D03*
X146250000Y-87312500D03*
X138500000Y-89187500D03*
X138500000Y-87312500D03*
D29*
X158250000Y-117725000D03*
X158250000Y-119275000D03*
D28*
X138500000Y-90837500D03*
X138500000Y-92662500D03*
X117000000Y-90837500D03*
X117000000Y-92662500D03*
X148750000Y-90837500D03*
X148750000Y-92662500D03*
X153750000Y-90837500D03*
X153750000Y-92662500D03*
D29*
X162000000Y-116250000D03*
X162000000Y-117800000D03*
D27*
X148750000Y-89187500D03*
X148750000Y-87312500D03*
X122000000Y-89187500D03*
X122000000Y-87312500D03*
D28*
X122000000Y-90837500D03*
X122000000Y-92662500D03*
D29*
X162000000Y-123975000D03*
X162000000Y-125525000D03*
D30*
X139520000Y-96000000D03*
X141345000Y-96000000D03*
D29*
X162000000Y-120225000D03*
X162000000Y-121775000D03*
D31*
X166100000Y-114000000D03*
D32*
X167400000Y-114000000D03*
D31*
X161100000Y-114000000D03*
D32*
X162400000Y-114000000D03*
D28*
X134500000Y-90837500D03*
X134500000Y-92662500D03*
D27*
X151250000Y-89187500D03*
X151250000Y-87312500D03*
X143750000Y-89187500D03*
X143750000Y-87312500D03*
D29*
X165500000Y-120475000D03*
X165500000Y-122025000D03*
D30*
X135682500Y-96000000D03*
X137507500Y-96000000D03*
D27*
X156250000Y-89187500D03*
X156250000Y-87312500D03*
X141000000Y-89187500D03*
X141000000Y-87312500D03*
D29*
X165500000Y-116725000D03*
X165500000Y-118275000D03*
D28*
X124500000Y-90837500D03*
X124500000Y-92662500D03*
D27*
X124500000Y-89187500D03*
X124500000Y-87312500D03*
D28*
X156250000Y-90837500D03*
X156250000Y-92662500D03*
X151250000Y-90837500D03*
X151250000Y-92662500D03*
D27*
X129500000Y-89187500D03*
X129500000Y-87312500D03*
D31*
X156100000Y-114000000D03*
D32*
X157400000Y-114000000D03*
D28*
X152250000Y-100087500D03*
X152250000Y-101912500D03*
D29*
X158250000Y-129225000D03*
X158250000Y-130775000D03*
D28*
X132000000Y-90837500D03*
X132000000Y-92662500D03*
X146250000Y-90837500D03*
X146250000Y-92662500D03*
X119500000Y-90837500D03*
X119500000Y-92662500D03*
D29*
X158250000Y-123475000D03*
X158250000Y-125025000D03*
D28*
X127000000Y-90837500D03*
X127000000Y-92662500D03*
X147250000Y-100087500D03*
X147250000Y-101912500D03*
D27*
X153750000Y-89187500D03*
X153750000Y-87312500D03*
D29*
X165500000Y-124225000D03*
X165500000Y-125775000D03*
D28*
X149750000Y-100087500D03*
X149750000Y-101912500D03*
X143750000Y-90837500D03*
X143750000Y-92662500D03*
X141000000Y-90837500D03*
X141000000Y-92662500D03*
D27*
X119500000Y-89187500D03*
X119500000Y-87312500D03*
%LPD*%
M02*
