G04 #@! TF.GenerationSoftware,KiCad,Pcbnew,9.0.3*
G04 #@! TF.CreationDate,2025-08-25T22:34:56-05:00*
G04 #@! TF.ProjectId,TestBoard_TPS27SA08-Q1,54657374-426f-4617-9264-5f5450533237,rev?*
G04 #@! TF.SameCoordinates,Original*
G04 #@! TF.FileFunction,Paste,Top*
G04 #@! TF.FilePolarity,Positive*
%FSLAX46Y46*%
G04 Gerber Fmt 4.6, Leading zero omitted, Abs format (unit mm)*
G04 Created by KiCad (PCBNEW 9.0.3) date 2025-08-25 22:34:56*
%MOMM*%
%LPD*%
G01*
G04 APERTURE LIST*
G04 Aperture macros list*
%AMRoundRect*
0 Rectangle with rounded corners*
0 $1 Rounding radius*
0 $2 $3 $4 $5 $6 $7 $8 $9 X,Y pos of 4 corners*
0 Add a 4 corners polygon primitive as box body*
4,1,4,$2,$3,$4,$5,$6,$7,$8,$9,$2,$3,0*
0 Add four circle primitives for the rounded corners*
1,1,$1+$1,$2,$3*
1,1,$1+$1,$4,$5*
1,1,$1+$1,$6,$7*
1,1,$1+$1,$8,$9*
0 Add four rect primitives between the rounded corners*
20,1,$1+$1,$2,$3,$4,$5,0*
20,1,$1+$1,$4,$5,$6,$7,0*
20,1,$1+$1,$6,$7,$8,$9,0*
20,1,$1+$1,$8,$9,$2,$3,0*%
G04 Aperture macros list end*
%ADD10RoundRect,0.250000X-0.262500X-0.450000X0.262500X-0.450000X0.262500X0.450000X-0.262500X0.450000X0*%
%ADD11RoundRect,0.250000X-0.250000X-0.475000X0.250000X-0.475000X0.250000X0.475000X-0.250000X0.475000X0*%
%ADD12RoundRect,0.250000X-0.450000X0.262500X-0.450000X-0.262500X0.450000X-0.262500X0.450000X0.262500X0*%
%ADD13RoundRect,0.407500X0.415000X0.407500X-0.415000X0.407500X-0.415000X-0.407500X0.415000X-0.407500X0*%
%ADD14RoundRect,0.102500X0.257500X0.102500X-0.257500X0.102500X-0.257500X-0.102500X0.257500X-0.102500X0*%
%ADD15R,0.510000X0.585000*%
%ADD16R,0.410000X0.470000*%
%ADD17RoundRect,0.250000X0.262500X0.450000X-0.262500X0.450000X-0.262500X-0.450000X0.262500X-0.450000X0*%
%ADD18RoundRect,0.247500X0.247500X-0.822500X0.247500X0.822500X-0.247500X0.822500X-0.247500X-0.822500X0*%
%ADD19RoundRect,0.100000X0.100000X-0.687500X0.100000X0.687500X-0.100000X0.687500X-0.100000X-0.687500X0*%
%ADD20RoundRect,0.250000X-0.475000X0.250000X-0.475000X-0.250000X0.475000X-0.250000X0.475000X0.250000X0*%
%ADD21R,0.700000X0.700000*%
%ADD22R,1.520000X2.160000*%
%ADD23RoundRect,0.250000X0.250000X0.475000X-0.250000X0.475000X-0.250000X-0.475000X0.250000X-0.475000X0*%
%ADD24RoundRect,0.250000X0.900000X-1.000000X0.900000X1.000000X-0.900000X1.000000X-0.900000X-1.000000X0*%
%ADD25RoundRect,0.045000X0.355000X-0.105000X0.355000X0.105000X-0.355000X0.105000X-0.355000X-0.105000X0*%
%ADD26RoundRect,0.067500X0.207500X-0.157500X0.207500X0.157500X-0.207500X0.157500X-0.207500X-0.157500X0*%
%ADD27RoundRect,0.045000X0.230000X-0.105000X0.230000X0.105000X-0.230000X0.105000X-0.230000X-0.105000X0*%
%ADD28RoundRect,0.250000X0.450000X-0.262500X0.450000X0.262500X-0.450000X0.262500X-0.450000X-0.262500X0*%
%ADD29RoundRect,0.090000X-0.660000X-0.360000X0.660000X-0.360000X0.660000X0.360000X-0.660000X0.360000X0*%
%ADD30RoundRect,0.225000X0.225000X0.375000X-0.225000X0.375000X-0.225000X-0.375000X0.225000X-0.375000X0*%
%ADD31RoundRect,0.150000X0.150000X-0.875000X0.150000X0.875000X-0.150000X0.875000X-0.150000X-0.875000X0*%
G04 APERTURE END LIST*
D10*
X127425000Y-61000000D03*
X129250000Y-61000000D03*
D11*
X135395000Y-103900000D03*
X137295000Y-103900000D03*
D12*
X135412500Y-73750000D03*
X135412500Y-75575000D03*
X123750000Y-72087500D03*
X123750000Y-73912500D03*
D11*
X112137500Y-93250000D03*
X114037500Y-93250000D03*
D10*
X127425000Y-63000000D03*
X129250000Y-63000000D03*
D13*
X126642500Y-68600000D03*
X126642500Y-66670000D03*
X124697500Y-68600000D03*
X124697500Y-66670000D03*
D14*
X129465000Y-69540000D03*
X129465000Y-68270000D03*
X129465000Y-67000000D03*
X129465000Y-65730000D03*
D15*
X126750000Y-69907500D03*
X126750000Y-65362500D03*
D16*
X123880000Y-69850000D03*
X123880000Y-65420000D03*
D17*
X137000000Y-79500000D03*
X135175000Y-79500000D03*
D18*
X138797500Y-68050000D03*
X140027500Y-68050000D03*
D19*
X137137500Y-70912500D03*
X137787500Y-70912500D03*
X138437500Y-70912500D03*
X139087500Y-70912500D03*
X139737500Y-70912500D03*
X140387500Y-70912500D03*
X141037500Y-70912500D03*
X141687500Y-70912500D03*
X141687500Y-65187500D03*
X141037500Y-65187500D03*
X140387500Y-65187500D03*
X139737500Y-65187500D03*
X139087500Y-65187500D03*
X138437500Y-65187500D03*
X137787500Y-65187500D03*
X137137500Y-65187500D03*
D20*
X132662500Y-69300000D03*
X132662500Y-71200000D03*
D21*
X163150000Y-118165000D03*
X164250000Y-118165000D03*
X164250000Y-116335000D03*
X163150000Y-116335000D03*
D22*
X147250000Y-101880000D03*
X149790000Y-101880000D03*
X152330000Y-101880000D03*
X154870000Y-101880000D03*
X154870000Y-93620000D03*
X152330000Y-93620000D03*
X149790000Y-93620000D03*
X147250000Y-93620000D03*
D10*
X112175000Y-89250000D03*
X114000000Y-89250000D03*
D23*
X137362500Y-77412500D03*
X135462500Y-77412500D03*
D12*
X143412500Y-73750000D03*
X143412500Y-75575000D03*
D10*
X112175000Y-91250000D03*
X114000000Y-91250000D03*
D24*
X153912500Y-66650000D03*
X153912500Y-62350000D03*
D12*
X143162500Y-77200000D03*
X143162500Y-79025000D03*
D25*
X167300000Y-124250000D03*
D26*
X167425000Y-124925000D03*
X166075000Y-124925000D03*
D27*
X166075000Y-124250000D03*
D26*
X166075000Y-123575000D03*
X167425000Y-123575000D03*
D11*
X147212500Y-73750000D03*
X149112500Y-73750000D03*
D12*
X140662500Y-60887500D03*
X140662500Y-62712500D03*
D25*
X167300000Y-116750000D03*
D26*
X167425000Y-117425000D03*
X166075000Y-117425000D03*
D27*
X166075000Y-116750000D03*
D26*
X166075000Y-116075000D03*
X167425000Y-116075000D03*
D12*
X137412500Y-73750000D03*
X137412500Y-75575000D03*
D28*
X139412500Y-75575000D03*
X139412500Y-73750000D03*
D29*
X155800000Y-128350000D03*
X155800000Y-131650000D03*
X160700000Y-131650000D03*
X160700000Y-128350000D03*
X155800000Y-116850000D03*
X155800000Y-120150000D03*
X160700000Y-120150000D03*
X160700000Y-116850000D03*
D17*
X141325000Y-77412500D03*
X139500000Y-77412500D03*
D21*
X163150000Y-121915000D03*
X164250000Y-121915000D03*
X164250000Y-120085000D03*
X163150000Y-120085000D03*
D28*
X141412500Y-75575000D03*
X141412500Y-73750000D03*
D20*
X134662500Y-69300000D03*
X134662500Y-71200000D03*
D25*
X167300000Y-120500000D03*
D26*
X167425000Y-121175000D03*
X166075000Y-121175000D03*
D27*
X166075000Y-120500000D03*
D26*
X166075000Y-119825000D03*
X167425000Y-119825000D03*
D29*
X155800000Y-122600000D03*
X155800000Y-125900000D03*
X160700000Y-125900000D03*
X160700000Y-122600000D03*
D12*
X138662500Y-60887500D03*
X138662500Y-62712500D03*
D21*
X163150000Y-125665000D03*
X164250000Y-125665000D03*
X164250000Y-123835000D03*
X163150000Y-123835000D03*
D24*
X119750000Y-70150000D03*
X119750000Y-65850000D03*
D30*
X128900000Y-72250000D03*
X125600000Y-72250000D03*
D12*
X136662500Y-60887500D03*
X136662500Y-62712500D03*
D31*
X125495000Y-101400000D03*
X126765000Y-101400000D03*
X128035000Y-101400000D03*
X129305000Y-101400000D03*
X130575000Y-101400000D03*
X131845000Y-101400000D03*
X133115000Y-101400000D03*
X134385000Y-101400000D03*
X135655000Y-101400000D03*
X136925000Y-101400000D03*
X138195000Y-101400000D03*
X139465000Y-101400000D03*
X140735000Y-101400000D03*
X142005000Y-101400000D03*
X142005000Y-92100000D03*
X140735000Y-92100000D03*
X139465000Y-92100000D03*
X138195000Y-92100000D03*
X136925000Y-92100000D03*
X135655000Y-92100000D03*
X134385000Y-92100000D03*
X133115000Y-92100000D03*
X131845000Y-92100000D03*
X130575000Y-92100000D03*
X129305000Y-92100000D03*
X128035000Y-92100000D03*
X126765000Y-92100000D03*
X125495000Y-92100000D03*
M02*
