G04 #@! TF.GenerationSoftware,KiCad,Pcbnew,9.0.3*
G04 #@! TF.CreationDate,2025-08-25T22:34:56-05:00*
G04 #@! TF.ProjectId,TestBoard_TPS27SA08-Q1,54657374-426f-4617-9264-5f5450533237,rev?*
G04 #@! TF.SameCoordinates,Original*
G04 #@! TF.FileFunction,Soldermask,Top*
G04 #@! TF.FilePolarity,Negative*
%FSLAX46Y46*%
G04 Gerber Fmt 4.6, Leading zero omitted, Abs format (unit mm)*
G04 Created by KiCad (PCBNEW 9.0.3) date 2025-08-25 22:34:56*
%MOMM*%
%LPD*%
G01*
G04 APERTURE LIST*
G04 Aperture macros list*
%AMRoundRect*
0 Rectangle with rounded corners*
0 $1 Rounding radius*
0 $2 $3 $4 $5 $6 $7 $8 $9 X,Y pos of 4 corners*
0 Add a 4 corners polygon primitive as box body*
4,1,4,$2,$3,$4,$5,$6,$7,$8,$9,$2,$3,0*
0 Add four circle primitives for the rounded corners*
1,1,$1+$1,$2,$3*
1,1,$1+$1,$4,$5*
1,1,$1+$1,$6,$7*
1,1,$1+$1,$8,$9*
0 Add four rect primitives between the rounded corners*
20,1,$1+$1,$2,$3,$4,$5,0*
20,1,$1+$1,$4,$5,$6,$7,0*
20,1,$1+$1,$6,$7,$8,$9,0*
20,1,$1+$1,$8,$9,$2,$3,0*%
%AMFreePoly0*
4,1,23,0.500000,-0.750000,0.000000,-0.750000,0.000000,-0.745722,-0.065263,-0.745722,-0.191342,-0.711940,-0.304381,-0.646677,-0.396677,-0.554381,-0.461940,-0.441342,-0.495722,-0.315263,-0.495722,-0.250000,-0.500000,-0.250000,-0.500000,0.250000,-0.495722,0.250000,-0.495722,0.315263,-0.461940,0.441342,-0.396677,0.554381,-0.304381,0.646677,-0.191342,0.711940,-0.065263,0.745722,0.000000,0.745722,
0.000000,0.750000,0.500000,0.750000,0.500000,-0.750000,0.500000,-0.750000,$1*%
%AMFreePoly1*
4,1,23,0.000000,0.745722,0.065263,0.745722,0.191342,0.711940,0.304381,0.646677,0.396677,0.554381,0.461940,0.441342,0.495722,0.315263,0.495722,0.250000,0.500000,0.250000,0.500000,-0.250000,0.495722,-0.250000,0.495722,-0.315263,0.461940,-0.441342,0.396677,-0.554381,0.304381,-0.646677,0.191342,-0.711940,0.065263,-0.745722,0.000000,-0.745722,0.000000,-0.750000,-0.500000,-0.750000,
-0.500000,0.750000,0.000000,0.750000,0.000000,0.745722,0.000000,0.745722,$1*%
G04 Aperture macros list end*
%ADD10RoundRect,0.250000X-0.262500X-0.450000X0.262500X-0.450000X0.262500X0.450000X-0.262500X0.450000X0*%
%ADD11R,1.700000X1.700000*%
%ADD12RoundRect,0.250000X-0.250000X-0.475000X0.250000X-0.475000X0.250000X0.475000X-0.250000X0.475000X0*%
%ADD13C,8.115000*%
%ADD14RoundRect,0.250000X-0.450000X0.262500X-0.450000X-0.262500X0.450000X-0.262500X0.450000X0.262500X0*%
%ADD15C,1.700000*%
%ADD16RoundRect,0.250001X1.149999X1.149999X-1.149999X1.149999X-1.149999X-1.149999X1.149999X-1.149999X0*%
%ADD17C,2.800000*%
%ADD18RoundRect,0.102500X0.257500X0.102500X-0.257500X0.102500X-0.257500X-0.102500X0.257500X-0.102500X0*%
%ADD19R,0.510000X0.585000*%
%ADD20R,3.990000X3.960000*%
%ADD21R,0.410000X0.470000*%
%ADD22RoundRect,0.102000X0.765000X-0.765000X0.765000X0.765000X-0.765000X0.765000X-0.765000X-0.765000X0*%
%ADD23C,1.734000*%
%ADD24RoundRect,0.250000X0.262500X0.450000X-0.262500X0.450000X-0.262500X-0.450000X0.262500X-0.450000X0*%
%ADD25R,2.460000X2.660000*%
%ADD26RoundRect,0.100000X0.100000X-0.687500X0.100000X0.687500X-0.100000X0.687500X-0.100000X-0.687500X0*%
%ADD27C,1.000000*%
%ADD28RoundRect,0.250000X-0.475000X0.250000X-0.475000X-0.250000X0.475000X-0.250000X0.475000X0.250000X0*%
%ADD29R,0.700000X0.700000*%
%ADD30R,1.520000X2.160000*%
%ADD31RoundRect,0.250000X0.250000X0.475000X-0.250000X0.475000X-0.250000X-0.475000X0.250000X-0.475000X0*%
%ADD32RoundRect,0.250000X0.900000X-1.000000X0.900000X1.000000X-0.900000X1.000000X-0.900000X-1.000000X0*%
%ADD33RoundRect,0.045000X0.355000X-0.105000X0.355000X0.105000X-0.355000X0.105000X-0.355000X-0.105000X0*%
%ADD34RoundRect,0.067500X0.207500X-0.157500X0.207500X0.157500X-0.207500X0.157500X-0.207500X-0.157500X0*%
%ADD35RoundRect,0.045000X0.230000X-0.105000X0.230000X0.105000X-0.230000X0.105000X-0.230000X-0.105000X0*%
%ADD36FreePoly0,0.000000*%
%ADD37FreePoly1,0.000000*%
%ADD38RoundRect,0.250000X0.450000X-0.262500X0.450000X0.262500X-0.450000X0.262500X-0.450000X-0.262500X0*%
%ADD39RoundRect,0.090000X-0.660000X-0.360000X0.660000X-0.360000X0.660000X0.360000X-0.660000X0.360000X0*%
%ADD40C,2.780000*%
%ADD41C,6.400000*%
%ADD42C,1.524000*%
%ADD43RoundRect,0.225000X0.225000X0.375000X-0.225000X0.375000X-0.225000X-0.375000X0.225000X-0.375000X0*%
%ADD44RoundRect,0.150000X0.150000X-0.875000X0.150000X0.875000X-0.150000X0.875000X-0.150000X-0.875000X0*%
G04 APERTURE END LIST*
G36*
X151700000Y-118500000D02*
G01*
X152000000Y-118500000D01*
X152000000Y-120000000D01*
X151700000Y-120000000D01*
X151700000Y-118500000D01*
G37*
G36*
X151750000Y-116000000D02*
G01*
X152050000Y-116000000D01*
X152050000Y-117500000D01*
X151750000Y-117500000D01*
X151750000Y-116000000D01*
G37*
D10*
X127425000Y-61000000D03*
X129250000Y-61000000D03*
D11*
X154000000Y-107250000D03*
D12*
X135395000Y-103900000D03*
X137295000Y-103900000D03*
D13*
X164500000Y-77800000D03*
D11*
X112000000Y-107250000D03*
D14*
X135412500Y-73750000D03*
X135412500Y-75575000D03*
X123750000Y-72087500D03*
X123750000Y-73912500D03*
D11*
X124000000Y-57250000D03*
D12*
X112137500Y-93250000D03*
X114037500Y-93250000D03*
D11*
X116920000Y-107250000D03*
D15*
X119460000Y-107250000D03*
X122000000Y-107250000D03*
D16*
X155500000Y-50782500D03*
D17*
X150500000Y-50782500D03*
D11*
X132500000Y-74750000D03*
X112000000Y-85000000D03*
X112750000Y-96250000D03*
X153412500Y-70750000D03*
D10*
X127425000Y-63000000D03*
X129250000Y-63000000D03*
D18*
X129465000Y-69540000D03*
X129465000Y-68270000D03*
X129465000Y-67000000D03*
X129465000Y-65730000D03*
D19*
X126750000Y-69907500D03*
X126750000Y-65362500D03*
D20*
X125670000Y-67635000D03*
D21*
X123880000Y-69850000D03*
X123880000Y-65420000D03*
D22*
X112090000Y-128240000D03*
D23*
X114630000Y-128240000D03*
X117170000Y-128240000D03*
X119710000Y-128240000D03*
X122250000Y-128240000D03*
X124790000Y-128240000D03*
X127330000Y-128240000D03*
X129870000Y-128240000D03*
X132410000Y-128240000D03*
X134950000Y-128240000D03*
X137490000Y-128240000D03*
X140030000Y-128240000D03*
X142570000Y-128240000D03*
X145110000Y-128240000D03*
X147650000Y-128240000D03*
D22*
X112090000Y-113000000D03*
D23*
X114630000Y-113000000D03*
X117170000Y-113000000D03*
X119710000Y-113000000D03*
X122250000Y-113000000D03*
X124790000Y-113000000D03*
X127330000Y-113000000D03*
X129870000Y-113000000D03*
X132410000Y-113000000D03*
X134950000Y-113000000D03*
X137490000Y-113000000D03*
X140030000Y-113000000D03*
X142570000Y-113000000D03*
X145110000Y-113000000D03*
X147650000Y-113000000D03*
D24*
X137000000Y-79500000D03*
X135175000Y-79500000D03*
D25*
X139412500Y-68050000D03*
D26*
X137137500Y-70912500D03*
X137787500Y-70912500D03*
X138437500Y-70912500D03*
X139087500Y-70912500D03*
X139737500Y-70912500D03*
X140387500Y-70912500D03*
X141037500Y-70912500D03*
X141687500Y-70912500D03*
X141687500Y-65187500D03*
X141037500Y-65187500D03*
X140387500Y-65187500D03*
X139737500Y-65187500D03*
X139087500Y-65187500D03*
X138437500Y-65187500D03*
X137787500Y-65187500D03*
X137137500Y-65187500D03*
D11*
X153412500Y-57500000D03*
D27*
X136662500Y-59000000D03*
D16*
X130000000Y-50750000D03*
D17*
X125000000Y-50750000D03*
D28*
X132662500Y-69300000D03*
X132662500Y-71200000D03*
D29*
X163150000Y-118165000D03*
X164250000Y-118165000D03*
X164250000Y-116335000D03*
X163150000Y-116335000D03*
D30*
X147250000Y-101880000D03*
X149790000Y-101880000D03*
X152330000Y-101880000D03*
X154870000Y-101880000D03*
X154870000Y-93620000D03*
X152330000Y-93620000D03*
X149790000Y-93620000D03*
X147250000Y-93620000D03*
D10*
X112175000Y-89250000D03*
X114000000Y-89250000D03*
D31*
X137362500Y-77412500D03*
X135462500Y-77412500D03*
D14*
X143412500Y-73750000D03*
X143412500Y-75575000D03*
D13*
X115800000Y-77800000D03*
D10*
X112175000Y-91250000D03*
X114000000Y-91250000D03*
D13*
X164500000Y-58750000D03*
D27*
X138912500Y-79612500D03*
D32*
X153912500Y-66650000D03*
X153912500Y-62350000D03*
D14*
X143162500Y-77200000D03*
X143162500Y-79025000D03*
D33*
X167300000Y-124250000D03*
D34*
X167425000Y-124925000D03*
X166075000Y-124925000D03*
D35*
X166075000Y-124250000D03*
D34*
X166075000Y-123575000D03*
X167425000Y-123575000D03*
D27*
X155000000Y-112500000D03*
D12*
X147212500Y-73750000D03*
X149112500Y-73750000D03*
D14*
X140662500Y-60887500D03*
X140662500Y-62712500D03*
D36*
X151200000Y-119250000D03*
D37*
X152500000Y-119250000D03*
D33*
X167300000Y-116750000D03*
D34*
X167425000Y-117425000D03*
X166075000Y-117425000D03*
D35*
X166075000Y-116750000D03*
D34*
X166075000Y-116075000D03*
X167425000Y-116075000D03*
D11*
X116960000Y-85000000D03*
D15*
X119500000Y-85000000D03*
X122040000Y-85000000D03*
X124580000Y-85000000D03*
X127120000Y-85000000D03*
X129660000Y-85000000D03*
X132200000Y-85000000D03*
X134740000Y-85000000D03*
D14*
X137412500Y-73750000D03*
X137412500Y-75575000D03*
D38*
X139412500Y-75575000D03*
X139412500Y-73750000D03*
D11*
X133750000Y-61750000D03*
D39*
X155800000Y-128350000D03*
X155800000Y-131650000D03*
X160700000Y-131650000D03*
X160700000Y-128350000D03*
D27*
X140662500Y-59000000D03*
D39*
X155800000Y-116850000D03*
X155800000Y-120150000D03*
X160700000Y-120150000D03*
X160700000Y-116850000D03*
D24*
X141325000Y-77412500D03*
X139500000Y-77412500D03*
D40*
X146212500Y-69210000D03*
X149612500Y-69210000D03*
X146212500Y-59290000D03*
X149612500Y-59290000D03*
D29*
X163150000Y-121915000D03*
X164250000Y-121915000D03*
X164250000Y-120085000D03*
X163150000Y-120085000D03*
D27*
X145412500Y-75500000D03*
D36*
X151250000Y-116750000D03*
D37*
X152550000Y-116750000D03*
D38*
X141412500Y-75575000D03*
X141412500Y-73750000D03*
D11*
X142750000Y-48500000D03*
X157250000Y-81000000D03*
D41*
X166000000Y-133750000D03*
D11*
X125750000Y-107250000D03*
D15*
X128290000Y-107250000D03*
X130830000Y-107250000D03*
X133370000Y-107250000D03*
X135910000Y-107250000D03*
X138450000Y-107250000D03*
X140990000Y-107250000D03*
X143530000Y-107250000D03*
D13*
X115800000Y-58750000D03*
D28*
X134662500Y-69300000D03*
X134662500Y-71200000D03*
D33*
X167300000Y-120500000D03*
D34*
X167425000Y-121175000D03*
X166075000Y-121175000D03*
D35*
X166075000Y-120500000D03*
D34*
X166075000Y-119825000D03*
X167425000Y-119825000D03*
D11*
X137250000Y-48500000D03*
D39*
X155800000Y-122600000D03*
X155800000Y-125900000D03*
X160700000Y-125900000D03*
X160700000Y-122600000D03*
D14*
X138662500Y-60887500D03*
X138662500Y-62712500D03*
D27*
X138662500Y-59000000D03*
D29*
X163150000Y-125665000D03*
X164250000Y-125665000D03*
X164250000Y-123835000D03*
X163150000Y-123835000D03*
D11*
X133080000Y-135000000D03*
D15*
X130540000Y-135000000D03*
X128000000Y-135000000D03*
X125460000Y-135000000D03*
X122920000Y-135000000D03*
X120380000Y-135000000D03*
D41*
X114250000Y-49750000D03*
D32*
X119750000Y-70150000D03*
X119750000Y-65850000D03*
D11*
X112750000Y-100000000D03*
D42*
X166790000Y-95840000D03*
X164250000Y-95840000D03*
X166790000Y-98380000D03*
X164250000Y-98380000D03*
X166790000Y-100920000D03*
X164250000Y-100920000D03*
X166790000Y-103460000D03*
X164250000Y-103460000D03*
X166790000Y-106000000D03*
X164250000Y-106000000D03*
D11*
X138500000Y-85000000D03*
D15*
X141040000Y-85000000D03*
X143580000Y-85000000D03*
X146120000Y-85000000D03*
X148660000Y-85000000D03*
X151200000Y-85000000D03*
X153740000Y-85000000D03*
X156280000Y-85000000D03*
D41*
X114250000Y-133750000D03*
D27*
X141012500Y-79612500D03*
D43*
X128900000Y-72250000D03*
X125600000Y-72250000D03*
D14*
X136662500Y-60887500D03*
X136662500Y-62712500D03*
D11*
X160560000Y-134750000D03*
D15*
X158020000Y-134750000D03*
X155480000Y-134750000D03*
X152940000Y-134750000D03*
D44*
X125495000Y-101400000D03*
X126765000Y-101400000D03*
X128035000Y-101400000D03*
X129305000Y-101400000D03*
X130575000Y-101400000D03*
X131845000Y-101400000D03*
X133115000Y-101400000D03*
X134385000Y-101400000D03*
X135655000Y-101400000D03*
X136925000Y-101400000D03*
X138195000Y-101400000D03*
X139465000Y-101400000D03*
X140735000Y-101400000D03*
X142005000Y-101400000D03*
X142005000Y-92100000D03*
X140735000Y-92100000D03*
X139465000Y-92100000D03*
X138195000Y-92100000D03*
X136925000Y-92100000D03*
X135655000Y-92100000D03*
X134385000Y-92100000D03*
X133115000Y-92100000D03*
X131845000Y-92100000D03*
X130575000Y-92100000D03*
X129305000Y-92100000D03*
X128035000Y-92100000D03*
X126765000Y-92100000D03*
X125495000Y-92100000D03*
D41*
X166000000Y-49750000D03*
M02*
