G04 #@! TF.GenerationSoftware,KiCad,Pcbnew,9.0.3*
G04 #@! TF.CreationDate,2025-08-25T22:34:56-05:00*
G04 #@! TF.ProjectId,TestBoard_TPS27SA08-Q1,54657374-426f-4617-9264-5f5450533237,rev?*
G04 #@! TF.SameCoordinates,Original*
G04 #@! TF.FileFunction,Copper,L1,Top*
G04 #@! TF.FilePolarity,Positive*
%FSLAX46Y46*%
G04 Gerber Fmt 4.6, Leading zero omitted, Abs format (unit mm)*
G04 Created by KiCad (PCBNEW 9.0.3) date 2025-08-25 22:34:56*
%MOMM*%
%LPD*%
G01*
G04 APERTURE LIST*
G04 Aperture macros list*
%AMRoundRect*
0 Rectangle with rounded corners*
0 $1 Rounding radius*
0 $2 $3 $4 $5 $6 $7 $8 $9 X,Y pos of 4 corners*
0 Add a 4 corners polygon primitive as box body*
4,1,4,$2,$3,$4,$5,$6,$7,$8,$9,$2,$3,0*
0 Add four circle primitives for the rounded corners*
1,1,$1+$1,$2,$3*
1,1,$1+$1,$4,$5*
1,1,$1+$1,$6,$7*
1,1,$1+$1,$8,$9*
0 Add four rect primitives between the rounded corners*
20,1,$1+$1,$2,$3,$4,$5,0*
20,1,$1+$1,$4,$5,$6,$7,0*
20,1,$1+$1,$6,$7,$8,$9,0*
20,1,$1+$1,$8,$9,$2,$3,0*%
%AMFreePoly0*
4,1,23,0.500000,-0.750000,0.000000,-0.750000,0.000000,-0.745722,-0.065263,-0.745722,-0.191342,-0.711940,-0.304381,-0.646677,-0.396677,-0.554381,-0.461940,-0.441342,-0.495722,-0.315263,-0.495722,-0.250000,-0.500000,-0.250000,-0.500000,0.250000,-0.495722,0.250000,-0.495722,0.315263,-0.461940,0.441342,-0.396677,0.554381,-0.304381,0.646677,-0.191342,0.711940,-0.065263,0.745722,0.000000,0.745722,
0.000000,0.750000,0.500000,0.750000,0.500000,-0.750000,0.500000,-0.750000,$1*%
%AMFreePoly1*
4,1,23,0.000000,0.745722,0.065263,0.745722,0.191342,0.711940,0.304381,0.646677,0.396677,0.554381,0.461940,0.441342,0.495722,0.315263,0.495722,0.250000,0.500000,0.250000,0.500000,-0.250000,0.495722,-0.250000,0.495722,-0.315263,0.461940,-0.441342,0.396677,-0.554381,0.304381,-0.646677,0.191342,-0.711940,0.065263,-0.745722,0.000000,-0.745722,0.000000,-0.750000,-0.500000,-0.750000,
-0.500000,0.750000,0.000000,0.750000,0.000000,0.745722,0.000000,0.745722,$1*%
G04 Aperture macros list end*
G04 #@! TA.AperFunction,EtchedComponent*
%ADD10C,0.000000*%
G04 #@! TD*
G04 #@! TA.AperFunction,SMDPad,CuDef*
%ADD11RoundRect,0.250000X-0.262500X-0.450000X0.262500X-0.450000X0.262500X0.450000X-0.262500X0.450000X0*%
G04 #@! TD*
G04 #@! TA.AperFunction,ComponentPad*
%ADD12R,1.700000X1.700000*%
G04 #@! TD*
G04 #@! TA.AperFunction,SMDPad,CuDef*
%ADD13RoundRect,0.250000X-0.250000X-0.475000X0.250000X-0.475000X0.250000X0.475000X-0.250000X0.475000X0*%
G04 #@! TD*
G04 #@! TA.AperFunction,ComponentPad*
%ADD14C,8.115000*%
G04 #@! TD*
G04 #@! TA.AperFunction,SMDPad,CuDef*
%ADD15RoundRect,0.250000X-0.450000X0.262500X-0.450000X-0.262500X0.450000X-0.262500X0.450000X0.262500X0*%
G04 #@! TD*
G04 #@! TA.AperFunction,ComponentPad*
%ADD16C,1.700000*%
G04 #@! TD*
G04 #@! TA.AperFunction,ComponentPad*
%ADD17RoundRect,0.250001X1.149999X1.149999X-1.149999X1.149999X-1.149999X-1.149999X1.149999X-1.149999X0*%
G04 #@! TD*
G04 #@! TA.AperFunction,ComponentPad*
%ADD18C,2.800000*%
G04 #@! TD*
G04 #@! TA.AperFunction,SMDPad,CuDef*
%ADD19C,0.500000*%
G04 #@! TD*
G04 #@! TA.AperFunction,SMDPad,CuDef*
%ADD20RoundRect,0.102500X0.257500X0.102500X-0.257500X0.102500X-0.257500X-0.102500X0.257500X-0.102500X0*%
G04 #@! TD*
G04 #@! TA.AperFunction,SMDPad,CuDef*
%ADD21R,0.510000X0.585000*%
G04 #@! TD*
G04 #@! TA.AperFunction,SMDPad,CuDef*
%ADD22R,3.990000X3.960000*%
G04 #@! TD*
G04 #@! TA.AperFunction,SMDPad,CuDef*
%ADD23R,0.410000X0.470000*%
G04 #@! TD*
G04 #@! TA.AperFunction,ComponentPad*
%ADD24R,1.530000X1.530000*%
G04 #@! TD*
G04 #@! TA.AperFunction,ComponentPad*
%ADD25C,1.530000*%
G04 #@! TD*
G04 #@! TA.AperFunction,SMDPad,CuDef*
%ADD26RoundRect,0.250000X0.262500X0.450000X-0.262500X0.450000X-0.262500X-0.450000X0.262500X-0.450000X0*%
G04 #@! TD*
G04 #@! TA.AperFunction,SMDPad,CuDef*
%ADD27RoundRect,0.100000X0.100000X-0.687500X0.100000X0.687500X-0.100000X0.687500X-0.100000X-0.687500X0*%
G04 #@! TD*
G04 #@! TA.AperFunction,HeatsinkPad*
%ADD28C,0.500000*%
G04 #@! TD*
G04 #@! TA.AperFunction,HeatsinkPad*
%ADD29R,5.000000X3.400000*%
G04 #@! TD*
G04 #@! TA.AperFunction,SMDPad,CuDef*
%ADD30C,1.000000*%
G04 #@! TD*
G04 #@! TA.AperFunction,SMDPad,CuDef*
%ADD31RoundRect,0.250000X-0.475000X0.250000X-0.475000X-0.250000X0.475000X-0.250000X0.475000X0.250000X0*%
G04 #@! TD*
G04 #@! TA.AperFunction,SMDPad,CuDef*
%ADD32R,0.700000X0.700000*%
G04 #@! TD*
G04 #@! TA.AperFunction,SMDPad,CuDef*
%ADD33R,1.520000X2.160000*%
G04 #@! TD*
G04 #@! TA.AperFunction,SMDPad,CuDef*
%ADD34RoundRect,0.250000X0.250000X0.475000X-0.250000X0.475000X-0.250000X-0.475000X0.250000X-0.475000X0*%
G04 #@! TD*
G04 #@! TA.AperFunction,SMDPad,CuDef*
%ADD35RoundRect,0.250000X0.900000X-1.000000X0.900000X1.000000X-0.900000X1.000000X-0.900000X-1.000000X0*%
G04 #@! TD*
G04 #@! TA.AperFunction,SMDPad,CuDef*
%ADD36RoundRect,0.045000X0.355000X-0.105000X0.355000X0.105000X-0.355000X0.105000X-0.355000X-0.105000X0*%
G04 #@! TD*
G04 #@! TA.AperFunction,SMDPad,CuDef*
%ADD37RoundRect,0.067500X0.207500X-0.157500X0.207500X0.157500X-0.207500X0.157500X-0.207500X-0.157500X0*%
G04 #@! TD*
G04 #@! TA.AperFunction,SMDPad,CuDef*
%ADD38RoundRect,0.045000X0.230000X-0.105000X0.230000X0.105000X-0.230000X0.105000X-0.230000X-0.105000X0*%
G04 #@! TD*
G04 #@! TA.AperFunction,SMDPad,CuDef*
%ADD39FreePoly0,0.000000*%
G04 #@! TD*
G04 #@! TA.AperFunction,SMDPad,CuDef*
%ADD40FreePoly1,0.000000*%
G04 #@! TD*
G04 #@! TA.AperFunction,SMDPad,CuDef*
%ADD41RoundRect,0.250000X0.450000X-0.262500X0.450000X0.262500X-0.450000X0.262500X-0.450000X-0.262500X0*%
G04 #@! TD*
G04 #@! TA.AperFunction,SMDPad,CuDef*
%ADD42RoundRect,0.090000X-0.660000X-0.360000X0.660000X-0.360000X0.660000X0.360000X-0.660000X0.360000X0*%
G04 #@! TD*
G04 #@! TA.AperFunction,ComponentPad*
%ADD43C,2.780000*%
G04 #@! TD*
G04 #@! TA.AperFunction,ComponentPad*
%ADD44C,6.400000*%
G04 #@! TD*
G04 #@! TA.AperFunction,ComponentPad*
%ADD45C,1.524000*%
G04 #@! TD*
G04 #@! TA.AperFunction,SMDPad,CuDef*
%ADD46RoundRect,0.225000X0.225000X0.375000X-0.225000X0.375000X-0.225000X-0.375000X0.225000X-0.375000X0*%
G04 #@! TD*
G04 #@! TA.AperFunction,SMDPad,CuDef*
%ADD47RoundRect,0.150000X0.150000X-0.875000X0.150000X0.875000X-0.150000X0.875000X-0.150000X-0.875000X0*%
G04 #@! TD*
G04 #@! TA.AperFunction,ViaPad*
%ADD48C,0.600000*%
G04 #@! TD*
G04 #@! TA.AperFunction,Conductor*
%ADD49C,0.200000*%
G04 #@! TD*
G04 #@! TA.AperFunction,Conductor*
%ADD50C,0.160000*%
G04 #@! TD*
G04 #@! TA.AperFunction,Conductor*
%ADD51C,0.400000*%
G04 #@! TD*
G04 #@! TA.AperFunction,Conductor*
%ADD52C,0.300000*%
G04 #@! TD*
G04 APERTURE END LIST*
D10*
G04 #@! TA.AperFunction,EtchedComponent*
G36*
X136412500Y-72250000D02*
G01*
X135912500Y-72250000D01*
X135912500Y-71250000D01*
X136412500Y-71250000D01*
X136412500Y-72250000D01*
G37*
G04 #@! TD.AperFunction*
D11*
X127425000Y-61000000D03*
X129250000Y-61000000D03*
D12*
X154000000Y-107250000D03*
D13*
X135395000Y-103900000D03*
X137295000Y-103900000D03*
D14*
X164500000Y-77800000D03*
D12*
X112000000Y-107250000D03*
D15*
X135412500Y-73750000D03*
X135412500Y-75575000D03*
X123750000Y-72087500D03*
X123750000Y-73912500D03*
D12*
X124000000Y-57250000D03*
D13*
X112137500Y-93250000D03*
X114037500Y-93250000D03*
D12*
X116920000Y-107250000D03*
D16*
X119460000Y-107250000D03*
X122000000Y-107250000D03*
D17*
X155500000Y-50782500D03*
D18*
X150500000Y-50782500D03*
D12*
X132500000Y-74750000D03*
X112000000Y-85000000D03*
X112750000Y-96250000D03*
D19*
X136162500Y-71250000D03*
X136162500Y-72250000D03*
D12*
X153412500Y-70750000D03*
D11*
X127425000Y-63000000D03*
X129250000Y-63000000D03*
D20*
X129465000Y-69540000D03*
X129465000Y-68270000D03*
X129465000Y-67000000D03*
X129465000Y-65730000D03*
D21*
X126750000Y-69907500D03*
X126750000Y-65362500D03*
D22*
X125670000Y-67635000D03*
D23*
X123880000Y-69850000D03*
X123880000Y-65420000D03*
D24*
X112090000Y-128240000D03*
D25*
X114630000Y-128240000D03*
X117170000Y-128240000D03*
X119710000Y-128240000D03*
X122250000Y-128240000D03*
X124790000Y-128240000D03*
X127330000Y-128240000D03*
X129870000Y-128240000D03*
X132410000Y-128240000D03*
X134950000Y-128240000D03*
X137490000Y-128240000D03*
X140030000Y-128240000D03*
X142570000Y-128240000D03*
X145110000Y-128240000D03*
X147650000Y-128240000D03*
D24*
X112090000Y-113000000D03*
D25*
X114630000Y-113000000D03*
X117170000Y-113000000D03*
X119710000Y-113000000D03*
X122250000Y-113000000D03*
X124790000Y-113000000D03*
X127330000Y-113000000D03*
X129870000Y-113000000D03*
X132410000Y-113000000D03*
X134950000Y-113000000D03*
X137490000Y-113000000D03*
X140030000Y-113000000D03*
X142570000Y-113000000D03*
X145110000Y-113000000D03*
X147650000Y-113000000D03*
D26*
X137000000Y-79500000D03*
X135175000Y-79500000D03*
D27*
X137137500Y-70912500D03*
X137787500Y-70912500D03*
X138437500Y-70912500D03*
X139087500Y-70912500D03*
X139737500Y-70912500D03*
X140387500Y-70912500D03*
X141037500Y-70912500D03*
X141687500Y-70912500D03*
X141687500Y-65187500D03*
X141037500Y-65187500D03*
X140387500Y-65187500D03*
X139737500Y-65187500D03*
X139087500Y-65187500D03*
X138437500Y-65187500D03*
X137787500Y-65187500D03*
X137137500Y-65187500D03*
D28*
X137612500Y-69250000D03*
X138812500Y-69250000D03*
X140012500Y-69250000D03*
X141212500Y-69250000D03*
X137612500Y-68050000D03*
X138812500Y-68050000D03*
D29*
X139412500Y-68050000D03*
D28*
X140012500Y-68050000D03*
X141212500Y-68050000D03*
X137612500Y-66850000D03*
X138812500Y-66850000D03*
X140012500Y-66850000D03*
X141212500Y-66850000D03*
D12*
X153412500Y-57500000D03*
D30*
X136662500Y-59000000D03*
D17*
X130000000Y-50750000D03*
D18*
X125000000Y-50750000D03*
D31*
X132662500Y-69300000D03*
X132662500Y-71200000D03*
D32*
X163150000Y-118165000D03*
X164250000Y-118165000D03*
X164250000Y-116335000D03*
X163150000Y-116335000D03*
D33*
X147250000Y-101880000D03*
X149790000Y-101880000D03*
X152330000Y-101880000D03*
X154870000Y-101880000D03*
X154870000Y-93620000D03*
X152330000Y-93620000D03*
X149790000Y-93620000D03*
X147250000Y-93620000D03*
D11*
X112175000Y-89250000D03*
X114000000Y-89250000D03*
D34*
X137362500Y-77412500D03*
X135462500Y-77412500D03*
D15*
X143412500Y-73750000D03*
X143412500Y-75575000D03*
D14*
X115800000Y-77800000D03*
D11*
X112175000Y-91250000D03*
X114000000Y-91250000D03*
D14*
X164500000Y-58750000D03*
D30*
X138912500Y-79612500D03*
D35*
X153912500Y-66650000D03*
X153912500Y-62350000D03*
D15*
X143162500Y-77200000D03*
X143162500Y-79025000D03*
D36*
X167300000Y-124250000D03*
D37*
X167425000Y-124925000D03*
X166075000Y-124925000D03*
D38*
X166075000Y-124250000D03*
D37*
X166075000Y-123575000D03*
X167425000Y-123575000D03*
D30*
X155000000Y-112500000D03*
D13*
X147212500Y-73750000D03*
X149112500Y-73750000D03*
D15*
X140662500Y-60887500D03*
X140662500Y-62712500D03*
D39*
X151200000Y-119250000D03*
D40*
X152500000Y-119250000D03*
D36*
X167300000Y-116750000D03*
D37*
X167425000Y-117425000D03*
X166075000Y-117425000D03*
D38*
X166075000Y-116750000D03*
D37*
X166075000Y-116075000D03*
X167425000Y-116075000D03*
D12*
X116960000Y-85000000D03*
D16*
X119500000Y-85000000D03*
X122040000Y-85000000D03*
X124580000Y-85000000D03*
X127120000Y-85000000D03*
X129660000Y-85000000D03*
X132200000Y-85000000D03*
X134740000Y-85000000D03*
D15*
X137412500Y-73750000D03*
X137412500Y-75575000D03*
D41*
X139412500Y-75575000D03*
X139412500Y-73750000D03*
D12*
X133750000Y-61750000D03*
D42*
X155800000Y-128350000D03*
X155800000Y-131650000D03*
X160700000Y-131650000D03*
X160700000Y-128350000D03*
D30*
X140662500Y-59000000D03*
D42*
X155800000Y-116850000D03*
X155800000Y-120150000D03*
X160700000Y-120150000D03*
X160700000Y-116850000D03*
D26*
X141325000Y-77412500D03*
X139500000Y-77412500D03*
D43*
X146212500Y-69210000D03*
X149612500Y-69210000D03*
X146212500Y-59290000D03*
X149612500Y-59290000D03*
D32*
X163150000Y-121915000D03*
X164250000Y-121915000D03*
X164250000Y-120085000D03*
X163150000Y-120085000D03*
D30*
X145412500Y-75500000D03*
D39*
X151250000Y-116750000D03*
D40*
X152550000Y-116750000D03*
D41*
X141412500Y-75575000D03*
X141412500Y-73750000D03*
D12*
X142750000Y-48500000D03*
X157250000Y-81000000D03*
D44*
X166000000Y-133750000D03*
D12*
X125750000Y-107250000D03*
D16*
X128290000Y-107250000D03*
X130830000Y-107250000D03*
X133370000Y-107250000D03*
X135910000Y-107250000D03*
X138450000Y-107250000D03*
X140990000Y-107250000D03*
X143530000Y-107250000D03*
D14*
X115800000Y-58750000D03*
D31*
X134662500Y-69300000D03*
X134662500Y-71200000D03*
D36*
X167300000Y-120500000D03*
D37*
X167425000Y-121175000D03*
X166075000Y-121175000D03*
D38*
X166075000Y-120500000D03*
D37*
X166075000Y-119825000D03*
X167425000Y-119825000D03*
D12*
X137250000Y-48500000D03*
D42*
X155800000Y-122600000D03*
X155800000Y-125900000D03*
X160700000Y-125900000D03*
X160700000Y-122600000D03*
D15*
X138662500Y-60887500D03*
X138662500Y-62712500D03*
D30*
X138662500Y-59000000D03*
D32*
X163150000Y-125665000D03*
X164250000Y-125665000D03*
X164250000Y-123835000D03*
X163150000Y-123835000D03*
D12*
X133080000Y-135000000D03*
D16*
X130540000Y-135000000D03*
X128000000Y-135000000D03*
X125460000Y-135000000D03*
X122920000Y-135000000D03*
X120380000Y-135000000D03*
D44*
X114250000Y-49750000D03*
D35*
X119750000Y-70150000D03*
X119750000Y-65850000D03*
D12*
X112750000Y-100000000D03*
D45*
X166790000Y-95840000D03*
X164250000Y-95840000D03*
X166790000Y-98380000D03*
X164250000Y-98380000D03*
X166790000Y-100920000D03*
X164250000Y-100920000D03*
X166790000Y-103460000D03*
X164250000Y-103460000D03*
X166790000Y-106000000D03*
X164250000Y-106000000D03*
D12*
X138500000Y-85000000D03*
D16*
X141040000Y-85000000D03*
X143580000Y-85000000D03*
X146120000Y-85000000D03*
X148660000Y-85000000D03*
X151200000Y-85000000D03*
X153740000Y-85000000D03*
X156280000Y-85000000D03*
D44*
X114250000Y-133750000D03*
D30*
X141012500Y-79612500D03*
D46*
X128900000Y-72250000D03*
X125600000Y-72250000D03*
D15*
X136662500Y-60887500D03*
X136662500Y-62712500D03*
D12*
X160560000Y-134750000D03*
D16*
X158020000Y-134750000D03*
X155480000Y-134750000D03*
X152940000Y-134750000D03*
D47*
X125495000Y-101400000D03*
X126765000Y-101400000D03*
X128035000Y-101400000D03*
X129305000Y-101400000D03*
X130575000Y-101400000D03*
X131845000Y-101400000D03*
X133115000Y-101400000D03*
X134385000Y-101400000D03*
X135655000Y-101400000D03*
X136925000Y-101400000D03*
X138195000Y-101400000D03*
X139465000Y-101400000D03*
X140735000Y-101400000D03*
X142005000Y-101400000D03*
X142005000Y-92100000D03*
X140735000Y-92100000D03*
X139465000Y-92100000D03*
X138195000Y-92100000D03*
X136925000Y-92100000D03*
X135655000Y-92100000D03*
X134385000Y-92100000D03*
X133115000Y-92100000D03*
X131845000Y-92100000D03*
X130575000Y-92100000D03*
X129305000Y-92100000D03*
X128035000Y-92100000D03*
X126765000Y-92100000D03*
X125495000Y-92100000D03*
D44*
X166000000Y-49750000D03*
D48*
X164250000Y-124750000D03*
X164250000Y-121000000D03*
X168001000Y-116750000D03*
X158250000Y-130775000D03*
X158250000Y-119275000D03*
X114037500Y-93250000D03*
X130750000Y-83500000D03*
X165500000Y-125775000D03*
X168001000Y-120500000D03*
X114000000Y-91250000D03*
X164000000Y-119000000D03*
X158250000Y-125025000D03*
X154500000Y-67250000D03*
X149112500Y-73750000D03*
X154500000Y-66000000D03*
X153250000Y-66000000D03*
X153250000Y-67250000D03*
X145250000Y-110500000D03*
X142264644Y-86514644D03*
X145250000Y-107500000D03*
X143750000Y-129139000D03*
X141500000Y-97250000D03*
X152250000Y-101912500D03*
X149750000Y-101912500D03*
X147250000Y-101880000D03*
X138500000Y-96000000D03*
X133588162Y-103143162D03*
X134250000Y-99650000D03*
X141000000Y-110500000D03*
X143500000Y-110500000D03*
X163750000Y-114000000D03*
X165500000Y-124225000D03*
X158250000Y-129225000D03*
X162000000Y-123975000D03*
X158250000Y-117725000D03*
X162000000Y-120225000D03*
X165500000Y-120475000D03*
X158250000Y-123475000D03*
X165500000Y-116725000D03*
X162000000Y-116250000D03*
X168000000Y-115500000D03*
X158750000Y-114000000D03*
X156100000Y-114000000D03*
X154250000Y-117750000D03*
X144751000Y-119250000D03*
X130488162Y-119238162D03*
X136662500Y-59000000D03*
X138662500Y-59000000D03*
X140662500Y-59000000D03*
X145412500Y-75500000D03*
X141012500Y-79612500D03*
X138900000Y-79600000D03*
D49*
X113750000Y-84448000D02*
X111000000Y-81698000D01*
X111000000Y-63200000D02*
X115750000Y-58450000D01*
X112175000Y-89250000D02*
X113750000Y-87675000D01*
X111000000Y-81698000D02*
X111000000Y-63200000D01*
X113750000Y-87675000D02*
X113750000Y-84448000D01*
X137362500Y-77412500D02*
X136000000Y-78775000D01*
X115250000Y-96250000D02*
X112750000Y-98750000D01*
D50*
X127330000Y-113000000D02*
X127330000Y-111037093D01*
D49*
X112750000Y-103580000D02*
X116420000Y-107250000D01*
D50*
X122451907Y-106159000D02*
X118011000Y-106159000D01*
D49*
X130517626Y-84061000D02*
X130345626Y-83889000D01*
X115250000Y-84488000D02*
X115250000Y-96250000D01*
X131182374Y-83861000D02*
X130982374Y-84061000D01*
X136000000Y-80500000D02*
X132639000Y-83861000D01*
X115849000Y-83889000D02*
X115250000Y-84488000D01*
D50*
X127330000Y-111037093D02*
X122451907Y-106159000D01*
D49*
X137412500Y-77362500D02*
X137362500Y-77412500D01*
D50*
X118011000Y-106159000D02*
X116920000Y-107250000D01*
D49*
X130345626Y-83889000D02*
X115849000Y-83889000D01*
X136000000Y-78775000D02*
X136000000Y-80500000D01*
X112750000Y-98750000D02*
X112750000Y-100000000D01*
X112750000Y-100000000D02*
X112750000Y-103580000D01*
X137412500Y-75575000D02*
X137412500Y-77362500D01*
X132639000Y-83861000D02*
X131182374Y-83861000D01*
X130982374Y-84061000D02*
X130517626Y-84061000D01*
D50*
X119460000Y-107250000D02*
X124790000Y-112580000D01*
D49*
X112137500Y-93250000D02*
X112137500Y-93612500D01*
X115448000Y-108500000D02*
X118210000Y-108500000D01*
X112750000Y-94225000D02*
X112750000Y-96250000D01*
X112137500Y-91287500D02*
X112175000Y-91250000D01*
X112175000Y-91075000D02*
X114000000Y-89250000D01*
X118210000Y-108500000D02*
X119460000Y-107250000D01*
X112175000Y-91250000D02*
X112175000Y-91075000D01*
X112137500Y-93612500D02*
X112750000Y-94225000D01*
X111639000Y-97361000D02*
X111639000Y-104691000D01*
X111639000Y-104691000D02*
X115448000Y-108500000D01*
X112137500Y-93250000D02*
X112137500Y-91287500D01*
X112750000Y-96250000D02*
X111639000Y-97361000D01*
D50*
X124790000Y-112580000D02*
X124790000Y-113000000D01*
X167300000Y-124250000D02*
X167296844Y-124250000D01*
X167300000Y-116750000D02*
X168001000Y-116750000D01*
D49*
X135412500Y-77362500D02*
X135462500Y-77412500D01*
D50*
X167300000Y-120500000D02*
X168001000Y-120500000D01*
X164250000Y-118165000D02*
X164250000Y-118750000D01*
X164250000Y-125665000D02*
X164250000Y-124750000D01*
D49*
X130750000Y-83500000D02*
X134750000Y-79500000D01*
D50*
X160700000Y-120150000D02*
X159125000Y-120150000D01*
X167296844Y-124250000D02*
X166909000Y-124637844D01*
X133370000Y-107250000D02*
X133945000Y-107250000D01*
D49*
X114000000Y-91250000D02*
X114000000Y-93212500D01*
D50*
X159125000Y-131650000D02*
X160700000Y-131650000D01*
D49*
X135175000Y-79500000D02*
X135175000Y-77700000D01*
X135175000Y-77700000D02*
X135462500Y-77412500D01*
D50*
X136925000Y-101400000D02*
X136925000Y-103530000D01*
X166909000Y-125091000D02*
X166225000Y-125775000D01*
X158250000Y-130775000D02*
X159125000Y-131650000D01*
X164250000Y-121915000D02*
X164250000Y-121000000D01*
D49*
X135412500Y-75575000D02*
X135412500Y-77362500D01*
X134750000Y-79500000D02*
X135175000Y-79500000D01*
X114000000Y-93212500D02*
X114037500Y-93250000D01*
D50*
X166909000Y-124637844D02*
X166909000Y-125091000D01*
X159125000Y-120150000D02*
X158250000Y-119275000D01*
X158250000Y-125025000D02*
X159125000Y-125900000D01*
X159125000Y-125900000D02*
X160700000Y-125900000D01*
X164250000Y-118750000D02*
X164000000Y-119000000D01*
X136925000Y-103530000D02*
X137295000Y-103900000D01*
X167300000Y-116750000D02*
X167553156Y-116750000D01*
X166225000Y-125775000D02*
X165500000Y-125775000D01*
X133945000Y-107250000D02*
X137295000Y-103900000D01*
D49*
X142412500Y-76450000D02*
X142412500Y-74750000D01*
X142412500Y-74750000D02*
X143412500Y-73750000D01*
X140974001Y-72936500D02*
X142599000Y-72936500D01*
X139737500Y-71699999D02*
X140974001Y-72936500D01*
X142599000Y-72936500D02*
X143412500Y-73750000D01*
X139737500Y-70912500D02*
X139737500Y-71699999D01*
X143162500Y-77200000D02*
X142412500Y-76450000D01*
X134662500Y-71200000D02*
X132662500Y-71200000D01*
D51*
X136162500Y-71250000D02*
X134712500Y-71250000D01*
X134712500Y-71250000D02*
X134662500Y-71200000D01*
D50*
X166075000Y-119825000D02*
X166075000Y-117425000D01*
D52*
X144141000Y-127290479D02*
X143750000Y-127681479D01*
D50*
X147250000Y-93620000D02*
X153210000Y-93620000D01*
D52*
X145250000Y-107500000D02*
X145250000Y-103500000D01*
D50*
X153331000Y-103201000D02*
X145549000Y-103201000D01*
D52*
X141500000Y-97250000D02*
X141500000Y-99750000D01*
X145250000Y-112860000D02*
X145250000Y-110500000D01*
D50*
X145549000Y-103201000D02*
X145250000Y-103500000D01*
D52*
X143750000Y-127681479D02*
X143750000Y-129139000D01*
X145250000Y-102500000D02*
X145250000Y-101787042D01*
X145110000Y-113000000D02*
X144141000Y-113969000D01*
X130830000Y-107250000D02*
X134180000Y-103900000D01*
D49*
X142937500Y-79025000D02*
X141325000Y-77412500D01*
D50*
X141500000Y-96000000D02*
X141500000Y-97250000D01*
X153210000Y-93620000D02*
X153750000Y-94160000D01*
D49*
X142264644Y-86514644D02*
X142264644Y-79922856D01*
D52*
X148860000Y-116750000D02*
X145110000Y-113000000D01*
X134180000Y-103900000D02*
X135395000Y-103900000D01*
D50*
X153750000Y-102782000D02*
X153331000Y-103201000D01*
D52*
X136750000Y-99750000D02*
X141250000Y-99750000D01*
X144141000Y-113969000D02*
X144141000Y-127290479D01*
X135655000Y-103640000D02*
X135655000Y-101400000D01*
D49*
X143162500Y-79025000D02*
X142937500Y-79025000D01*
D50*
X135395000Y-103900000D02*
X135655000Y-103640000D01*
X143661000Y-90031000D02*
X139469000Y-90031000D01*
D49*
X142264644Y-79922856D02*
X143162500Y-79025000D01*
D50*
X138924000Y-93424000D02*
X141500000Y-96000000D01*
X138924000Y-90576000D02*
X138924000Y-93424000D01*
D52*
X151250000Y-116750000D02*
X148860000Y-116750000D01*
X145250000Y-101787042D02*
X143212958Y-99750000D01*
X143212958Y-99750000D02*
X141250000Y-99750000D01*
X145110000Y-113000000D02*
X145250000Y-112860000D01*
X135655000Y-101400000D02*
X135655000Y-100845000D01*
X141500000Y-99750000D02*
X141250000Y-99750000D01*
X135655000Y-100845000D02*
X136750000Y-99750000D01*
D50*
X147250000Y-93620000D02*
X143661000Y-90031000D01*
D52*
X145250000Y-103500000D02*
X145250000Y-102500000D01*
D50*
X139469000Y-90031000D02*
X138924000Y-90576000D01*
X153750000Y-94160000D02*
X153750000Y-102782000D01*
X162559000Y-130594156D02*
X168541000Y-124612156D01*
X168541000Y-124612156D02*
X168541000Y-115275910D01*
X161651000Y-135841000D02*
X162559000Y-134933000D01*
X168000000Y-114150000D02*
X168000000Y-107500000D01*
X113850000Y-130000000D02*
X112090000Y-128240000D01*
X168000000Y-107210000D02*
X168000000Y-107500000D01*
X167707545Y-114442455D02*
X167191000Y-114959000D01*
X166790000Y-106000000D02*
X168000000Y-107210000D01*
X166009288Y-116075000D02*
X166075000Y-116075000D01*
X167191000Y-114959000D02*
X166075000Y-116075000D01*
X146250000Y-130000000D02*
X113850000Y-130000000D01*
X158020000Y-134750000D02*
X159111000Y-135841000D01*
X167191000Y-114959000D02*
X168000000Y-114150000D01*
X158020000Y-134750000D02*
X156020000Y-136750000D01*
X156020000Y-136750000D02*
X153000000Y-136750000D01*
X159111000Y-135841000D02*
X161651000Y-135841000D01*
X168541000Y-115275910D02*
X167707545Y-114442455D01*
X162559000Y-134933000D02*
X162559000Y-130594156D01*
X153000000Y-136750000D02*
X146250000Y-130000000D01*
X167425000Y-119825000D02*
X167425000Y-117425000D01*
X166075000Y-123575000D02*
X166075000Y-121175000D01*
X167425000Y-123575000D02*
X167425000Y-121175000D01*
D49*
X141412500Y-73750000D02*
X140938030Y-73750000D01*
X140938030Y-73750000D02*
X139087500Y-71899470D01*
X139087500Y-71899470D02*
X139087500Y-70912500D01*
X137137500Y-65187500D02*
X137137500Y-63187500D01*
X137137500Y-63187500D02*
X136662500Y-62712500D01*
X138437500Y-65187500D02*
X138437500Y-64400001D01*
X139849000Y-63526000D02*
X140662500Y-62712500D01*
X138437500Y-64400001D02*
X139311501Y-63526000D01*
X139311501Y-63526000D02*
X139849000Y-63526000D01*
X138662500Y-62712500D02*
X137787500Y-63587500D01*
X137787500Y-63587500D02*
X137787500Y-65187500D01*
X138437500Y-72775000D02*
X138437500Y-70912500D01*
X139412500Y-73750000D02*
X138437500Y-72775000D01*
D50*
X128900000Y-72250000D02*
X128900000Y-70105000D01*
X128900000Y-70105000D02*
X129465000Y-69540000D01*
D49*
X129465000Y-65730000D02*
X128645000Y-65730000D01*
X123750000Y-72087500D02*
X125437500Y-72087500D01*
X125437500Y-72087500D02*
X125600000Y-72250000D01*
X128645000Y-65730000D02*
X128250000Y-66125000D01*
X128250000Y-70500000D02*
X126500000Y-72250000D01*
X128250000Y-66125000D02*
X128250000Y-70500000D01*
X126500000Y-72250000D02*
X125600000Y-72250000D01*
X137787500Y-73375000D02*
X137412500Y-73750000D01*
X137412500Y-73750000D02*
X135412500Y-73750000D01*
X137787500Y-70912500D02*
X137787500Y-73375000D01*
X142595000Y-90372000D02*
X139873000Y-90372000D01*
X139873000Y-90372000D02*
X139505000Y-90740000D01*
X143095000Y-93794468D02*
X143095000Y-90872000D01*
X148300532Y-99000000D02*
X143095000Y-93794468D01*
X152250000Y-101912500D02*
X152250000Y-100000000D01*
X152250000Y-100000000D02*
X151250000Y-99000000D01*
X143095000Y-90872000D02*
X142595000Y-90372000D01*
X151250000Y-99000000D02*
X148300532Y-99000000D01*
X139505000Y-90740000D02*
X139505000Y-92400000D01*
X149750000Y-101912500D02*
X149702500Y-101865000D01*
X149750000Y-101912500D02*
X149790000Y-101872500D01*
X142734000Y-91039000D02*
X142428000Y-90733000D01*
X142428000Y-90733000D02*
X141012000Y-90733000D01*
X149790000Y-101872500D02*
X149790000Y-101000000D01*
X149702500Y-101865000D02*
X149702500Y-100912500D01*
X141012000Y-90733000D02*
X140775000Y-90970000D01*
X140775000Y-90970000D02*
X140775000Y-92400000D01*
X149702500Y-100912500D02*
X142734000Y-93944000D01*
X142734000Y-93944000D02*
X142734000Y-91039000D01*
X142045000Y-93795000D02*
X142045000Y-92400000D01*
X147250000Y-101880000D02*
X147250000Y-99000000D01*
X147250000Y-99000000D02*
X142045000Y-93795000D01*
X138500000Y-96000000D02*
X138235000Y-95735000D01*
X138235000Y-95735000D02*
X138235000Y-92400000D01*
D50*
X152105001Y-105664809D02*
X152519810Y-105250000D01*
X129500000Y-103500000D02*
X133231324Y-103500000D01*
X125750000Y-107250000D02*
X128000000Y-109500000D01*
X125750000Y-107250000D02*
X129500000Y-103500000D01*
X128000000Y-109500000D02*
X128446000Y-109946000D01*
X165663500Y-104586500D02*
X158586500Y-104586500D01*
X128446000Y-109946000D02*
X150073815Y-109946000D01*
X152105000Y-107914811D02*
X152105001Y-105664809D01*
X129870000Y-113000000D02*
X129870000Y-111370000D01*
X134250000Y-95346037D02*
X135655000Y-93941037D01*
X150073815Y-109946000D02*
X152105000Y-107914811D01*
X135655000Y-93941037D02*
X135655000Y-92100000D01*
X157923000Y-105250000D02*
X158586500Y-104586500D01*
X152519810Y-105250000D02*
X157923000Y-105250000D01*
X134250000Y-99650000D02*
X134250000Y-95346037D01*
X133231324Y-103500000D02*
X133588162Y-103143162D01*
X166790000Y-103460000D02*
X165663500Y-104586500D01*
X129870000Y-111370000D02*
X128000000Y-109500000D01*
X136925000Y-93474999D02*
X136925000Y-92100000D01*
X151784000Y-107781848D02*
X151784001Y-105531847D01*
X149940850Y-109625000D02*
X151784000Y-107781848D01*
X157790038Y-104929000D02*
X158859519Y-103859519D01*
X128290000Y-107250000D02*
X131540000Y-104000000D01*
X151784001Y-105531847D02*
X152386848Y-104929000D01*
X135000000Y-95399999D02*
X136925000Y-93474999D01*
X159259038Y-103460000D02*
X158859519Y-103859519D01*
X133495000Y-104000000D02*
X135000000Y-102495000D01*
X128290000Y-107250000D02*
X130665000Y-109625000D01*
X152386848Y-104929000D02*
X157790038Y-104929000D01*
X135000000Y-102495000D02*
X135000000Y-95399999D01*
X164250000Y-103460000D02*
X159259038Y-103460000D01*
X131540000Y-104000000D02*
X133495000Y-104000000D01*
X130665000Y-109625000D02*
X149940850Y-109625000D01*
X140990000Y-107250000D02*
X142402000Y-108662000D01*
X165253000Y-99917000D02*
X161083000Y-99917000D01*
X142402000Y-108662000D02*
X149541963Y-108662000D01*
X140990000Y-107250000D02*
X140990000Y-106510000D01*
X140735000Y-106255000D02*
X140735000Y-101400000D01*
X135740000Y-114750000D02*
X140500000Y-114750000D01*
X140500000Y-114750000D02*
X141036000Y-114214000D01*
X161083000Y-99917000D02*
X161000000Y-100000000D01*
X151987961Y-103966000D02*
X157034000Y-103966000D01*
X149541963Y-108662000D02*
X150821000Y-107382962D01*
X140990000Y-106510000D02*
X140735000Y-106255000D01*
X150821001Y-105132958D02*
X151987961Y-103966000D01*
X141036000Y-114214000D02*
X141036000Y-110536000D01*
X157034000Y-103966000D02*
X161000000Y-100000000D01*
X122250000Y-128240000D02*
X135740000Y-114750000D01*
X150821000Y-107382962D02*
X150821001Y-105132958D01*
X166790000Y-98380000D02*
X165253000Y-99917000D01*
X141036000Y-110536000D02*
X141000000Y-110500000D01*
X152120924Y-104287000D02*
X157524114Y-104287000D01*
X140183000Y-108983000D02*
X149674926Y-108983000D01*
X139465000Y-106235000D02*
X139465000Y-101400000D01*
X138450000Y-107250000D02*
X139465000Y-106235000D01*
X160920000Y-100920000D02*
X160905557Y-100905557D01*
X149674926Y-108983000D02*
X151142000Y-107515925D01*
X164250000Y-100920000D02*
X160920000Y-100920000D01*
X151142001Y-105265921D02*
X152120924Y-104287000D01*
X151142000Y-107515925D02*
X151142001Y-105265921D01*
X157524114Y-104287000D02*
X160905557Y-100905557D01*
X138450000Y-107250000D02*
X140183000Y-108983000D01*
X156855000Y-103645000D02*
X161250000Y-99250000D01*
X143530000Y-107250000D02*
X142005000Y-105725000D01*
X143750000Y-127060000D02*
X142570000Y-128240000D01*
X150500001Y-104999995D02*
X151854999Y-103645000D01*
X144621000Y-108341000D02*
X149409000Y-108341000D01*
X164250000Y-98380000D02*
X162120000Y-98380000D01*
X143530000Y-107250000D02*
X144621000Y-108341000D01*
X149409000Y-108341000D02*
X150500000Y-107250000D01*
X151854999Y-103645000D02*
X156855000Y-103645000D01*
X143750000Y-110750000D02*
X143500000Y-110500000D01*
X142005000Y-105725000D02*
X142005000Y-101400000D01*
X162120000Y-98380000D02*
X161250000Y-99250000D01*
X143750000Y-110750000D02*
X143750000Y-127060000D01*
X150500000Y-107250000D02*
X150500001Y-104999995D01*
X155800000Y-120150000D02*
X158250000Y-120150000D01*
X158250000Y-120150000D02*
X160700000Y-122600000D01*
X158250000Y-125900000D02*
X160700000Y-128350000D01*
X155800000Y-125900000D02*
X158250000Y-125900000D01*
X164250000Y-114500000D02*
X164250000Y-116335000D01*
X163750000Y-114000000D02*
X164250000Y-114500000D01*
X163150000Y-118165000D02*
X163150000Y-118985000D01*
X163150000Y-118985000D02*
X164250000Y-120085000D01*
D52*
X163010000Y-120225000D02*
X163150000Y-120085000D01*
X152500000Y-119250000D02*
X152500000Y-116800000D01*
D50*
X165525000Y-116750000D02*
X165500000Y-116725000D01*
X166349999Y-116750000D02*
X166075000Y-116750000D01*
X166075000Y-120500000D02*
X166349999Y-120500000D01*
X152550000Y-114950000D02*
X155000000Y-112500000D01*
D52*
X163150000Y-119867500D02*
X163150000Y-120085000D01*
D50*
X166075000Y-120500000D02*
X165525000Y-120500000D01*
D52*
X162489000Y-119206500D02*
X163150000Y-119867500D01*
X154739000Y-121539000D02*
X154739000Y-118125085D01*
X162000000Y-120225000D02*
X163010000Y-120225000D01*
X162489000Y-123174000D02*
X163150000Y-123835000D01*
D50*
X166349999Y-124250000D02*
X166075000Y-124250000D01*
D52*
X158250000Y-117725000D02*
X161760000Y-117725000D01*
X155800000Y-128350000D02*
X155800000Y-129990000D01*
X154739000Y-123661000D02*
X155800000Y-122600000D01*
X155800000Y-116850000D02*
X157375000Y-116850000D01*
D50*
X166349999Y-120500000D02*
X166591000Y-120741001D01*
D52*
X157375000Y-116850000D02*
X158250000Y-117725000D01*
X157375000Y-128350000D02*
X158250000Y-129225000D01*
X163150000Y-116335000D02*
X163065000Y-116250000D01*
D50*
X152500000Y-116800000D02*
X152550000Y-116750000D01*
D52*
X157375000Y-122600000D02*
X158250000Y-123475000D01*
X163589000Y-116996000D02*
X165554001Y-116996000D01*
D50*
X166591000Y-124008999D02*
X166349999Y-124250000D01*
X166591000Y-116991001D02*
X166349999Y-116750000D01*
D52*
X163150000Y-123835000D02*
X163010000Y-123975000D01*
X165800001Y-116750000D02*
X166075000Y-116750000D01*
X155800000Y-117064085D02*
X155800000Y-116850000D01*
X165554001Y-116996000D02*
X165800001Y-116750000D01*
X162489000Y-116996000D02*
X162489000Y-119206500D01*
D50*
X166075000Y-116750000D02*
X165525000Y-116750000D01*
X165525000Y-120500000D02*
X165500000Y-120475000D01*
D52*
X155800000Y-128350000D02*
X157375000Y-128350000D01*
D50*
X166075000Y-124250000D02*
X165525000Y-124250000D01*
X152550000Y-116750000D02*
X152550000Y-114950000D01*
X166349999Y-120500000D02*
X166591000Y-120258999D01*
D52*
X152650000Y-116850000D02*
X155800000Y-116850000D01*
X152550000Y-116750000D02*
X152650000Y-116850000D01*
D50*
X165525000Y-124250000D02*
X165500000Y-124225000D01*
D52*
X163150000Y-116335000D02*
X163150000Y-116557000D01*
D50*
X166591000Y-120258999D02*
X166591000Y-116991001D01*
D52*
X155800000Y-122600000D02*
X157375000Y-122600000D01*
X163150000Y-116557000D02*
X163589000Y-116996000D01*
X163150000Y-120085000D02*
X163150000Y-120589000D01*
X163150000Y-116335000D02*
X162489000Y-116996000D01*
X155800000Y-128350000D02*
X154739000Y-127289000D01*
X163065000Y-116250000D02*
X162000000Y-116250000D01*
X161760000Y-117725000D02*
X163150000Y-116335000D01*
X154739000Y-127289000D02*
X154739000Y-123661000D01*
X162489000Y-121250000D02*
X162489000Y-123174000D01*
X163010000Y-123975000D02*
X162000000Y-123975000D01*
X154739000Y-118125085D02*
X155800000Y-117064085D01*
X155800000Y-129990000D02*
X160560000Y-134750000D01*
X155800000Y-122600000D02*
X154739000Y-121539000D01*
X163150000Y-120589000D02*
X162489000Y-121250000D01*
D50*
X166591000Y-120741001D02*
X166591000Y-124008999D01*
X168000000Y-115500000D02*
X167425000Y-116075000D01*
X158750000Y-114900000D02*
X160700000Y-116850000D01*
X158750000Y-114000000D02*
X158750000Y-114900000D01*
X163150000Y-122735000D02*
X164250000Y-123835000D01*
X163150000Y-121915000D02*
X163150000Y-122735000D01*
X157657076Y-104608000D02*
X160132538Y-102132538D01*
X152253886Y-104608000D02*
X157657076Y-104608000D01*
X137964000Y-109304000D02*
X149807888Y-109304000D01*
X135170000Y-107250000D02*
X135500000Y-107250000D01*
X138195000Y-104965000D02*
X138195000Y-101400000D01*
X149807888Y-109304000D02*
X151463000Y-107648886D01*
X151463001Y-105398885D02*
X152253886Y-104608000D01*
X135910000Y-107250000D02*
X137964000Y-109304000D01*
X151463000Y-107648886D02*
X151463001Y-105398885D01*
X135910000Y-107250000D02*
X138195000Y-104965000D01*
X165577462Y-102132538D02*
X160132538Y-102132538D01*
X166790000Y-100920000D02*
X165577462Y-102132538D01*
X164100000Y-106000000D02*
X156100000Y-114000000D01*
X154250000Y-133520000D02*
X155480000Y-134750000D01*
X140030000Y-128240000D02*
X141469000Y-129679000D01*
X150409000Y-129679000D02*
X150490000Y-129760000D01*
X154250000Y-117750000D02*
X154250000Y-133520000D01*
X155480000Y-134750000D02*
X150490000Y-129760000D01*
X164250000Y-106000000D02*
X164100000Y-106000000D01*
X141469000Y-129679000D02*
X150409000Y-129679000D01*
D52*
X151200000Y-119250000D02*
X144751000Y-119250000D01*
X125948162Y-119238162D02*
X119710000Y-113000000D01*
X130488162Y-119238162D02*
X125948162Y-119238162D01*
D50*
X114630000Y-128240000D02*
X114990000Y-128240000D01*
X135960001Y-89500000D02*
X151780000Y-89500000D01*
X134385000Y-92100000D02*
X134385000Y-91075001D01*
D49*
X156000000Y-84340000D02*
X156660000Y-85000000D01*
D50*
X151780000Y-89500000D02*
X156280000Y-85000000D01*
X134385000Y-91075001D02*
X135960001Y-89500000D01*
X135048001Y-89142000D02*
X133115000Y-91075001D01*
X153740000Y-85000000D02*
X149598000Y-89142000D01*
X133115000Y-91075001D02*
X133115000Y-92100000D01*
X149598000Y-89142000D02*
X135048001Y-89142000D01*
X134099001Y-88821000D02*
X131845000Y-91075001D01*
X141724500Y-59661184D02*
X141724500Y-58560104D01*
X146083316Y-64020000D02*
X141724500Y-59661184D01*
X155945500Y-80254500D02*
X155945500Y-64949575D01*
X141724500Y-58560104D02*
X141102395Y-57938000D01*
X131845000Y-91075001D02*
X131845000Y-92100000D01*
X151200000Y-85000000D02*
X147379000Y-88821000D01*
X137724500Y-57938000D02*
X136662500Y-59000000D01*
X151200000Y-85000000D02*
X155945500Y-80254500D01*
X147379000Y-88821000D02*
X134099001Y-88821000D01*
X155945500Y-64949575D02*
X155015924Y-64020000D01*
X141102395Y-57938000D02*
X137724500Y-57938000D01*
D49*
X136662500Y-60887500D02*
X136662500Y-59000000D01*
D50*
X155015924Y-64020000D02*
X146083316Y-64020000D01*
X155624500Y-78035500D02*
X155624500Y-65082538D01*
X141403500Y-58693067D02*
X140969433Y-58259000D01*
X145950354Y-64341000D02*
X141403500Y-59794146D01*
D49*
X138662500Y-60887500D02*
X138662500Y-59000000D01*
D50*
X148660000Y-85000000D02*
X155624500Y-78035500D01*
X130575000Y-91075001D02*
X130575000Y-92100000D01*
X141403500Y-59794146D02*
X141403500Y-58693067D01*
X148660000Y-85000000D02*
X145160000Y-88500000D01*
X145160000Y-88500000D02*
X133150001Y-88500000D01*
X140969433Y-58259000D02*
X139403500Y-58259000D01*
D49*
X138662500Y-59000000D02*
X138662500Y-60386160D01*
D50*
X154882962Y-64341000D02*
X145950354Y-64341000D01*
X133150001Y-88500000D02*
X130575000Y-91075001D01*
X139403500Y-58259000D02*
X138662500Y-59000000D01*
X155624500Y-65082538D02*
X154882962Y-64341000D01*
X142042892Y-60887500D02*
X140662500Y-60887500D01*
X155303500Y-75816500D02*
X155303500Y-65215500D01*
X146120000Y-85000000D02*
X155303500Y-75816500D01*
X129305000Y-91075001D02*
X129305000Y-92100000D01*
X142978000Y-88142000D02*
X132238001Y-88142000D01*
X145817392Y-64662000D02*
X142042892Y-60887500D01*
X155303500Y-65215500D02*
X154750000Y-64662000D01*
D49*
X140662500Y-60887500D02*
X140662500Y-59000000D01*
D50*
X132238001Y-88142000D02*
X129305000Y-91075001D01*
X146120000Y-85000000D02*
X142978000Y-88142000D01*
X154750000Y-64662000D02*
X145817392Y-64662000D01*
X131174000Y-87821000D02*
X128035000Y-90960000D01*
D49*
X143960000Y-84660000D02*
X143960000Y-85000000D01*
X145337500Y-75575000D02*
X145412500Y-75500000D01*
X143412500Y-75575000D02*
X145337500Y-75575000D01*
D50*
X143580000Y-85000000D02*
X145412500Y-83167500D01*
X141961081Y-87821000D02*
X131174000Y-87821000D01*
X143580000Y-85000000D02*
X143580000Y-86202081D01*
X128035000Y-90960000D02*
X128035000Y-92100000D01*
X145412500Y-83167500D02*
X145412500Y-75500000D01*
X143580000Y-86202081D02*
X141961081Y-87821000D01*
X126765000Y-91075001D02*
X126765000Y-92100000D01*
D49*
X141412500Y-75575000D02*
X140511500Y-76476000D01*
D50*
X130340001Y-87500000D02*
X126765000Y-91075001D01*
D49*
X140511500Y-79111500D02*
X141012500Y-79612500D01*
D50*
X141040000Y-85000000D02*
X141040000Y-79640000D01*
X141040000Y-85000000D02*
X138540000Y-87500000D01*
X138540000Y-87500000D02*
X130340001Y-87500000D01*
D49*
X140511500Y-76476000D02*
X140511500Y-79111500D01*
D50*
X141040000Y-79640000D02*
X141012500Y-79612500D01*
D49*
X137325000Y-79500000D02*
X138800000Y-79500000D01*
D50*
X136358000Y-87142000D02*
X129428001Y-87142000D01*
X129428001Y-87142000D02*
X125495000Y-91075001D01*
D49*
X139500000Y-79025000D02*
X138912500Y-79612500D01*
X138900000Y-79600000D02*
X138912500Y-79612500D01*
X138912500Y-79612500D02*
X138912500Y-84587500D01*
X139500000Y-75662500D02*
X139412500Y-75575000D01*
X139500000Y-77412500D02*
X139500000Y-75662500D01*
D50*
X138500000Y-85000000D02*
X136358000Y-87142000D01*
D49*
X138800000Y-79500000D02*
X138900000Y-79600000D01*
D50*
X125495000Y-91075001D02*
X125495000Y-92100000D01*
D49*
X138912500Y-84587500D02*
X138500000Y-85000000D01*
X139500000Y-77412500D02*
X139500000Y-79025000D01*
D50*
X125495000Y-96995000D02*
X116960000Y-88460000D01*
X116960000Y-88460000D02*
X116960000Y-85000000D01*
X125495000Y-101400000D02*
X125495000Y-96995000D01*
X119500000Y-90500000D02*
X126765000Y-97765000D01*
X126765000Y-97765000D02*
X126765000Y-101400000D01*
X119500000Y-85000000D02*
X119500000Y-90500000D01*
X122040000Y-92540000D02*
X128035000Y-98535000D01*
X128035000Y-98535000D02*
X128035000Y-101400000D01*
X122040000Y-85000000D02*
X122040000Y-92540000D01*
X123670000Y-93672965D02*
X129305000Y-99307965D01*
X124580000Y-85000000D02*
X123670000Y-85910000D01*
X123670000Y-85910000D02*
X123670000Y-93672965D01*
X129305000Y-99307965D02*
X129305000Y-101400000D01*
X127120000Y-85000000D02*
X123991000Y-88129000D01*
X123991000Y-93540003D02*
X130575000Y-100124003D01*
X123991000Y-88129000D02*
X123991000Y-93540003D01*
X130575000Y-100124003D02*
X130575000Y-101400000D01*
X124312000Y-93407040D02*
X131845000Y-100940040D01*
X129660000Y-85000000D02*
X124312000Y-90348000D01*
X124312000Y-90348000D02*
X124312000Y-93407040D01*
X131845000Y-100940040D02*
X131845000Y-101400000D01*
X130700000Y-86500000D02*
X129058924Y-86500000D01*
X131810999Y-99071000D02*
X133115000Y-100375001D01*
X129058924Y-86500000D02*
X124633000Y-90925924D01*
X124633000Y-90925924D02*
X124633000Y-93274077D01*
X130429924Y-99071000D02*
X131810999Y-99071000D01*
X133115000Y-100375001D02*
X133115000Y-101400000D01*
X124633000Y-93274077D02*
X130429924Y-99071000D01*
X132200000Y-85000000D02*
X130700000Y-86500000D01*
X124954000Y-93141114D02*
X130562886Y-98750000D01*
X132551000Y-98750000D02*
X134385000Y-100584000D01*
X132919000Y-86821000D02*
X129191886Y-86821000D01*
X134740000Y-85000000D02*
X132919000Y-86821000D01*
X134385000Y-100584000D02*
X134385000Y-101400000D01*
X130562886Y-98750000D02*
X132551000Y-98750000D01*
X129191886Y-86821000D02*
X124954000Y-91058886D01*
X124954000Y-91058886D02*
X124954000Y-93141114D01*
G04 #@! TA.AperFunction,Conductor*
G36*
X165053042Y-46270185D02*
G01*
X165098797Y-46322989D01*
X165108741Y-46392147D01*
X165079716Y-46455703D01*
X165021999Y-46493160D01*
X164952049Y-46514378D01*
X164853022Y-46544418D01*
X164544343Y-46672278D01*
X164544338Y-46672280D01*
X164249696Y-46829769D01*
X164249678Y-46829780D01*
X163971890Y-47015393D01*
X163971876Y-47015403D01*
X163713604Y-47227361D01*
X163477361Y-47463604D01*
X163265403Y-47721876D01*
X163265393Y-47721890D01*
X163079780Y-47999678D01*
X163079769Y-47999696D01*
X162922280Y-48294338D01*
X162922278Y-48294343D01*
X162794418Y-48603022D01*
X162697428Y-48922758D01*
X162697425Y-48922769D01*
X162632250Y-49250434D01*
X162632247Y-49250451D01*
X162616176Y-49413630D01*
X162599500Y-49582944D01*
X162599500Y-49917056D01*
X162602120Y-49943655D01*
X162632247Y-50249548D01*
X162632250Y-50249565D01*
X162697425Y-50577230D01*
X162697428Y-50577241D01*
X162794418Y-50896977D01*
X162922278Y-51205656D01*
X162922280Y-51205661D01*
X163079769Y-51500303D01*
X163079780Y-51500321D01*
X163265393Y-51778109D01*
X163265403Y-51778123D01*
X163477361Y-52036395D01*
X163713604Y-52272638D01*
X163713609Y-52272642D01*
X163713610Y-52272643D01*
X163971882Y-52484601D01*
X164249685Y-52670224D01*
X164249694Y-52670229D01*
X164249696Y-52670230D01*
X164544338Y-52827719D01*
X164544340Y-52827719D01*
X164544346Y-52827723D01*
X164853024Y-52955582D01*
X165172749Y-53052569D01*
X165172755Y-53052570D01*
X165172758Y-53052571D01*
X165172769Y-53052574D01*
X165378243Y-53093444D01*
X165500441Y-53117751D01*
X165832944Y-53150500D01*
X165832947Y-53150500D01*
X166167053Y-53150500D01*
X166167056Y-53150500D01*
X166499559Y-53117751D01*
X166661757Y-53085487D01*
X166827230Y-53052574D01*
X166827241Y-53052571D01*
X166827241Y-53052570D01*
X166827251Y-53052569D01*
X167146976Y-52955582D01*
X167455654Y-52827723D01*
X167750315Y-52670224D01*
X168028118Y-52484601D01*
X168286390Y-52272643D01*
X168522643Y-52036390D01*
X168734601Y-51778118D01*
X168920224Y-51500315D01*
X169077723Y-51205654D01*
X169205582Y-50896976D01*
X169256840Y-50727998D01*
X169295137Y-50669562D01*
X169358949Y-50641106D01*
X169428016Y-50651666D01*
X169480409Y-50697890D01*
X169499500Y-50763996D01*
X169499500Y-63924704D01*
X169479815Y-63991743D01*
X169427011Y-64037498D01*
X169375262Y-64048704D01*
X155465742Y-64022006D01*
X155398740Y-64002193D01*
X155378299Y-63985687D01*
X155188156Y-63795545D01*
X155188155Y-63795544D01*
X155124193Y-63758616D01*
X155124194Y-63758616D01*
X155100413Y-63752244D01*
X155052853Y-63739500D01*
X155052852Y-63739500D01*
X155052851Y-63739500D01*
X146250865Y-63739500D01*
X146183826Y-63719815D01*
X146163184Y-63703181D01*
X142041319Y-59581316D01*
X142007834Y-59519993D01*
X142005000Y-59493635D01*
X142005000Y-58523178D01*
X142005000Y-58523176D01*
X141985884Y-58451835D01*
X141948956Y-58387873D01*
X141896731Y-58335648D01*
X141896730Y-58335647D01*
X141274626Y-57713544D01*
X141210664Y-57676616D01*
X141210665Y-57676616D01*
X141192828Y-57671837D01*
X141139323Y-57657500D01*
X139624000Y-57657500D01*
X139556961Y-57637815D01*
X139511206Y-57585011D01*
X139500000Y-57533500D01*
X139500000Y-50656538D01*
X148899500Y-50656538D01*
X148899500Y-50908461D01*
X148938910Y-51157285D01*
X149016760Y-51396883D01*
X149131132Y-51621348D01*
X149279201Y-51825149D01*
X149279205Y-51825154D01*
X149457345Y-52003294D01*
X149457350Y-52003298D01*
X149635117Y-52132452D01*
X149661155Y-52151370D01*
X149804184Y-52224247D01*
X149885616Y-52265739D01*
X149885618Y-52265739D01*
X149885621Y-52265741D01*
X150125215Y-52343590D01*
X150374038Y-52383000D01*
X150374039Y-52383000D01*
X150625961Y-52383000D01*
X150625962Y-52383000D01*
X150874785Y-52343590D01*
X151114379Y-52265741D01*
X151338845Y-52151370D01*
X151542656Y-52003293D01*
X151720793Y-51825156D01*
X151868870Y-51621345D01*
X151983241Y-51396879D01*
X152061090Y-51157285D01*
X152100500Y-50908462D01*
X152100500Y-50656538D01*
X152061090Y-50407715D01*
X151983241Y-50168121D01*
X151983239Y-50168118D01*
X151983239Y-50168116D01*
X151941747Y-50086684D01*
X151868870Y-49943655D01*
X151849542Y-49917052D01*
X151720798Y-49739850D01*
X151720794Y-49739845D01*
X151542654Y-49561705D01*
X151542649Y-49561701D01*
X151338848Y-49413632D01*
X151338847Y-49413631D01*
X151338845Y-49413630D01*
X151268747Y-49377913D01*
X151114383Y-49299260D01*
X150874785Y-49221410D01*
X150625962Y-49182000D01*
X150374038Y-49182000D01*
X150249626Y-49201705D01*
X150125214Y-49221410D01*
X149885616Y-49299260D01*
X149661151Y-49413632D01*
X149457350Y-49561701D01*
X149457345Y-49561705D01*
X149279205Y-49739845D01*
X149279201Y-49739850D01*
X149131132Y-49943651D01*
X149016760Y-50168116D01*
X148938910Y-50407714D01*
X148899500Y-50656538D01*
X139500000Y-50656538D01*
X139500000Y-47630247D01*
X141699500Y-47630247D01*
X141699500Y-49369752D01*
X141711131Y-49428229D01*
X141711132Y-49428230D01*
X141755447Y-49494552D01*
X141821769Y-49538867D01*
X141821770Y-49538868D01*
X141880247Y-49550499D01*
X141880250Y-49550500D01*
X141880252Y-49550500D01*
X143619750Y-49550500D01*
X143619751Y-49550499D01*
X143634568Y-49547552D01*
X143678229Y-49538868D01*
X143678229Y-49538867D01*
X143678231Y-49538867D01*
X143744552Y-49494552D01*
X143788867Y-49428231D01*
X143788867Y-49428229D01*
X143788868Y-49428229D01*
X143800499Y-49369752D01*
X143800500Y-49369750D01*
X143800500Y-47630249D01*
X143800499Y-47630247D01*
X143788868Y-47571770D01*
X143788867Y-47571769D01*
X143744552Y-47505447D01*
X143678230Y-47461132D01*
X143678229Y-47461131D01*
X143619752Y-47449500D01*
X143619748Y-47449500D01*
X141880252Y-47449500D01*
X141880247Y-47449500D01*
X141821770Y-47461131D01*
X141821769Y-47461132D01*
X141755447Y-47505447D01*
X141711132Y-47571769D01*
X141711131Y-47571770D01*
X141699500Y-47630247D01*
X139500000Y-47630247D01*
X139500000Y-46374500D01*
X139519685Y-46307461D01*
X139572489Y-46261706D01*
X139624000Y-46250500D01*
X164986003Y-46250500D01*
X165053042Y-46270185D01*
G37*
G04 #@! TD.AperFunction*
G04 #@! TA.AperFunction,Conductor*
G36*
X139137539Y-46270185D02*
G01*
X139183294Y-46322989D01*
X139194500Y-46374500D01*
X139194500Y-57433500D01*
X139174815Y-57500539D01*
X139122011Y-57546294D01*
X139070500Y-57557500D01*
X137774594Y-57557500D01*
X137674406Y-57557500D01*
X137577633Y-57583431D01*
X137577631Y-57583431D01*
X137577631Y-57583432D01*
X137490868Y-57633523D01*
X137490866Y-57633525D01*
X136941304Y-58183086D01*
X136879981Y-58216571D01*
X136829431Y-58217022D01*
X136741344Y-58199500D01*
X136741342Y-58199500D01*
X136583658Y-58199500D01*
X136583655Y-58199500D01*
X136429010Y-58230261D01*
X136428998Y-58230264D01*
X136283327Y-58290602D01*
X136283314Y-58290609D01*
X136152211Y-58378210D01*
X136152207Y-58378213D01*
X136040713Y-58489707D01*
X136040710Y-58489711D01*
X135953109Y-58620814D01*
X135953102Y-58620827D01*
X135892764Y-58766498D01*
X135892761Y-58766510D01*
X135877210Y-58844691D01*
X135844825Y-58906602D01*
X135784110Y-58941176D01*
X135755593Y-58944500D01*
X128624000Y-58944500D01*
X128623991Y-58944500D01*
X128623990Y-58944501D01*
X128559064Y-58951481D01*
X128559052Y-58951483D01*
X128507546Y-58962688D01*
X128469345Y-58973644D01*
X128469341Y-58973646D01*
X128372431Y-59030323D01*
X128372428Y-59030325D01*
X128319623Y-59076081D01*
X128319612Y-59076091D01*
X128277451Y-59120807D01*
X128277445Y-59120816D01*
X128226560Y-59220890D01*
X128206877Y-59287921D01*
X128206876Y-59287928D01*
X128194500Y-59374000D01*
X128194500Y-65205500D01*
X128194501Y-65205509D01*
X128201481Y-65270435D01*
X128201483Y-65270447D01*
X128212688Y-65321953D01*
X128223644Y-65360154D01*
X128223645Y-65360156D01*
X128258289Y-65419393D01*
X128275141Y-65487200D01*
X128252658Y-65553354D01*
X128238932Y-65569674D01*
X127929519Y-65879088D01*
X127929518Y-65879090D01*
X127876792Y-65970412D01*
X127876793Y-65970413D01*
X127849500Y-66072273D01*
X127849500Y-70111695D01*
X127829815Y-70178734D01*
X127777011Y-70224489D01*
X127707853Y-70234433D01*
X127684284Y-70228153D01*
X127684278Y-70228176D01*
X127683373Y-70227910D01*
X127679739Y-70226942D01*
X127678783Y-70226562D01*
X127611745Y-70206877D01*
X127611739Y-70206876D01*
X127525667Y-70194500D01*
X127525664Y-70194500D01*
X121324500Y-70194500D01*
X121257461Y-70174815D01*
X121211706Y-70122011D01*
X121200500Y-70070500D01*
X121200500Y-69106903D01*
X121200500Y-69106898D01*
X121189877Y-69018436D01*
X121134361Y-68877658D01*
X121134360Y-68877657D01*
X121134360Y-68877656D01*
X121042922Y-68757077D01*
X120922343Y-68665639D01*
X120781561Y-68610122D01*
X120735926Y-68604642D01*
X120693102Y-68599500D01*
X118806898Y-68599500D01*
X118767853Y-68604188D01*
X118718438Y-68610122D01*
X118577656Y-68665639D01*
X118457077Y-68757077D01*
X118365639Y-68877656D01*
X118310122Y-69018438D01*
X118304188Y-69067853D01*
X118299500Y-69106898D01*
X118299500Y-69106903D01*
X118299500Y-70070500D01*
X118279815Y-70137539D01*
X118227011Y-70183294D01*
X118175500Y-70194500D01*
X111424500Y-70194500D01*
X111424491Y-70194500D01*
X111424490Y-70194501D01*
X111359564Y-70201481D01*
X111359552Y-70201483D01*
X111308046Y-70212688D01*
X111269845Y-70223644D01*
X111269841Y-70223646D01*
X111172931Y-70280323D01*
X111172928Y-70280325D01*
X111120123Y-70326081D01*
X111120112Y-70326091D01*
X111077951Y-70370807D01*
X111077945Y-70370816D01*
X111065153Y-70395974D01*
X111046731Y-70432203D01*
X111036257Y-70443312D01*
X111029914Y-70457203D01*
X111012776Y-70468216D01*
X110998802Y-70483038D01*
X110983088Y-70487295D01*
X110971136Y-70494977D01*
X110936201Y-70500000D01*
X110874500Y-70500000D01*
X110807461Y-70480315D01*
X110761706Y-70427511D01*
X110750500Y-70376000D01*
X110750500Y-51072097D01*
X110770185Y-51005058D01*
X110822989Y-50959303D01*
X110892147Y-50949359D01*
X110955703Y-50978384D01*
X110989060Y-51024643D01*
X111009869Y-51074880D01*
X111081770Y-51248464D01*
X111081772Y-51248469D01*
X111243893Y-51551775D01*
X111243904Y-51551793D01*
X111434975Y-51837751D01*
X111434985Y-51837765D01*
X111653176Y-52103632D01*
X111896367Y-52346823D01*
X111896372Y-52346827D01*
X111896373Y-52346828D01*
X112162240Y-52565019D01*
X112448213Y-52756100D01*
X112448222Y-52756105D01*
X112448224Y-52756106D01*
X112751530Y-52918227D01*
X112751532Y-52918227D01*
X112751538Y-52918231D01*
X113069295Y-53049850D01*
X113398422Y-53149690D01*
X113735750Y-53216789D01*
X114078031Y-53250500D01*
X114078034Y-53250500D01*
X114421966Y-53250500D01*
X114421969Y-53250500D01*
X114764250Y-53216789D01*
X115101578Y-53149690D01*
X115430705Y-53049850D01*
X115748462Y-52918231D01*
X116051787Y-52756100D01*
X116337760Y-52565019D01*
X116603627Y-52346828D01*
X116846828Y-52103627D01*
X117065019Y-51837760D01*
X117256100Y-51551787D01*
X117418231Y-51248462D01*
X117549850Y-50930705D01*
X117638475Y-50638549D01*
X123299500Y-50638549D01*
X123299500Y-50861450D01*
X123299501Y-50861466D01*
X123328594Y-51082452D01*
X123328595Y-51082457D01*
X123328596Y-51082463D01*
X123381422Y-51279613D01*
X123386290Y-51297780D01*
X123386293Y-51297790D01*
X123471593Y-51503722D01*
X123471595Y-51503726D01*
X123583052Y-51696774D01*
X123583057Y-51696780D01*
X123583058Y-51696782D01*
X123718751Y-51873622D01*
X123718757Y-51873629D01*
X123876370Y-52031242D01*
X123876377Y-52031248D01*
X124002294Y-52127867D01*
X124053226Y-52166948D01*
X124246274Y-52278405D01*
X124452219Y-52363710D01*
X124667537Y-52421404D01*
X124888543Y-52450500D01*
X124888550Y-52450500D01*
X125111450Y-52450500D01*
X125111457Y-52450500D01*
X125332463Y-52421404D01*
X125547781Y-52363710D01*
X125753726Y-52278405D01*
X125946774Y-52166948D01*
X126123624Y-52031247D01*
X126281247Y-51873624D01*
X126416948Y-51696774D01*
X126528405Y-51503726D01*
X126613710Y-51297781D01*
X126671404Y-51082463D01*
X126700500Y-50861457D01*
X126700500Y-50638543D01*
X126671404Y-50417537D01*
X126613710Y-50202219D01*
X126528405Y-49996274D01*
X126416948Y-49803226D01*
X126377867Y-49752294D01*
X126281248Y-49626377D01*
X126281242Y-49626370D01*
X126123629Y-49468757D01*
X126123622Y-49468751D01*
X125946782Y-49333058D01*
X125946780Y-49333057D01*
X125946774Y-49333052D01*
X125753726Y-49221595D01*
X125753722Y-49221593D01*
X125547790Y-49136293D01*
X125547783Y-49136291D01*
X125547781Y-49136290D01*
X125332463Y-49078596D01*
X125332457Y-49078595D01*
X125332452Y-49078594D01*
X125111466Y-49049501D01*
X125111463Y-49049500D01*
X125111457Y-49049500D01*
X124888543Y-49049500D01*
X124888537Y-49049500D01*
X124888533Y-49049501D01*
X124667547Y-49078594D01*
X124667540Y-49078595D01*
X124667537Y-49078596D01*
X124531391Y-49115076D01*
X124452219Y-49136290D01*
X124452209Y-49136293D01*
X124246277Y-49221593D01*
X124246273Y-49221595D01*
X124053226Y-49333052D01*
X124053217Y-49333058D01*
X123876377Y-49468751D01*
X123876370Y-49468757D01*
X123718757Y-49626370D01*
X123718751Y-49626377D01*
X123583058Y-49803217D01*
X123583052Y-49803226D01*
X123471595Y-49996273D01*
X123471593Y-49996277D01*
X123386293Y-50202209D01*
X123386290Y-50202219D01*
X123346780Y-50349675D01*
X123328597Y-50417534D01*
X123328594Y-50417547D01*
X123299501Y-50638533D01*
X123299500Y-50638549D01*
X117638475Y-50638549D01*
X117649690Y-50601578D01*
X117716789Y-50264250D01*
X117750500Y-49921969D01*
X117750500Y-49578031D01*
X117716789Y-49235750D01*
X117649690Y-48898422D01*
X117549850Y-48569295D01*
X117418231Y-48251538D01*
X117256100Y-47948213D01*
X117143667Y-47779945D01*
X117070502Y-47670445D01*
X117065025Y-47662249D01*
X117065024Y-47662248D01*
X117065019Y-47662240D01*
X117018151Y-47605131D01*
X136099500Y-47605131D01*
X136099500Y-49394856D01*
X136099502Y-49394882D01*
X136102413Y-49419987D01*
X136102415Y-49419991D01*
X136147793Y-49522764D01*
X136147794Y-49522765D01*
X136227235Y-49602206D01*
X136330009Y-49647585D01*
X136355135Y-49650500D01*
X138144864Y-49650499D01*
X138144879Y-49650497D01*
X138144882Y-49650497D01*
X138169987Y-49647586D01*
X138169988Y-49647585D01*
X138169991Y-49647585D01*
X138272765Y-49602206D01*
X138352206Y-49522765D01*
X138397585Y-49419991D01*
X138400500Y-49394865D01*
X138400499Y-47605136D01*
X138398561Y-47588424D01*
X138397586Y-47580012D01*
X138397585Y-47580010D01*
X138397585Y-47580009D01*
X138352206Y-47477235D01*
X138272765Y-47397794D01*
X138269533Y-47396367D01*
X138169992Y-47352415D01*
X138144865Y-47349500D01*
X136355143Y-47349500D01*
X136355117Y-47349502D01*
X136330012Y-47352413D01*
X136330008Y-47352415D01*
X136227235Y-47397793D01*
X136147794Y-47477234D01*
X136102415Y-47580006D01*
X136102415Y-47580008D01*
X136099500Y-47605131D01*
X117018151Y-47605131D01*
X116846828Y-47396373D01*
X116846827Y-47396372D01*
X116846823Y-47396367D01*
X116603632Y-47153176D01*
X116337765Y-46934985D01*
X116337764Y-46934984D01*
X116337760Y-46934981D01*
X116051787Y-46743900D01*
X116051782Y-46743897D01*
X116051775Y-46743893D01*
X115748469Y-46581772D01*
X115748464Y-46581770D01*
X115748462Y-46581769D01*
X115524643Y-46489060D01*
X115470241Y-46445220D01*
X115448176Y-46378926D01*
X115465455Y-46311227D01*
X115516592Y-46263616D01*
X115572097Y-46250500D01*
X139070500Y-46250500D01*
X139137539Y-46270185D01*
G37*
G04 #@! TD.AperFunction*
G04 #@! TA.AperFunction,Conductor*
G36*
X135883784Y-59269685D02*
G01*
X135929539Y-59322489D01*
X135931280Y-59326486D01*
X135953106Y-59379179D01*
X135953107Y-59379181D01*
X135953109Y-59379185D01*
X136040710Y-59510288D01*
X136040713Y-59510292D01*
X136152206Y-59621785D01*
X136152209Y-59621787D01*
X136152211Y-59621789D01*
X136206891Y-59658325D01*
X136211981Y-59664414D01*
X136219203Y-59667713D01*
X136234066Y-59690841D01*
X136251695Y-59711935D01*
X136253646Y-59721309D01*
X136256977Y-59726491D01*
X136262000Y-59761426D01*
X136262000Y-59953379D01*
X136242315Y-60020418D01*
X136189511Y-60066173D01*
X136152785Y-60076494D01*
X136080941Y-60085121D01*
X135940156Y-60140639D01*
X135819577Y-60232077D01*
X135728139Y-60352656D01*
X135672622Y-60493438D01*
X135666688Y-60542853D01*
X135662000Y-60581898D01*
X135662000Y-61193102D01*
X135667626Y-61239954D01*
X135672622Y-61281561D01*
X135728139Y-61422343D01*
X135819577Y-61542922D01*
X135940156Y-61634360D01*
X135940157Y-61634360D01*
X135940158Y-61634361D01*
X136067671Y-61684646D01*
X136122814Y-61727551D01*
X136146007Y-61793459D01*
X136129886Y-61861444D01*
X136079570Y-61909920D01*
X136067678Y-61915351D01*
X136016163Y-61935665D01*
X135940156Y-61965639D01*
X135819577Y-62057077D01*
X135728139Y-62177656D01*
X135672622Y-62318438D01*
X135666688Y-62367853D01*
X135662000Y-62406898D01*
X135662000Y-63018102D01*
X135667626Y-63064954D01*
X135672622Y-63106561D01*
X135672622Y-63106563D01*
X135672623Y-63106564D01*
X135690222Y-63151192D01*
X135728139Y-63247343D01*
X135819577Y-63367922D01*
X135940156Y-63459360D01*
X135940157Y-63459360D01*
X135940158Y-63459361D01*
X136080936Y-63514877D01*
X136169398Y-63525500D01*
X136613000Y-63525500D01*
X136680039Y-63545185D01*
X136725794Y-63597989D01*
X136737000Y-63649500D01*
X136737000Y-64183448D01*
X136717315Y-64250487D01*
X136713321Y-64256329D01*
X136709453Y-64261653D01*
X136709450Y-64261657D01*
X136709450Y-64261658D01*
X136692383Y-64295153D01*
X136651852Y-64374698D01*
X136637000Y-64468475D01*
X136637000Y-65906517D01*
X136645247Y-65958586D01*
X136651854Y-66000304D01*
X136709450Y-66113342D01*
X136709452Y-66113344D01*
X136709454Y-66113347D01*
X136799152Y-66203045D01*
X136799154Y-66203046D01*
X136799158Y-66203050D01*
X136900279Y-66254574D01*
X136912198Y-66260647D01*
X137005975Y-66275499D01*
X137005981Y-66275500D01*
X137269018Y-66275499D01*
X137362804Y-66260646D01*
X137406205Y-66238531D01*
X137474872Y-66225635D01*
X137518792Y-66238530D01*
X137550279Y-66254574D01*
X137562198Y-66260647D01*
X137655975Y-66275499D01*
X137655981Y-66275500D01*
X137919018Y-66275499D01*
X138012804Y-66260646D01*
X138056205Y-66238531D01*
X138124872Y-66225635D01*
X138168792Y-66238530D01*
X138200279Y-66254574D01*
X138212198Y-66260647D01*
X138305975Y-66275499D01*
X138305981Y-66275500D01*
X138569018Y-66275499D01*
X138662804Y-66260646D01*
X138706205Y-66238531D01*
X138774872Y-66225635D01*
X138818792Y-66238530D01*
X138850279Y-66254574D01*
X138862198Y-66260647D01*
X138955975Y-66275499D01*
X138955981Y-66275500D01*
X139219018Y-66275499D01*
X139312804Y-66260646D01*
X139356205Y-66238531D01*
X139424872Y-66225635D01*
X139468792Y-66238530D01*
X139500279Y-66254574D01*
X139512198Y-66260647D01*
X139605975Y-66275499D01*
X139605981Y-66275500D01*
X139869018Y-66275499D01*
X139962804Y-66260646D01*
X140006205Y-66238531D01*
X140074872Y-66225635D01*
X140118792Y-66238530D01*
X140150279Y-66254574D01*
X140162198Y-66260647D01*
X140255975Y-66275499D01*
X140255981Y-66275500D01*
X140519018Y-66275499D01*
X140612804Y-66260646D01*
X140656205Y-66238531D01*
X140724872Y-66225635D01*
X140768792Y-66238530D01*
X140800279Y-66254574D01*
X140812198Y-66260647D01*
X140905975Y-66275499D01*
X140905981Y-66275500D01*
X141169018Y-66275499D01*
X141262804Y-66260646D01*
X141306205Y-66238531D01*
X141374872Y-66225635D01*
X141418792Y-66238530D01*
X141450279Y-66254574D01*
X141462198Y-66260647D01*
X141555975Y-66275499D01*
X141555981Y-66275500D01*
X141819018Y-66275499D01*
X141819022Y-66275499D01*
X141856602Y-66269547D01*
X141925896Y-66278502D01*
X141979348Y-66323498D01*
X141999987Y-66390249D01*
X142000000Y-66392020D01*
X142000000Y-69707978D01*
X141980315Y-69775017D01*
X141927511Y-69820772D01*
X141858353Y-69830716D01*
X141856604Y-69830452D01*
X141819020Y-69824500D01*
X141555982Y-69824500D01*
X141462193Y-69839354D01*
X141462191Y-69839355D01*
X141418793Y-69861468D01*
X141350124Y-69874364D01*
X141306206Y-69861468D01*
X141287583Y-69851979D01*
X141262803Y-69839353D01*
X141262799Y-69839352D01*
X141169024Y-69824500D01*
X140905982Y-69824500D01*
X140812193Y-69839354D01*
X140812191Y-69839355D01*
X140768793Y-69861468D01*
X140700124Y-69874364D01*
X140656206Y-69861468D01*
X140637583Y-69851979D01*
X140612803Y-69839353D01*
X140612799Y-69839352D01*
X140519024Y-69824500D01*
X140255982Y-69824500D01*
X140162193Y-69839354D01*
X140162191Y-69839355D01*
X140118793Y-69861468D01*
X140050124Y-69874364D01*
X140006206Y-69861468D01*
X139987583Y-69851979D01*
X139962803Y-69839353D01*
X139962799Y-69839352D01*
X139869024Y-69824500D01*
X139605982Y-69824500D01*
X139512193Y-69839354D01*
X139512191Y-69839355D01*
X139468793Y-69861468D01*
X139400124Y-69874364D01*
X139356206Y-69861468D01*
X139337583Y-69851979D01*
X139312803Y-69839353D01*
X139312799Y-69839352D01*
X139219024Y-69824500D01*
X138955982Y-69824500D01*
X138862193Y-69839354D01*
X138862191Y-69839355D01*
X138818793Y-69861468D01*
X138750124Y-69874364D01*
X138706206Y-69861468D01*
X138687583Y-69851979D01*
X138662803Y-69839353D01*
X138662799Y-69839352D01*
X138569024Y-69824500D01*
X138305982Y-69824500D01*
X138212193Y-69839354D01*
X138212191Y-69839355D01*
X138168793Y-69861468D01*
X138100124Y-69874364D01*
X138056206Y-69861468D01*
X138037583Y-69851979D01*
X138012803Y-69839353D01*
X138012799Y-69839352D01*
X137919024Y-69824500D01*
X137655978Y-69824500D01*
X137655974Y-69824501D01*
X137645024Y-69826235D01*
X137575731Y-69817277D01*
X137540567Y-69793982D01*
X137523031Y-69777447D01*
X137422955Y-69726561D01*
X137422954Y-69726560D01*
X137422953Y-69726560D01*
X137355922Y-69706877D01*
X137355916Y-69706876D01*
X137269844Y-69694500D01*
X136624000Y-69694500D01*
X136623991Y-69694500D01*
X136623990Y-69694501D01*
X136559064Y-69701481D01*
X136559052Y-69701483D01*
X136507546Y-69712688D01*
X136469345Y-69723644D01*
X136469341Y-69723646D01*
X136372431Y-69780323D01*
X136372428Y-69780325D01*
X136319623Y-69826081D01*
X136319612Y-69826091D01*
X136277451Y-69870807D01*
X136277445Y-69870816D01*
X136226560Y-69970890D01*
X136206877Y-70037921D01*
X136194500Y-70124002D01*
X136194500Y-70376000D01*
X136191949Y-70384685D01*
X136193238Y-70393647D01*
X136182259Y-70417687D01*
X136174815Y-70443039D01*
X136167974Y-70448966D01*
X136164213Y-70457203D01*
X136141978Y-70471492D01*
X136122011Y-70488794D01*
X136111496Y-70491081D01*
X136105435Y-70494977D01*
X136070500Y-70500000D01*
X135865413Y-70500000D01*
X135798374Y-70480315D01*
X135758375Y-70438600D01*
X135719679Y-70372436D01*
X135719674Y-70372428D01*
X135718275Y-70370813D01*
X135673920Y-70319625D01*
X135673918Y-70319623D01*
X135673908Y-70319612D01*
X135629192Y-70277451D01*
X135629189Y-70277449D01*
X135629187Y-70277447D01*
X135529111Y-70226561D01*
X135529110Y-70226560D01*
X135529109Y-70226560D01*
X135462078Y-70206877D01*
X135462072Y-70206876D01*
X135376000Y-70194500D01*
X129304500Y-70194500D01*
X129304491Y-70194500D01*
X129304490Y-70194501D01*
X129239564Y-70201481D01*
X129239552Y-70201483D01*
X129188046Y-70212688D01*
X129149845Y-70223644D01*
X129149841Y-70223646D01*
X129052931Y-70280323D01*
X129052928Y-70280325D01*
X129000123Y-70326081D01*
X129000112Y-70326091D01*
X128957951Y-70370807D01*
X128957945Y-70370816D01*
X128945153Y-70395974D01*
X128926731Y-70432203D01*
X128916257Y-70443312D01*
X128909914Y-70457203D01*
X128892776Y-70468216D01*
X128878802Y-70483038D01*
X128863088Y-70487295D01*
X128851136Y-70494977D01*
X128816201Y-70500000D01*
X128774500Y-70500000D01*
X128707461Y-70480315D01*
X128661706Y-70427511D01*
X128650500Y-70376000D01*
X128650500Y-66342255D01*
X128670185Y-66275216D01*
X128686819Y-66254574D01*
X128774574Y-66166819D01*
X128835897Y-66133334D01*
X128862255Y-66130500D01*
X128884209Y-66130500D01*
X128951248Y-66150185D01*
X128959682Y-66156981D01*
X128959771Y-66156859D01*
X128967667Y-66162595D01*
X128967670Y-66162598D01*
X129047062Y-66203050D01*
X129081416Y-66220554D01*
X129175781Y-66235500D01*
X129175786Y-66235500D01*
X129754219Y-66235500D01*
X129848583Y-66220554D01*
X129848584Y-66220553D01*
X129848586Y-66220553D01*
X129962330Y-66162598D01*
X130052598Y-66072330D01*
X130110553Y-65958586D01*
X130110553Y-65958584D01*
X130110554Y-65958583D01*
X130125500Y-65864219D01*
X130125500Y-65595780D01*
X130110554Y-65501416D01*
X130063731Y-65409520D01*
X130052598Y-65387670D01*
X130052595Y-65387667D01*
X130052593Y-65387664D01*
X129962335Y-65297406D01*
X129962331Y-65297403D01*
X129962330Y-65297402D01*
X129883058Y-65257011D01*
X129848583Y-65239445D01*
X129754219Y-65224500D01*
X129754214Y-65224500D01*
X129175786Y-65224500D01*
X129175781Y-65224500D01*
X129081416Y-65239445D01*
X128967671Y-65297401D01*
X128959771Y-65303141D01*
X128958032Y-65300747D01*
X128910567Y-65326666D01*
X128884209Y-65329500D01*
X128624000Y-65329500D01*
X128556961Y-65309815D01*
X128511206Y-65257011D01*
X128500000Y-65205500D01*
X128500000Y-59374000D01*
X128519685Y-59306961D01*
X128572489Y-59261206D01*
X128624000Y-59250000D01*
X135816745Y-59250000D01*
X135883784Y-59269685D01*
G37*
G04 #@! TD.AperFunction*
G04 #@! TA.AperFunction,Conductor*
G36*
X144822008Y-64217832D02*
G01*
X144861825Y-64244541D01*
X145583760Y-64966476D01*
X145670524Y-65016569D01*
X145767298Y-65042500D01*
X152534793Y-65042500D01*
X152601832Y-65062185D01*
X152647587Y-65114989D01*
X152657531Y-65184147D01*
X152628506Y-65247703D01*
X152622474Y-65254181D01*
X152619579Y-65257075D01*
X152528139Y-65377656D01*
X152472622Y-65518438D01*
X152471234Y-65530000D01*
X152462000Y-65606898D01*
X152462000Y-67693102D01*
X152467626Y-67739954D01*
X152472622Y-67781561D01*
X152528139Y-67922343D01*
X152619577Y-68042922D01*
X152740156Y-68134360D01*
X152740157Y-68134360D01*
X152740158Y-68134361D01*
X152880936Y-68189877D01*
X152969398Y-68200500D01*
X152969403Y-68200500D01*
X154626000Y-68200500D01*
X154693039Y-68220185D01*
X154738794Y-68272989D01*
X154750000Y-68324500D01*
X154750000Y-72376000D01*
X154730315Y-72443039D01*
X154677511Y-72488794D01*
X154626000Y-72500000D01*
X148000000Y-72500000D01*
X148000000Y-74606000D01*
X147980315Y-74673039D01*
X147927511Y-74718794D01*
X147876000Y-74730000D01*
X146588602Y-74730000D01*
X146521563Y-74710315D01*
X146475808Y-74657511D01*
X146464620Y-74603915D01*
X146500000Y-72500000D01*
X141155256Y-72500000D01*
X141088217Y-72480315D01*
X141067575Y-72463681D01*
X140274318Y-71670424D01*
X140240833Y-71609101D01*
X140237999Y-71582751D01*
X140237999Y-70253999D01*
X140240549Y-70245314D01*
X140239261Y-70236353D01*
X140250239Y-70212312D01*
X140257684Y-70186961D01*
X140264524Y-70181033D01*
X140268286Y-70172797D01*
X140290520Y-70158507D01*
X140310488Y-70141206D01*
X140321002Y-70138918D01*
X140327064Y-70135023D01*
X140361999Y-70130000D01*
X140484535Y-70130000D01*
X140530349Y-70138774D01*
X140536466Y-70141206D01*
X140570134Y-70154592D01*
X140614052Y-70167488D01*
X140644240Y-70174709D01*
X140756511Y-70174615D01*
X140756516Y-70174614D01*
X140756517Y-70174614D01*
X140767172Y-70172612D01*
X140825180Y-70161719D01*
X140897961Y-70136916D01*
X140918586Y-70131811D01*
X140920422Y-70131520D01*
X140939784Y-70130000D01*
X141134535Y-70130000D01*
X141180349Y-70138774D01*
X141186466Y-70141206D01*
X141220134Y-70154592D01*
X141264052Y-70167488D01*
X141294240Y-70174709D01*
X141406511Y-70174615D01*
X141406516Y-70174614D01*
X141406517Y-70174614D01*
X141417172Y-70172612D01*
X141475180Y-70161719D01*
X141547961Y-70136916D01*
X141568586Y-70131811D01*
X141570422Y-70131520D01*
X141589784Y-70130000D01*
X141785221Y-70130000D01*
X141804603Y-70131524D01*
X141808819Y-70132192D01*
X141811007Y-70132530D01*
X141811182Y-70132556D01*
X141811231Y-70132564D01*
X141811230Y-70132564D01*
X141811850Y-70132657D01*
X141812756Y-70132794D01*
X141901833Y-70133106D01*
X141970991Y-70123162D01*
X142030658Y-70108332D01*
X142127571Y-70051653D01*
X142180375Y-70005898D01*
X142180382Y-70005890D01*
X142180387Y-70005886D01*
X142222548Y-69961170D01*
X142222553Y-69961165D01*
X142273439Y-69861089D01*
X142293124Y-69794050D01*
X142305500Y-69707978D01*
X142305500Y-66392020D01*
X142305492Y-66389778D01*
X142305479Y-66388007D01*
X142291854Y-66300006D01*
X142271215Y-66233255D01*
X142247232Y-66176636D01*
X142247231Y-66176635D01*
X142247231Y-66176634D01*
X142176091Y-66089784D01*
X142176086Y-66089779D01*
X142122639Y-66044787D01*
X142071858Y-66010125D01*
X142016033Y-65992039D01*
X141965051Y-65975522D01*
X141965047Y-65975521D01*
X141965043Y-65975520D01*
X141895754Y-65966566D01*
X141808818Y-65967807D01*
X141808804Y-65967808D01*
X141804610Y-65968473D01*
X141785219Y-65969999D01*
X141590466Y-65969999D01*
X141544654Y-65961226D01*
X141504860Y-65945404D01*
X141460923Y-65932504D01*
X141460917Y-65932502D01*
X141430756Y-65925290D01*
X141430754Y-65925290D01*
X141385845Y-65925327D01*
X141318480Y-65925384D01*
X141318476Y-65925384D01*
X141249825Y-65938277D01*
X141249813Y-65938281D01*
X141177039Y-65963081D01*
X141156511Y-65968171D01*
X141154687Y-65968461D01*
X141135217Y-65969999D01*
X140940466Y-65969999D01*
X140894654Y-65961226D01*
X140854860Y-65945404D01*
X140810923Y-65932504D01*
X140810917Y-65932502D01*
X140780756Y-65925290D01*
X140780754Y-65925290D01*
X140735845Y-65925327D01*
X140668480Y-65925384D01*
X140668476Y-65925384D01*
X140599825Y-65938277D01*
X140599813Y-65938281D01*
X140527039Y-65963081D01*
X140506511Y-65968171D01*
X140504687Y-65968461D01*
X140485217Y-65969999D01*
X140362000Y-65969999D01*
X140294961Y-65950314D01*
X140249206Y-65897510D01*
X140238000Y-65845999D01*
X140237999Y-64468477D01*
X140233790Y-64441904D01*
X140242744Y-64372611D01*
X140287740Y-64319159D01*
X140354492Y-64298519D01*
X140356410Y-64298506D01*
X144459402Y-64306381D01*
X144464722Y-64306293D01*
X144470579Y-64306198D01*
X144470606Y-64306197D01*
X144470609Y-64306197D01*
X144479693Y-64305881D01*
X144575834Y-64286804D01*
X144641298Y-64262387D01*
X144696447Y-64235215D01*
X144696451Y-64235211D01*
X144703762Y-64230204D01*
X144705868Y-64233279D01*
X144752566Y-64210114D01*
X144822008Y-64217832D01*
G37*
G04 #@! TD.AperFunction*
G04 #@! TA.AperFunction,Conductor*
G36*
X137336883Y-70019685D02*
G01*
X137382638Y-70072489D01*
X137392582Y-70141647D01*
X137390043Y-70153906D01*
X137387000Y-70180131D01*
X137387000Y-71644856D01*
X137387002Y-71644882D01*
X137389913Y-71669987D01*
X137389915Y-71669991D01*
X137435293Y-71772764D01*
X137450681Y-71788152D01*
X137484166Y-71849475D01*
X137487000Y-71875833D01*
X137487000Y-72913000D01*
X137467315Y-72980039D01*
X137414511Y-73025794D01*
X137363000Y-73037000D01*
X136908230Y-73037000D01*
X136877800Y-73039853D01*
X136877798Y-73039853D01*
X136749619Y-73084706D01*
X136749617Y-73084707D01*
X136640350Y-73165350D01*
X136559707Y-73274617D01*
X136559706Y-73274619D01*
X136529541Y-73360826D01*
X136488819Y-73417602D01*
X136423866Y-73443349D01*
X136355305Y-73429892D01*
X136304902Y-73381505D01*
X136295459Y-73360826D01*
X136265293Y-73274619D01*
X136265292Y-73274617D01*
X136184650Y-73165350D01*
X136075382Y-73084707D01*
X136075380Y-73084706D01*
X135947200Y-73039853D01*
X135916770Y-73037000D01*
X135916766Y-73037000D01*
X134908234Y-73037000D01*
X134908230Y-73037000D01*
X134877800Y-73039853D01*
X134877798Y-73039853D01*
X134749619Y-73084706D01*
X134749617Y-73084707D01*
X134640350Y-73165350D01*
X134559707Y-73274617D01*
X134559706Y-73274619D01*
X134514853Y-73402798D01*
X134514853Y-73402800D01*
X134512000Y-73433230D01*
X134512000Y-74066769D01*
X134514853Y-74097199D01*
X134514853Y-74097201D01*
X134559706Y-74225380D01*
X134559707Y-74225382D01*
X134640350Y-74334650D01*
X134749618Y-74415293D01*
X134792345Y-74430244D01*
X134877799Y-74460146D01*
X134908230Y-74463000D01*
X134908234Y-74463000D01*
X135916770Y-74463000D01*
X135947199Y-74460146D01*
X135947201Y-74460146D01*
X136011290Y-74437719D01*
X136075382Y-74415293D01*
X136184650Y-74334650D01*
X136265293Y-74225382D01*
X136295459Y-74139173D01*
X136336181Y-74082397D01*
X136401133Y-74056650D01*
X136469695Y-74070106D01*
X136520098Y-74118494D01*
X136529541Y-74139173D01*
X136559707Y-74225382D01*
X136640350Y-74334650D01*
X136749618Y-74415293D01*
X136792345Y-74430244D01*
X136877799Y-74460146D01*
X136908230Y-74463000D01*
X136908234Y-74463000D01*
X137916770Y-74463000D01*
X137947199Y-74460146D01*
X137947201Y-74460146D01*
X138011290Y-74437719D01*
X138075382Y-74415293D01*
X138152367Y-74358475D01*
X138217995Y-74334505D01*
X138286166Y-74349820D01*
X138335234Y-74399561D01*
X138350000Y-74458246D01*
X138350000Y-74866753D01*
X138330315Y-74933792D01*
X138277511Y-74979547D01*
X138208353Y-74989491D01*
X138152367Y-74966524D01*
X138108016Y-74933792D01*
X138075382Y-74909707D01*
X138075380Y-74909706D01*
X137947200Y-74864853D01*
X137916770Y-74862000D01*
X137916766Y-74862000D01*
X136908234Y-74862000D01*
X136908230Y-74862000D01*
X136877800Y-74864853D01*
X136877798Y-74864853D01*
X136749619Y-74909706D01*
X136749617Y-74909707D01*
X136640350Y-74990350D01*
X136559707Y-75099617D01*
X136559706Y-75099619D01*
X136514853Y-75227798D01*
X136514853Y-75227800D01*
X136512000Y-75258230D01*
X136512000Y-75891769D01*
X136514853Y-75922199D01*
X136514853Y-75922201D01*
X136559706Y-76050380D01*
X136559707Y-76050382D01*
X136640350Y-76159650D01*
X136749618Y-76240293D01*
X136790411Y-76254567D01*
X136877796Y-76285145D01*
X136877798Y-76285145D01*
X136877801Y-76285146D01*
X136892260Y-76286502D01*
X136957168Y-76312358D01*
X136997794Y-76369202D01*
X137001239Y-76438987D01*
X136966408Y-76499556D01*
X136921641Y-76527000D01*
X136899618Y-76534707D01*
X136899617Y-76534707D01*
X136899616Y-76534708D01*
X136790350Y-76615350D01*
X136709707Y-76724617D01*
X136709706Y-76724619D01*
X136664853Y-76852798D01*
X136664853Y-76852800D01*
X136662000Y-76883230D01*
X136662000Y-77636667D01*
X136642315Y-77703706D01*
X136625681Y-77724348D01*
X135759541Y-78590487D01*
X135759535Y-78590495D01*
X135719982Y-78659004D01*
X135719979Y-78659009D01*
X135699500Y-78735439D01*
X135699500Y-80126000D01*
X135679815Y-80193039D01*
X135627011Y-80238794D01*
X135575500Y-80250000D01*
X134874000Y-80250000D01*
X134806961Y-80230315D01*
X134761206Y-80177511D01*
X134750000Y-80126000D01*
X134750000Y-76750000D01*
X131579500Y-76750000D01*
X131512461Y-76730315D01*
X131466706Y-76677511D01*
X131455500Y-76626000D01*
X131455500Y-72379500D01*
X131475185Y-72312461D01*
X131527989Y-72266706D01*
X131579500Y-72255500D01*
X135375991Y-72255500D01*
X135376000Y-72255500D01*
X135419684Y-72250803D01*
X135448875Y-72244452D01*
X135471174Y-72239602D01*
X135471190Y-72239598D01*
X135471195Y-72239597D01*
X135481373Y-72237110D01*
X135562085Y-72194100D01*
X135614889Y-72148345D01*
X135632843Y-72130754D01*
X135677490Y-72050937D01*
X135697175Y-71983898D01*
X135705500Y-71926000D01*
X135705500Y-71774500D01*
X135708050Y-71765814D01*
X135706762Y-71756853D01*
X135717740Y-71732812D01*
X135725185Y-71707461D01*
X135732025Y-71701533D01*
X135735787Y-71693297D01*
X135758021Y-71679007D01*
X135777989Y-71661706D01*
X135788503Y-71659418D01*
X135794565Y-71655523D01*
X135829500Y-71650500D01*
X135921962Y-71650500D01*
X135983963Y-71667114D01*
X135988609Y-71669796D01*
X135988610Y-71669797D01*
X135988614Y-71669799D01*
X136103191Y-71700500D01*
X136103194Y-71700500D01*
X136221806Y-71700500D01*
X136221809Y-71700500D01*
X136336386Y-71669799D01*
X136439113Y-71610489D01*
X136522989Y-71526613D01*
X136582299Y-71423886D01*
X136613000Y-71309309D01*
X136613000Y-71190691D01*
X136582299Y-71076114D01*
X136522989Y-70973387D01*
X136522987Y-70973385D01*
X136518925Y-70966349D01*
X136521092Y-70965097D01*
X136500430Y-70911653D01*
X136500000Y-70901335D01*
X136500000Y-70124000D01*
X136519685Y-70056961D01*
X136572489Y-70011206D01*
X136624000Y-70000000D01*
X137269844Y-70000000D01*
X137336883Y-70019685D01*
G37*
G04 #@! TD.AperFunction*
G04 #@! TA.AperFunction,Conductor*
G36*
X127592706Y-70519685D02*
G01*
X127638461Y-70572489D01*
X127648405Y-70641647D01*
X127619380Y-70705203D01*
X127613348Y-70711681D01*
X126454444Y-71870584D01*
X126393121Y-71904069D01*
X126323429Y-71899085D01*
X126267496Y-71857213D01*
X126244290Y-71802300D01*
X126234720Y-71741878D01*
X126234719Y-71741876D01*
X126234719Y-71741874D01*
X126173528Y-71621780D01*
X126173526Y-71621778D01*
X126173523Y-71621774D01*
X126078225Y-71526476D01*
X126078221Y-71526473D01*
X126078220Y-71526472D01*
X125958126Y-71465281D01*
X125958124Y-71465280D01*
X125958121Y-71465279D01*
X125858493Y-71449500D01*
X125858488Y-71449500D01*
X125341512Y-71449500D01*
X125341507Y-71449500D01*
X125241878Y-71465279D01*
X125121778Y-71526473D01*
X125121774Y-71526476D01*
X125026476Y-71621774D01*
X125026474Y-71621778D01*
X125026472Y-71621780D01*
X124976786Y-71719295D01*
X124966336Y-71730359D01*
X124960014Y-71744203D01*
X124942833Y-71755244D01*
X124928811Y-71770091D01*
X124913131Y-71774332D01*
X124901236Y-71781977D01*
X124866301Y-71787000D01*
X124751970Y-71787000D01*
X124684931Y-71767315D01*
X124639176Y-71714511D01*
X124634929Y-71703956D01*
X124619281Y-71659239D01*
X124602793Y-71612118D01*
X124522150Y-71502850D01*
X124412882Y-71422207D01*
X124412880Y-71422206D01*
X124284700Y-71377353D01*
X124254270Y-71374500D01*
X124254266Y-71374500D01*
X123245734Y-71374500D01*
X123245730Y-71374500D01*
X123215300Y-71377353D01*
X123215298Y-71377353D01*
X123087119Y-71422206D01*
X123087117Y-71422207D01*
X122977850Y-71502850D01*
X122897207Y-71612117D01*
X122897206Y-71612119D01*
X122852353Y-71740298D01*
X122852353Y-71740300D01*
X122849500Y-71770730D01*
X122849500Y-72404269D01*
X122852353Y-72434699D01*
X122852353Y-72434701D01*
X122897206Y-72562880D01*
X122897207Y-72562882D01*
X122977850Y-72672150D01*
X123087118Y-72752793D01*
X123129845Y-72767744D01*
X123215299Y-72797646D01*
X123245730Y-72800500D01*
X123245734Y-72800500D01*
X124254270Y-72800500D01*
X124284699Y-72797646D01*
X124284701Y-72797646D01*
X124348790Y-72775219D01*
X124412882Y-72752793D01*
X124522150Y-72672150D01*
X124602793Y-72562882D01*
X124628133Y-72490464D01*
X124634929Y-72471044D01*
X124648548Y-72452055D01*
X124658257Y-72430797D01*
X124668532Y-72424193D01*
X124675651Y-72414269D01*
X124697374Y-72405657D01*
X124717035Y-72393023D01*
X124736201Y-72390267D01*
X124740604Y-72388522D01*
X124751970Y-72388000D01*
X124825500Y-72388000D01*
X124892539Y-72407685D01*
X124938294Y-72460489D01*
X124949500Y-72512000D01*
X124949500Y-72658493D01*
X124965279Y-72758121D01*
X124965280Y-72758124D01*
X124965281Y-72758126D01*
X124986872Y-72800500D01*
X125026473Y-72878221D01*
X125026476Y-72878225D01*
X125121774Y-72973523D01*
X125121778Y-72973526D01*
X125121780Y-72973528D01*
X125241874Y-73034719D01*
X125241876Y-73034719D01*
X125241878Y-73034720D01*
X125341507Y-73050500D01*
X125341512Y-73050500D01*
X125858493Y-73050500D01*
X125958121Y-73034720D01*
X125958121Y-73034719D01*
X125958126Y-73034719D01*
X126078220Y-72973528D01*
X126173528Y-72878220D01*
X126234719Y-72758126D01*
X126243846Y-72700500D01*
X126251037Y-72655102D01*
X126280966Y-72591967D01*
X126340278Y-72555036D01*
X126373510Y-72550500D01*
X126539560Y-72550500D01*
X126539562Y-72550500D01*
X126615989Y-72530021D01*
X126684511Y-72490460D01*
X126740460Y-72434511D01*
X128407819Y-70767152D01*
X128469142Y-70733667D01*
X128538834Y-70738651D01*
X128594767Y-70780523D01*
X128619184Y-70845987D01*
X128619500Y-70854833D01*
X128619500Y-71349967D01*
X128599815Y-71417006D01*
X128550154Y-71460037D01*
X128550569Y-71460851D01*
X128547283Y-71462525D01*
X128547011Y-71462761D01*
X128546200Y-71463076D01*
X128469397Y-71502209D01*
X128421780Y-71526472D01*
X128421779Y-71526473D01*
X128421774Y-71526476D01*
X128326476Y-71621774D01*
X128326473Y-71621778D01*
X128326472Y-71621780D01*
X128266083Y-71740301D01*
X128265279Y-71741878D01*
X128249500Y-71841506D01*
X128249500Y-72658493D01*
X128265279Y-72758121D01*
X128265280Y-72758124D01*
X128265281Y-72758126D01*
X128286872Y-72800500D01*
X128326473Y-72878221D01*
X128326476Y-72878225D01*
X128421774Y-72973523D01*
X128421778Y-72973526D01*
X128421780Y-72973528D01*
X128541874Y-73034719D01*
X128541876Y-73034719D01*
X128541878Y-73034720D01*
X128641507Y-73050500D01*
X128641512Y-73050500D01*
X129158493Y-73050500D01*
X129258121Y-73034720D01*
X129258121Y-73034719D01*
X129258126Y-73034719D01*
X129378220Y-72973528D01*
X129473528Y-72878220D01*
X129534719Y-72758126D01*
X129535564Y-72752792D01*
X129550500Y-72658493D01*
X129550500Y-71841506D01*
X129534720Y-71741878D01*
X129534719Y-71741876D01*
X129534719Y-71741874D01*
X129473528Y-71621780D01*
X129473526Y-71621778D01*
X129473523Y-71621774D01*
X129378225Y-71526476D01*
X129378222Y-71526474D01*
X129378220Y-71526472D01*
X129258126Y-71465281D01*
X129258124Y-71465280D01*
X129249431Y-71460851D01*
X129251092Y-71457590D01*
X129208469Y-71428415D01*
X129181302Y-71364043D01*
X129180500Y-71349967D01*
X129180500Y-70624000D01*
X129200185Y-70556961D01*
X129252989Y-70511206D01*
X129304500Y-70500000D01*
X135376000Y-70500000D01*
X135443039Y-70519685D01*
X135488794Y-70572489D01*
X135500000Y-70624000D01*
X135500000Y-71926000D01*
X135480315Y-71993039D01*
X135427511Y-72038794D01*
X135376000Y-72050000D01*
X131250000Y-72050000D01*
X131250000Y-82523666D01*
X131230315Y-82590705D01*
X131213681Y-82611347D01*
X130861847Y-82963181D01*
X130800524Y-82996666D01*
X130774166Y-82999500D01*
X130684108Y-82999500D01*
X130556812Y-83033608D01*
X130442686Y-83099500D01*
X130442683Y-83099502D01*
X130349502Y-83192683D01*
X130344552Y-83199135D01*
X130342080Y-83197238D01*
X130302130Y-83235290D01*
X130245252Y-83249043D01*
X113010860Y-83232645D01*
X112943839Y-83212897D01*
X112923297Y-83196326D01*
X111336819Y-81609848D01*
X111303334Y-81548525D01*
X111300500Y-81522167D01*
X111300500Y-70624000D01*
X111320185Y-70556961D01*
X111372989Y-70511206D01*
X111424500Y-70500000D01*
X127525667Y-70500000D01*
X127592706Y-70519685D01*
G37*
G04 #@! TD.AperFunction*
M02*
