M48
; DRILL file {KiCad 9.0.3} date 2025-08-25T22:35:28-0500
; FORMAT={-:-/ absolute / metric / decimal}
; #@! TF.CreationDate,2025-08-25T22:35:28-05:00
; #@! TF.GenerationSoftware,Kicad,Pcbnew,9.0.3
; #@! TF.FileFunction,Plated,1,2,PTH
FMAT,2
METRIC
; #@! TA.AperFunction,Plated,PTH,ComponentDrill
T1C0.200
; #@! TA.AperFunction,Plated,PTH,ViaDrill
T2C0.300
; #@! TA.AperFunction,Plated,PTH,ComponentDrill
T3C1.000
; #@! TA.AperFunction,Plated,PTH,ComponentDrill
T4C1.016
; #@! TA.AperFunction,Plated,PTH,ComponentDrill
T5C1.020
; #@! TA.AperFunction,Plated,PTH,ComponentDrill
T6C1.300
; #@! TA.AperFunction,Plated,PTH,ComponentDrill
T7C1.780
; #@! TA.AperFunction,Plated,PTH,ComponentDrill
T8C3.200
; #@! TA.AperFunction,Plated,PTH,ComponentDrill
T9C5.410
%
G90
G05
T1
X137.612Y-66.85
X137.612Y-68.05
X137.612Y-69.25
X138.812Y-66.85
X138.812Y-68.05
X138.812Y-69.25
X140.012Y-66.85
X140.012Y-68.05
X140.012Y-69.25
X141.213Y-66.85
X141.213Y-68.05
X141.213Y-69.25
T2
X114.0Y-91.25
X114.037Y-93.25
X130.488Y-119.238
X130.75Y-83.5
X133.588Y-103.143
X134.25Y-99.65
X136.662Y-59.0
X138.5Y-96.0
X138.662Y-59.0
X138.9Y-79.6
X140.662Y-59.0
X141.0Y-110.5
X141.012Y-79.612
X141.5Y-97.25
X142.265Y-86.515
X143.5Y-110.5
X143.75Y-129.139
X144.751Y-119.25
X145.25Y-107.5
X145.25Y-110.5
X145.412Y-75.5
X147.25Y-101.88
X149.112Y-73.75
X149.75Y-101.912
X152.25Y-101.912
X153.25Y-66.0
X153.25Y-67.25
X154.25Y-117.75
X154.5Y-66.0
X154.5Y-67.25
X156.1Y-114.0
X158.25Y-117.725
X158.25Y-119.275
X158.25Y-123.475
X158.25Y-125.025
X158.25Y-129.225
X158.25Y-130.775
X158.75Y-114.0
X162.0Y-116.25
X162.0Y-120.225
X162.0Y-123.975
X163.75Y-114.0
X164.0Y-119.0
X164.25Y-121.0
X164.25Y-124.75
X165.5Y-116.725
X165.5Y-120.475
X165.5Y-124.225
X165.5Y-125.775
X168.0Y-115.5
X168.001Y-116.75
X168.001Y-120.5
T3
X112.0Y-85.0
X112.0Y-107.25
X112.75Y-96.25
X112.75Y-100.0
X116.92Y-107.25
X116.96Y-85.0
X119.46Y-107.25
X119.5Y-85.0
X120.38Y-135.0
X122.0Y-107.25
X122.04Y-85.0
X122.92Y-135.0
X124.0Y-57.25
X124.58Y-85.0
X125.46Y-135.0
X125.75Y-107.25
X127.12Y-85.0
X128.0Y-135.0
X128.29Y-107.25
X129.66Y-85.0
X130.54Y-135.0
X130.83Y-107.25
X132.2Y-85.0
X132.5Y-74.75
X133.08Y-135.0
X133.37Y-107.25
X133.75Y-61.75
X134.74Y-85.0
X135.91Y-107.25
X137.25Y-48.5
X138.45Y-107.25
X138.5Y-85.0
X140.99Y-107.25
X141.04Y-85.0
X142.75Y-48.5
X143.53Y-107.25
X143.58Y-85.0
X146.12Y-85.0
X148.66Y-85.0
X151.2Y-85.0
X152.94Y-134.75
X153.412Y-57.5
X153.412Y-70.75
X153.74Y-85.0
X154.0Y-107.25
X155.48Y-134.75
X156.28Y-85.0
X157.25Y-81.0
X158.02Y-134.75
X160.56Y-134.75
T4
X164.25Y-95.84
X164.25Y-98.38
X164.25Y-100.92
X164.25Y-103.46
X164.25Y-106.0
X166.79Y-95.84
X166.79Y-98.38
X166.79Y-100.92
X166.79Y-103.46
X166.79Y-106.0
T5
X112.09Y-113.0
X112.09Y-128.24
X114.63Y-113.0
X114.63Y-128.24
X117.17Y-113.0
X117.17Y-128.24
X119.71Y-113.0
X119.71Y-128.24
X122.25Y-113.0
X122.25Y-128.24
X124.79Y-113.0
X124.79Y-128.24
X127.33Y-113.0
X127.33Y-128.24
X129.87Y-113.0
X129.87Y-128.24
X132.41Y-113.0
X132.41Y-128.24
X134.95Y-113.0
X134.95Y-128.24
X137.49Y-113.0
X137.49Y-128.24
X140.03Y-113.0
X140.03Y-128.24
X142.57Y-113.0
X142.57Y-128.24
X145.11Y-113.0
X145.11Y-128.24
X147.65Y-113.0
X147.65Y-128.24
T6
X125.0Y-50.75
X130.0Y-50.75
X150.5Y-50.782
X155.5Y-50.782
T7
X146.213Y-59.29
X146.213Y-69.21
X149.612Y-59.29
X149.612Y-69.21
T8
X114.25Y-49.75
X114.25Y-133.75
X166.0Y-49.75
X166.0Y-133.75
T9
X115.8Y-58.75
X115.8Y-77.8
X164.5Y-58.75
X164.5Y-77.8
M30
