G04 #@! TF.GenerationSoftware,KiCad,Pcbnew,9.0.3*
G04 #@! TF.CreationDate,2025-08-25T22:34:56-05:00*
G04 #@! TF.ProjectId,TestBoard_TPS27SA08-Q1,54657374-426f-4617-9264-5f5450533237,rev?*
G04 #@! TF.SameCoordinates,Original*
G04 #@! TF.FileFunction,Soldermask,Bot*
G04 #@! TF.FilePolarity,Negative*
%FSLAX46Y46*%
G04 Gerber Fmt 4.6, Leading zero omitted, Abs format (unit mm)*
G04 Created by KiCad (PCBNEW 9.0.3) date 2025-08-25 22:34:56*
%MOMM*%
%LPD*%
G01*
G04 APERTURE LIST*
G04 Aperture macros list*
%AMRoundRect*
0 Rectangle with rounded corners*
0 $1 Rounding radius*
0 $2 $3 $4 $5 $6 $7 $8 $9 X,Y pos of 4 corners*
0 Add a 4 corners polygon primitive as box body*
4,1,4,$2,$3,$4,$5,$6,$7,$8,$9,$2,$3,0*
0 Add four circle primitives for the rounded corners*
1,1,$1+$1,$2,$3*
1,1,$1+$1,$4,$5*
1,1,$1+$1,$6,$7*
1,1,$1+$1,$8,$9*
0 Add four rect primitives between the rounded corners*
20,1,$1+$1,$2,$3,$4,$5,0*
20,1,$1+$1,$4,$5,$6,$7,0*
20,1,$1+$1,$6,$7,$8,$9,0*
20,1,$1+$1,$8,$9,$2,$3,0*%
%AMFreePoly0*
4,1,23,0.500000,-0.750000,0.000000,-0.750000,0.000000,-0.745722,-0.065263,-0.745722,-0.191342,-0.711940,-0.304381,-0.646677,-0.396677,-0.554381,-0.461940,-0.441342,-0.495722,-0.315263,-0.495722,-0.250000,-0.500000,-0.250000,-0.500000,0.250000,-0.495722,0.250000,-0.495722,0.315263,-0.461940,0.441342,-0.396677,0.554381,-0.304381,0.646677,-0.191342,0.711940,-0.065263,0.745722,0.000000,0.745722,
0.000000,0.750000,0.500000,0.750000,0.500000,-0.750000,0.500000,-0.750000,$1*%
%AMFreePoly1*
4,1,23,0.000000,0.745722,0.065263,0.745722,0.191342,0.711940,0.304381,0.646677,0.396677,0.554381,0.461940,0.441342,0.495722,0.315263,0.495722,0.250000,0.500000,0.250000,0.500000,-0.250000,0.495722,-0.250000,0.495722,-0.315263,0.461940,-0.441342,0.396677,-0.554381,0.304381,-0.646677,0.191342,-0.711940,0.065263,-0.745722,0.000000,-0.745722,0.000000,-0.750000,-0.500000,-0.750000,
-0.500000,0.750000,0.000000,0.750000,0.000000,0.745722,0.000000,0.745722,$1*%
G04 Aperture macros list end*
%ADD10C,0.000000*%
%ADD11R,1.700000X1.700000*%
%ADD12C,8.115000*%
%ADD13C,1.700000*%
%ADD14RoundRect,0.250001X1.149999X1.149999X-1.149999X1.149999X-1.149999X-1.149999X1.149999X-1.149999X0*%
%ADD15C,2.800000*%
%ADD16RoundRect,0.102000X0.765000X-0.765000X0.765000X0.765000X-0.765000X0.765000X-0.765000X-0.765000X0*%
%ADD17C,1.734000*%
%ADD18C,2.780000*%
%ADD19C,6.400000*%
%ADD20C,1.524000*%
%ADD21RoundRect,0.243750X0.456250X-0.243750X0.456250X0.243750X-0.456250X0.243750X-0.456250X-0.243750X0*%
%ADD22RoundRect,0.250000X-0.450000X0.262500X-0.450000X-0.262500X0.450000X-0.262500X0.450000X0.262500X0*%
%ADD23RoundRect,0.225000X-0.250000X0.225000X-0.250000X-0.225000X0.250000X-0.225000X0.250000X0.225000X0*%
%ADD24RoundRect,0.250000X-0.262500X-0.450000X0.262500X-0.450000X0.262500X0.450000X-0.262500X0.450000X0*%
%ADD25FreePoly0,0.000000*%
%ADD26FreePoly1,0.000000*%
G04 APERTURE END LIST*
G36*
X166600000Y-114750000D02*
G01*
X166900000Y-114750000D01*
X166900000Y-113250000D01*
X166600000Y-113250000D01*
X166600000Y-114750000D01*
G37*
G36*
X161600000Y-114750000D02*
G01*
X161900000Y-114750000D01*
X161900000Y-113250000D01*
X161600000Y-113250000D01*
X161600000Y-114750000D01*
G37*
G36*
X156600000Y-114750000D02*
G01*
X156900000Y-114750000D01*
X156900000Y-113250000D01*
X156600000Y-113250000D01*
X156600000Y-114750000D01*
G37*
D10*
G36*
X150092166Y-135311488D02*
G01*
X150105562Y-136710000D01*
X148769249Y-136710000D01*
X147432936Y-136710000D01*
X147432936Y-136459059D01*
X147432936Y-136208119D01*
X148453472Y-136194476D01*
X149474007Y-136180833D01*
X149499206Y-135046905D01*
X149524404Y-133912976D01*
X149801587Y-133912976D01*
X150078769Y-133912976D01*
X150092166Y-135311488D01*
G37*
G36*
X138650000Y-135038968D02*
G01*
X138650000Y-135744524D01*
X137868849Y-135744524D01*
X137087699Y-135744524D01*
X137087699Y-135996508D01*
X137087699Y-136248492D01*
X137868849Y-136248492D01*
X138650000Y-136248492D01*
X138650000Y-136475278D01*
X138650000Y-136702063D01*
X137642064Y-136702063D01*
X136634127Y-136702063D01*
X136634127Y-135996508D01*
X136634127Y-135290952D01*
X137415278Y-135290952D01*
X138196429Y-135290952D01*
X138196429Y-135038968D01*
X138196429Y-134786984D01*
X137415278Y-134786984D01*
X136634127Y-134786984D01*
X136634127Y-134560198D01*
X136634127Y-134333413D01*
X137642064Y-134333413D01*
X138650000Y-134333413D01*
X138650000Y-135038968D01*
G37*
G36*
X143920010Y-133897105D02*
G01*
X143996219Y-133946509D01*
X144038229Y-134049779D01*
X144057939Y-134222555D01*
X144067248Y-134480474D01*
X144081547Y-135021706D01*
X145165079Y-135021706D01*
X146248611Y-135021706D01*
X146263153Y-134520561D01*
X146269124Y-134383801D01*
X146285949Y-134181243D01*
X146308725Y-134028573D01*
X146334272Y-133951244D01*
X146339637Y-133945420D01*
X146448210Y-133902861D01*
X146647309Y-133898025D01*
X146903769Y-133912976D01*
X146917170Y-135313914D01*
X146930571Y-136714851D01*
X146614789Y-136699826D01*
X146299007Y-136684801D01*
X146284749Y-136116859D01*
X146270490Y-135548916D01*
X145176018Y-135562494D01*
X144081547Y-135576071D01*
X144067297Y-136143036D01*
X144053048Y-136710000D01*
X143726322Y-136710000D01*
X143399596Y-136710000D01*
X143412992Y-135311488D01*
X143426388Y-133912976D01*
X143623172Y-133896870D01*
X143797702Y-133885930D01*
X143920010Y-133897105D01*
G37*
G36*
X142645238Y-135325047D02*
G01*
X142645238Y-136710000D01*
X142317658Y-136710000D01*
X141990079Y-136710000D01*
X141990079Y-136281627D01*
X141990079Y-135853254D01*
X141036197Y-135853254D01*
X140082315Y-135853254D01*
X139977864Y-135986042D01*
X139928102Y-136064351D01*
X139885658Y-136207713D01*
X139873412Y-136414415D01*
X139873412Y-136710000D01*
X139539668Y-136710000D01*
X139205924Y-136710000D01*
X139227562Y-136257429D01*
X139229366Y-136220905D01*
X139244684Y-136003634D01*
X139267770Y-135858775D01*
X139304437Y-135761351D01*
X139360501Y-135686385D01*
X139369712Y-135676572D01*
X139436703Y-135596382D01*
X139436870Y-135544076D01*
X139372629Y-135478160D01*
X139328578Y-135422966D01*
X139258305Y-135262348D01*
X139207812Y-135053805D01*
X139190385Y-134889462D01*
X139848214Y-134889462D01*
X139848593Y-134924497D01*
X139872805Y-135115962D01*
X139938147Y-135234093D01*
X139954651Y-135248897D01*
X140005141Y-135277551D01*
X140083859Y-135298885D01*
X140205319Y-135314404D01*
X140384035Y-135325610D01*
X140634518Y-135334007D01*
X140971281Y-135341098D01*
X140972842Y-135341126D01*
X141271655Y-135344519D01*
X141535436Y-135343761D01*
X141747756Y-135339204D01*
X141892181Y-135331199D01*
X141952281Y-135320099D01*
X141958184Y-135309012D01*
X141974458Y-135217374D01*
X141985812Y-135059653D01*
X141990079Y-134862116D01*
X141990079Y-134442143D01*
X141038122Y-134442143D01*
X140782936Y-134442554D01*
X140510760Y-134445123D01*
X140313212Y-134451247D01*
X140175186Y-134462287D01*
X140081577Y-134479601D01*
X140017280Y-134504546D01*
X139967190Y-134538484D01*
X139896590Y-134613196D01*
X139858209Y-134720129D01*
X139848214Y-134889462D01*
X139190385Y-134889462D01*
X139184219Y-134831314D01*
X139194648Y-134628856D01*
X139223307Y-134469132D01*
X139263728Y-134312094D01*
X139320818Y-134187992D01*
X139405092Y-134092721D01*
X139527066Y-134022178D01*
X139697256Y-133972257D01*
X139926177Y-133938856D01*
X140224345Y-133917869D01*
X140602275Y-133905193D01*
X141070483Y-133896724D01*
X141393611Y-133892880D01*
X141730996Y-133891106D01*
X142027153Y-133891903D01*
X142267195Y-133895150D01*
X142436236Y-133900726D01*
X142519392Y-133908509D01*
X142645238Y-133940095D01*
X142645238Y-134862116D01*
X142645238Y-135325047D01*
G37*
D11*
X154000000Y-107250000D03*
D12*
X164500000Y-77800000D03*
D11*
X112000000Y-107250000D03*
X124000000Y-57250000D03*
X116920000Y-107250000D03*
D13*
X119460000Y-107250000D03*
X122000000Y-107250000D03*
D14*
X155500000Y-50782500D03*
D15*
X150500000Y-50782500D03*
D11*
X132500000Y-74750000D03*
X112000000Y-85000000D03*
X112750000Y-96250000D03*
X153412500Y-70750000D03*
D16*
X112090000Y-128240000D03*
D17*
X114630000Y-128240000D03*
X117170000Y-128240000D03*
X119710000Y-128240000D03*
X122250000Y-128240000D03*
X124790000Y-128240000D03*
X127330000Y-128240000D03*
X129870000Y-128240000D03*
X132410000Y-128240000D03*
X134950000Y-128240000D03*
X137490000Y-128240000D03*
X140030000Y-128240000D03*
X142570000Y-128240000D03*
X145110000Y-128240000D03*
X147650000Y-128240000D03*
D16*
X112090000Y-113000000D03*
D17*
X114630000Y-113000000D03*
X117170000Y-113000000D03*
X119710000Y-113000000D03*
X122250000Y-113000000D03*
X124790000Y-113000000D03*
X127330000Y-113000000D03*
X129870000Y-113000000D03*
X132410000Y-113000000D03*
X134950000Y-113000000D03*
X137490000Y-113000000D03*
X140030000Y-113000000D03*
X142570000Y-113000000D03*
X145110000Y-113000000D03*
X147650000Y-113000000D03*
D11*
X153412500Y-57500000D03*
D14*
X130000000Y-50750000D03*
D15*
X125000000Y-50750000D03*
D12*
X115800000Y-77800000D03*
X164500000Y-58750000D03*
D11*
X116960000Y-85000000D03*
D13*
X119500000Y-85000000D03*
X122040000Y-85000000D03*
X124580000Y-85000000D03*
X127120000Y-85000000D03*
X129660000Y-85000000D03*
X132200000Y-85000000D03*
X134740000Y-85000000D03*
D11*
X133750000Y-61750000D03*
D18*
X146212500Y-69210000D03*
X149612500Y-69210000D03*
X146212500Y-59290000D03*
X149612500Y-59290000D03*
D11*
X142750000Y-48500000D03*
X157250000Y-81000000D03*
D19*
X166000000Y-133750000D03*
D11*
X125750000Y-107250000D03*
D13*
X128290000Y-107250000D03*
X130830000Y-107250000D03*
X133370000Y-107250000D03*
X135910000Y-107250000D03*
X138450000Y-107250000D03*
X140990000Y-107250000D03*
X143530000Y-107250000D03*
D12*
X115800000Y-58750000D03*
D11*
X137250000Y-48500000D03*
X133080000Y-135000000D03*
D13*
X130540000Y-135000000D03*
X128000000Y-135000000D03*
X125460000Y-135000000D03*
X122920000Y-135000000D03*
X120380000Y-135000000D03*
D19*
X114250000Y-49750000D03*
D11*
X112750000Y-100000000D03*
D20*
X166790000Y-95840000D03*
X164250000Y-95840000D03*
X166790000Y-98380000D03*
X164250000Y-98380000D03*
X166790000Y-100920000D03*
X164250000Y-100920000D03*
X166790000Y-103460000D03*
X164250000Y-103460000D03*
X166790000Y-106000000D03*
X164250000Y-106000000D03*
D11*
X138500000Y-85000000D03*
D13*
X141040000Y-85000000D03*
X143580000Y-85000000D03*
X146120000Y-85000000D03*
X148660000Y-85000000D03*
X151200000Y-85000000D03*
X153740000Y-85000000D03*
X156280000Y-85000000D03*
D19*
X114250000Y-133750000D03*
D11*
X160560000Y-134750000D03*
D13*
X158020000Y-134750000D03*
X155480000Y-134750000D03*
X152940000Y-134750000D03*
D19*
X166000000Y-49750000D03*
D21*
X117000000Y-89187500D03*
X117000000Y-87312500D03*
X134500000Y-89187500D03*
X134500000Y-87312500D03*
D22*
X129500000Y-90837500D03*
X129500000Y-92662500D03*
D21*
X132000000Y-89187500D03*
X132000000Y-87312500D03*
X127000000Y-89187500D03*
X127000000Y-87312500D03*
X146250000Y-89187500D03*
X146250000Y-87312500D03*
X138500000Y-89187500D03*
X138500000Y-87312500D03*
D23*
X158250000Y-117725000D03*
X158250000Y-119275000D03*
D22*
X138500000Y-90837500D03*
X138500000Y-92662500D03*
X117000000Y-90837500D03*
X117000000Y-92662500D03*
X148750000Y-90837500D03*
X148750000Y-92662500D03*
X153750000Y-90837500D03*
X153750000Y-92662500D03*
D23*
X162000000Y-116250000D03*
X162000000Y-117800000D03*
D21*
X148750000Y-89187500D03*
X148750000Y-87312500D03*
X122000000Y-89187500D03*
X122000000Y-87312500D03*
D22*
X122000000Y-90837500D03*
X122000000Y-92662500D03*
D23*
X162000000Y-123975000D03*
X162000000Y-125525000D03*
D24*
X139520000Y-96000000D03*
X141345000Y-96000000D03*
D23*
X162000000Y-120225000D03*
X162000000Y-121775000D03*
D25*
X166100000Y-114000000D03*
D26*
X167400000Y-114000000D03*
D25*
X161100000Y-114000000D03*
D26*
X162400000Y-114000000D03*
D22*
X134500000Y-90837500D03*
X134500000Y-92662500D03*
D21*
X151250000Y-89187500D03*
X151250000Y-87312500D03*
X143750000Y-89187500D03*
X143750000Y-87312500D03*
D23*
X165500000Y-120475000D03*
X165500000Y-122025000D03*
D24*
X135682500Y-96000000D03*
X137507500Y-96000000D03*
D21*
X156250000Y-89187500D03*
X156250000Y-87312500D03*
X141000000Y-89187500D03*
X141000000Y-87312500D03*
D23*
X165500000Y-116725000D03*
X165500000Y-118275000D03*
D22*
X124500000Y-90837500D03*
X124500000Y-92662500D03*
D21*
X124500000Y-89187500D03*
X124500000Y-87312500D03*
D22*
X156250000Y-90837500D03*
X156250000Y-92662500D03*
X151250000Y-90837500D03*
X151250000Y-92662500D03*
D21*
X129500000Y-89187500D03*
X129500000Y-87312500D03*
D25*
X156100000Y-114000000D03*
D26*
X157400000Y-114000000D03*
D22*
X152250000Y-100087500D03*
X152250000Y-101912500D03*
D23*
X158250000Y-129225000D03*
X158250000Y-130775000D03*
D22*
X132000000Y-90837500D03*
X132000000Y-92662500D03*
X146250000Y-90837500D03*
X146250000Y-92662500D03*
X119500000Y-90837500D03*
X119500000Y-92662500D03*
D23*
X158250000Y-123475000D03*
X158250000Y-125025000D03*
D22*
X127000000Y-90837500D03*
X127000000Y-92662500D03*
X147250000Y-100087500D03*
X147250000Y-101912500D03*
D21*
X153750000Y-89187500D03*
X153750000Y-87312500D03*
D23*
X165500000Y-124225000D03*
X165500000Y-125775000D03*
D22*
X149750000Y-100087500D03*
X149750000Y-101912500D03*
X143750000Y-90837500D03*
X143750000Y-92662500D03*
X141000000Y-90837500D03*
X141000000Y-92662500D03*
D21*
X119500000Y-89187500D03*
X119500000Y-87312500D03*
M02*
